<?xml version="1.0" encoding="UTF-8" standalone="no"?>
<svg
   xmlns:dc="http://purl.org/dc/elements/1.1/"
   xmlns:cc="http://creativecommons.org/ns#"
   xmlns:rdf="http://www.w3.org/1999/02/22-rdf-syntax-ns#"
   xmlns:svg="http://www.w3.org/2000/svg"
   xmlns="http://www.w3.org/2000/svg"
   xmlns:sodipodi="http://sodipodi.sourceforge.net/DTD/sodipodi-0.dtd"
   xmlns:inkscape="http://www.inkscape.org/namespaces/inkscape"
   viewBox="0 0 873.62244 547.82166"
   height="547.82166"
   width="873.62244"
   xml:space="preserve"
   id="svg2"
   version="1.1"
   sodipodi:docname="out.svg"
   inkscape:version="0.92.3 (2405546, 2018-03-11)"><sodipodi:namedview
     pagecolor="#ffffff"
     bordercolor="#666666"
     borderopacity="1"
     objecttolerance="10"
     gridtolerance="10"
     guidetolerance="10"
     inkscape:pageopacity="0"
     inkscape:pageshadow="2"
     inkscape:window-width="2560"
     inkscape:window-height="1377"
     id="namedview4081"
     showgrid="false"
     inkscape:zoom="1.175565"
     inkscape:cx="716.88779"
     inkscape:cy="80.938591"
     inkscape:window-x="0"
     inkscape:window-y="23"
     inkscape:window-maximized="0"
     inkscape:current-layer="svg2"
     fit-margin-top="0"
     fit-margin-left="0"
     fit-margin-right="0"
     fit-margin-bottom="0" /><metadata
     id="metadata8"><rdf:RDF><cc:Work
         rdf:about=""><dc:format>image/svg+xml</dc:format><dc:type
           rdf:resource="http://purl.org/dc/dcmitype/StillImage" /><dc:title></dc:title></cc:Work></rdf:RDF></metadata><defs
     id="defs6"><clipPath
       id="clipPath18"
       clipPathUnits="userSpaceOnUse"><path
         style="clip-rule:evenodd"
         id="path16"
         d="M 0,1.2207e-4 H 960 V 540.00012 H 0 Z"
         inkscape:connector-curvature="0" /></clipPath><clipPath
       id="clipPath32"
       clipPathUnits="userSpaceOnUse"><path
         style="clip-rule:evenodd"
         id="path30"
         d="M 1.4305e-5,0 H 960.00001 V 540 H 1.4305e-5 Z"
         inkscape:connector-curvature="0" /></clipPath><clipPath
       id="clipPath48"
       clipPathUnits="userSpaceOnUse"><path
         style="clip-rule:evenodd"
         id="path46"
         d="M 1.4305e-5,0 H 960.00001 V 540 H 1.4305e-5 Z"
         inkscape:connector-curvature="0" /></clipPath><clipPath
       id="clipPath64"
       clipPathUnits="userSpaceOnUse"><path
         style="clip-rule:evenodd"
         id="path62"
         d="M 1.4305e-5,0 H 960.00001 V 540 H 1.4305e-5 Z"
         inkscape:connector-curvature="0" /></clipPath><clipPath
       id="clipPath80"
       clipPathUnits="userSpaceOnUse"><path
         style="clip-rule:evenodd"
         id="path78"
         d="M 1.4305e-5,0 H 960.00001 V 540 H 1.4305e-5 Z"
         inkscape:connector-curvature="0" /></clipPath><clipPath
       id="clipPath96"
       clipPathUnits="userSpaceOnUse"><path
         style="clip-rule:evenodd"
         id="path94"
         d="M 1.4305e-5,0 H 960.00001 V 540 H 1.4305e-5 Z"
         inkscape:connector-curvature="0" /></clipPath><clipPath
       id="clipPath112"
       clipPathUnits="userSpaceOnUse"><path
         style="clip-rule:evenodd"
         id="path110"
         d="M 1.4305e-5,0 H 960.00001 V 540 H 1.4305e-5 Z"
         inkscape:connector-curvature="0" /></clipPath><clipPath
       id="clipPath128"
       clipPathUnits="userSpaceOnUse"><path
         style="clip-rule:evenodd"
         id="path126"
         d="M 1.4305e-5,0 H 960.00001 V 540 H 1.4305e-5 Z"
         inkscape:connector-curvature="0" /></clipPath><clipPath
       id="clipPath168"
       clipPathUnits="userSpaceOnUse"><path
         style="clip-rule:evenodd"
         id="path166"
         d="M 1.4305e-5,0 H 960.00001 V 540 H 1.4305e-5 Z"
         inkscape:connector-curvature="0" /></clipPath><clipPath
       id="clipPath184"
       clipPathUnits="userSpaceOnUse"><path
         style="clip-rule:evenodd"
         id="path182"
         d="M 1.4305e-5,0 H 960.00001 V 540 H 1.4305e-5 Z"
         inkscape:connector-curvature="0" /></clipPath><clipPath
       id="clipPath200"
       clipPathUnits="userSpaceOnUse"><path
         style="clip-rule:evenodd"
         id="path198"
         d="M 1.4305e-5,0 H 960.00001 V 540 H 1.4305e-5 Z"
         inkscape:connector-curvature="0" /></clipPath><clipPath
       id="clipPath216"
       clipPathUnits="userSpaceOnUse"><path
         style="clip-rule:evenodd"
         id="path214"
         d="M 1.4305e-5,0 H 960.00001 V 540 H 1.4305e-5 Z"
         inkscape:connector-curvature="0" /></clipPath><clipPath
       id="clipPath232"
       clipPathUnits="userSpaceOnUse"><path
         style="clip-rule:evenodd"
         id="path230"
         d="M 1.4305e-5,0 H 960.00001 V 540 H 1.4305e-5 Z"
         inkscape:connector-curvature="0" /></clipPath><clipPath
       id="clipPath248"
       clipPathUnits="userSpaceOnUse"><path
         style="clip-rule:evenodd"
         id="path246"
         d="M 1.4305e-5,0 H 960.00001 V 540 H 1.4305e-5 Z"
         inkscape:connector-curvature="0" /></clipPath><clipPath
       id="clipPath264"
       clipPathUnits="userSpaceOnUse"><path
         style="clip-rule:evenodd"
         id="path262"
         d="M 1.4305e-5,0 H 960.00001 V 540 H 1.4305e-5 Z"
         inkscape:connector-curvature="0" /></clipPath><clipPath
       id="clipPath280"
       clipPathUnits="userSpaceOnUse"><path
         style="clip-rule:evenodd"
         id="path278"
         d="M 1.4305e-5,0 H 960.00001 V 540 H 1.4305e-5 Z"
         inkscape:connector-curvature="0" /></clipPath><clipPath
       id="clipPath322"
       clipPathUnits="userSpaceOnUse"><path
         style="clip-rule:evenodd"
         id="path320"
         d="M 1.4305e-5,0 H 960.00001 V 540 H 1.4305e-5 Z"
         inkscape:connector-curvature="0" /></clipPath><clipPath
       clipPathUnits="userSpaceOnUse"
       id="clipPath4087"><rect
         id="rect4089"
         width="655.21686"
         height="410.86624"
         x="120.58032"
         y="-500.823"
         style="stroke-width:0.75"
         transform="scale(1,-1)" /></clipPath></defs><g
     transform="matrix(1.3333333,0,0,-1.3333333,-160.77376,667.76398)"
     id="g10"
     clip-path="url(#clipPath4087)"><g
       id="g12"><g
         clip-path="url(#clipPath18)"
         id="g14"><path
           id="path20"
           style="fill:#ffffff;fill-opacity:1;fill-rule:evenodd;stroke:none"
           d="M 0,6.1035e-5 H 960 V 540.00006 H 0 Z"
           inkscape:connector-curvature="0" /></g></g><path
       id="path22"
       style="fill:#deebf7;fill-opacity:1;fill-rule:evenodd;stroke:none"
       d="m 146.04,426.48 c 0,11.86 9.62,21.48 21.48,21.48 11.86,0 21.48,-9.62 21.48,-21.48 0,-11.86 -9.62,-21.48 -21.48,-21.48 -11.86,0 -21.48,9.62 -21.48,21.48 z"
       inkscape:connector-curvature="0" /><path
       id="path24"
       style="fill:none;stroke:#000000;stroke-width:0.95999998;stroke-linecap:butt;stroke-linejoin:miter;stroke-miterlimit:10;stroke-dasharray:none;stroke-opacity:1"
       d="m 146.04,426.48 c 0,11.86 9.62,21.48 21.48,21.48 11.86,0 21.48,-9.62 21.48,-21.48 0,-11.86 -9.62,-21.48 -21.48,-21.48 -11.86,0 -21.48,9.62 -21.48,21.48 z"
       inkscape:connector-curvature="0" /><g
       id="g26"><g
         clip-path="url(#clipPath32)"
         id="g28"><text
   id="text36"
   style="font-variant:normal;font-weight:bold;font-size:39.95999908px;font-family:Calibri;-inkscape-font-specification:Calibri-Bold;writing-mode:lr-tb;fill:#000000;fill-opacity:1;fill-rule:nonzero;stroke:none"
   transform="matrix(1,0,0,-1,157.61,412.99)"><tspan
     id="tspan34"
     y="0"
     x="0">+</tspan></text>

</g></g><path
       id="path38"
       style="fill:#deebf7;fill-opacity:1;fill-rule:evenodd;stroke:none"
       d="m 175.8,376.8 c 0,11.86 9.62,21.48 21.48,21.48 11.86,0 21.48,-9.62 21.48,-21.48 0,-11.86 -9.62,-21.48 -21.48,-21.48 -11.86,0 -21.48,9.62 -21.48,21.48 z"
       inkscape:connector-curvature="0" /><path
       id="path40"
       style="fill:none;stroke:#000000;stroke-width:0.95999998;stroke-linecap:butt;stroke-linejoin:miter;stroke-miterlimit:10;stroke-dasharray:none;stroke-opacity:1"
       d="m 175.8,376.8 c 0,11.86 9.62,21.48 21.48,21.48 11.86,0 21.48,-9.62 21.48,-21.48 0,-11.86 -9.62,-21.48 -21.48,-21.48 -11.86,0 -21.48,9.62 -21.48,21.48 z"
       inkscape:connector-curvature="0" /><g
       id="g42"><g
         clip-path="url(#clipPath48)"
         id="g44"><text
   id="text52"
   style="font-variant:normal;font-weight:bold;font-size:39.95999908px;font-family:Calibri;-inkscape-font-specification:Calibri-Bold;writing-mode:lr-tb;fill:#000000;fill-opacity:1;fill-rule:nonzero;stroke:none"
   transform="matrix(1,0,0,-1,187.32,363.29)"><tspan
     id="tspan50"
     y="0"
     x="0">+</tspan></text>

</g></g><path
       id="path54"
       style="fill:#deebf7;fill-opacity:1;fill-rule:evenodd;stroke:none"
       d="m 205.56,327.12 c 0,11.86 9.59,21.48 21.42,21.48 11.83,0 21.42,-9.62 21.42,-21.48 0,-11.86 -9.59,-21.48 -21.42,-21.48 -11.83,0 -21.42,9.62 -21.42,21.48 z"
       inkscape:connector-curvature="0" /><path
       id="path56"
       style="fill:none;stroke:#000000;stroke-width:0.95999998;stroke-linecap:butt;stroke-linejoin:miter;stroke-miterlimit:10;stroke-dasharray:none;stroke-opacity:1"
       d="m 205.56,327.12 c 0,11.86 9.59,21.48 21.42,21.48 11.83,0 21.42,-9.62 21.42,-21.48 0,-11.86 -9.59,-21.48 -21.42,-21.48 -11.83,0 -21.42,9.62 -21.42,21.48 z"
       inkscape:connector-curvature="0" /><g
       id="g58"><g
         clip-path="url(#clipPath64)"
         id="g60"><text
   id="text68"
   style="font-variant:normal;font-weight:bold;font-size:39.98400116px;font-family:Calibri;-inkscape-font-specification:Calibri-Bold;writing-mode:lr-tb;fill:#000000;fill-opacity:1;fill-rule:nonzero;stroke:none"
   transform="matrix(1,0,0,-1,217.06,313.61)"><tspan
     id="tspan66"
     y="0"
     x="0">+</tspan></text>

</g></g><path
       id="path70"
       style="fill:#deebf7;fill-opacity:1;fill-rule:evenodd;stroke:none"
       d="m 235.2,277.44 c 0,11.86 9.62,21.48 21.48,21.48 11.86,0 21.48,-9.62 21.48,-21.48 0,-11.86 -9.62,-21.48 -21.48,-21.48 -11.86,0 -21.48,9.62 -21.48,21.48 z"
       inkscape:connector-curvature="0" /><path
       id="path72"
       style="fill:none;stroke:#000000;stroke-width:0.95999998;stroke-linecap:butt;stroke-linejoin:miter;stroke-miterlimit:10;stroke-dasharray:none;stroke-opacity:1"
       d="m 235.2,277.44 c 0,11.86 9.62,21.48 21.48,21.48 11.86,0 21.48,-9.62 21.48,-21.48 0,-11.86 -9.62,-21.48 -21.48,-21.48 -11.86,0 -21.48,9.62 -21.48,21.48 z"
       inkscape:connector-curvature="0" /><g
       id="g74"><g
         clip-path="url(#clipPath80)"
         id="g76"><text
   id="text84"
   style="font-variant:normal;font-weight:bold;font-size:39.95999908px;font-family:Calibri;-inkscape-font-specification:Calibri-Bold;writing-mode:lr-tb;fill:#000000;fill-opacity:1;fill-rule:nonzero;stroke:none"
   transform="matrix(1,0,0,-1,246.77,263.9)"><tspan
     id="tspan82"
     y="0"
     x="0">+</tspan></text>

</g></g><path
       id="path86"
       style="fill:#deebf7;fill-opacity:1;fill-rule:evenodd;stroke:none"
       d="m 264.96,227.76 c 0,11.86 9.62,21.48 21.48,21.48 11.86,0 21.48,-9.62 21.48,-21.48 0,-11.86 -9.62,-21.48 -21.48,-21.48 -11.86,0 -21.48,9.62 -21.48,21.48 z"
       inkscape:connector-curvature="0" /><path
       id="path88"
       style="fill:none;stroke:#000000;stroke-width:0.95999998;stroke-linecap:butt;stroke-linejoin:miter;stroke-miterlimit:10;stroke-dasharray:none;stroke-opacity:1"
       d="m 264.96,227.76 c 0,11.86 9.62,21.48 21.48,21.48 11.86,0 21.48,-9.62 21.48,-21.48 0,-11.86 -9.62,-21.48 -21.48,-21.48 -11.86,0 -21.48,9.62 -21.48,21.48 z"
       inkscape:connector-curvature="0" /><g
       id="g90"><g
         clip-path="url(#clipPath96)"
         id="g92"><text
   id="text100"
   style="font-variant:normal;font-weight:bold;font-size:39.95999908px;font-family:Calibri;-inkscape-font-specification:Calibri-Bold;writing-mode:lr-tb;fill:#000000;fill-opacity:1;fill-rule:nonzero;stroke:none"
   transform="matrix(1,0,0,-1,276.5,214.2)"><tspan
     id="tspan98"
     y="0"
     x="0">+</tspan></text>

</g></g><path
       id="path102"
       style="fill:#deebf7;fill-opacity:1;fill-rule:evenodd;stroke:none"
       d="m 294.72,178.08 c 0,11.86 9.59,21.48 21.42,21.48 11.83,0 21.42,-9.62 21.42,-21.48 0,-11.86 -9.59,-21.48 -21.42,-21.48 -11.83,0 -21.42,9.62 -21.42,21.48 z"
       inkscape:connector-curvature="0" /><path
       id="path104"
       style="fill:none;stroke:#000000;stroke-width:0.95999998;stroke-linecap:butt;stroke-linejoin:miter;stroke-miterlimit:10;stroke-dasharray:none;stroke-opacity:1"
       d="m 294.72,178.08 c 0,11.86 9.59,21.48 21.42,21.48 11.83,0 21.42,-9.62 21.42,-21.48 0,-11.86 -9.59,-21.48 -21.42,-21.48 -11.83,0 -21.42,9.62 -21.42,21.48 z"
       inkscape:connector-curvature="0" /><g
       id="g106"><g
         clip-path="url(#clipPath112)"
         id="g108"><text
   id="text116"
   style="font-variant:normal;font-weight:bold;font-size:39.98400116px;font-family:Calibri;-inkscape-font-specification:Calibri-Bold;writing-mode:lr-tb;fill:#000000;fill-opacity:1;fill-rule:nonzero;stroke:none"
   transform="matrix(1,0,0,-1,306.22,164.52)"><tspan
     id="tspan114"
     y="0"
     x="0">+</tspan></text>

</g></g><path
       id="path118"
       style="fill:#deebf7;fill-opacity:1;fill-rule:evenodd;stroke:none"
       d="m 324.36,128.4 c 0,11.86 9.62,21.48 21.48,21.48 11.86,0 21.48,-9.62 21.48,-21.48 0,-11.86 -9.62,-21.48 -21.48,-21.48 -11.86,0 -21.48,9.62 -21.48,21.48 z"
       inkscape:connector-curvature="0" /><path
       id="path120"
       style="fill:none;stroke:#000000;stroke-width:0.95999998;stroke-linecap:butt;stroke-linejoin:miter;stroke-miterlimit:10;stroke-dasharray:none;stroke-opacity:1"
       d="m 324.36,128.4 c 0,11.86 9.62,21.48 21.48,21.48 11.86,0 21.48,-9.62 21.48,-21.48 0,-11.86 -9.62,-21.48 -21.48,-21.48 -11.86,0 -21.48,9.62 -21.48,21.48 z"
       inkscape:connector-curvature="0" /><g
       id="g122"><g
         clip-path="url(#clipPath128)"
         id="g124"><text
   id="text132"
   style="font-variant:normal;font-weight:bold;font-size:39.95999908px;font-family:Calibri;-inkscape-font-specification:Calibri-Bold;writing-mode:lr-tb;fill:#000000;fill-opacity:1;fill-rule:nonzero;stroke:none"
   transform="matrix(1,0,0,-1,335.95,114.82)"><tspan
     id="tspan130"
     y="0"
     x="0">+</tspan></text>

</g></g><path
       id="path134"
       style="fill:#000000;fill-opacity:1;fill-rule:nonzero;stroke:none"
       d="m 168.58,406.06 8.96,-8.04 -2,-2.23 -8.96,8.03 z m 9.85,-4.81 3.7,-9.36 -9.71,2.66 z"
       inkscape:connector-curvature="0" /><path
       id="path136"
       style="fill:#000000;fill-opacity:1;fill-rule:nonzero;stroke:none"
       d="m 187.65,466.04 -4.38,-16.79 2.9,-0.76 4.39,16.79 z m -6.91,-14.58 2.08,-9.85 6.63,7.57 z"
       inkscape:connector-curvature="0" /><path
       id="path138"
       style="fill:#000000;fill-opacity:1;fill-rule:nonzero;stroke:none"
       d="m 144.6,463.37 6.17,-14.3 -2.76,-1.19 -6.17,14.31 z m 8.33,-11.73 -0.57,-10.05 -7.69,6.48 z"
       inkscape:connector-curvature="0" /><path
       id="path140"
       style="fill:#000000;fill-opacity:1;fill-rule:nonzero;stroke:none"
       d="m 198.34,356.38 8.96,-8.04 -2,-2.23 -8.96,8.03 z m 9.85,-4.81 3.7,-9.36 -9.71,2.66 z"
       inkscape:connector-curvature="0" /><path
       id="path142"
       style="fill:#000000;fill-opacity:1;fill-rule:nonzero;stroke:none"
       d="m 228.1,306.7 8.96,-8.04 -2,-2.23 -8.96,8.03 z m 9.85,-4.81 3.7,-9.36 -9.71,2.66 z"
       inkscape:connector-curvature="0" /><path
       id="path144"
       style="fill:#000000;fill-opacity:1;fill-rule:nonzero;stroke:none"
       d="m 257.74,257.02 8.96,-8.04 -2,-2.23 -8.96,8.03 z m 9.85,-4.81 3.7,-9.36 -9.71,2.66 z"
       inkscape:connector-curvature="0" /><path
       id="path146"
       style="fill:#000000;fill-opacity:1;fill-rule:nonzero;stroke:none"
       d="m 287.5,207.34 8.96,-8.04 -2,-2.23 -8.96,8.03 z m 9.85,-4.81 3.7,-9.36 -9.71,2.66 z"
       inkscape:connector-curvature="0" /><path
       id="path148"
       style="fill:#000000;fill-opacity:1;fill-rule:nonzero;stroke:none"
       d="m 317.26,157.66 8.96,-8.04 -2,-2.23 -8.96,8.03 z m 9.85,-4.81 3.7,-9.36 -9.71,2.66 z"
       inkscape:connector-curvature="0" /><path
       id="path150"
       style="fill:#000000;fill-opacity:1;fill-rule:nonzero;stroke:none"
       d="m 217.25,462.91 -5.62,-63.4 2.99,-0.27 5.62,63.41 z m -8.48,-61.64 3.69,-9.36 5.28,8.56 z"
       inkscape:connector-curvature="0" /><path
       id="path152"
       style="fill:#000000;fill-opacity:1;fill-rule:nonzero;stroke:none"
       d="m 248.32,462.87 -7.13,-113.07 3,-0.19 7.12,113.08 z m -10.03,-111.38 3.93,-9.27 5.06,8.7 z"
       inkscape:connector-curvature="0" /><path
       id="path154"
       style="fill:#000000;fill-opacity:1;fill-rule:nonzero;stroke:none"
       d="m 286.01,462.92 -14.84,-162.77 2.99,-0.28 14.84,162.77 z m -17.69,-161.01 3.66,-9.37 5.3,8.55 z"
       inkscape:connector-curvature="0" /><path
       id="path156"
       style="fill:#000000;fill-opacity:1;fill-rule:nonzero;stroke:none"
       d="m 321.43,462.92 -20.58,-212.45 2.99,-0.29 20.58,212.46 z m -23.42,-210.67 3.61,-9.39 5.35,8.52 z"
       inkscape:connector-curvature="0" /><path
       id="path158"
       style="fill:#000000;fill-opacity:1;fill-rule:nonzero;stroke:none"
       d="m 361,462.95 -30.25,-262.15 2.98,-0.35 30.25,262.16 z m -33.06,-260.32 3.44,-9.45 5.5,8.42 z"
       inkscape:connector-curvature="0" /><path
       id="path160"
       style="fill:#000000;fill-opacity:1;fill-rule:nonzero;stroke:none"
       d="m 396.08,462.95 -35.58,-311.84 2.98,-0.34 35.58,311.84 z m -38.39,-310.01 3.45,-9.45 5.49,8.43 z"
       inkscape:connector-curvature="0" /><g
       id="g162"><g
         clip-path="url(#clipPath168)"
         id="g164"><text
   id="text172"
   style="font-variant:normal;font-weight:normal;font-size:18.02400017px;font-family:Calibri;-inkscape-font-specification:Calibri;writing-mode:lr-tb;fill:#000000;fill-opacity:1;fill-rule:nonzero;stroke:none"
   transform="matrix(1,0,0,-1,136.68,478.06)"><tspan
     id="tspan170"
     y="0"
     x="0 8.6334963 45.672817 55.135414 75.736847 83.361 104.0165 113.4791 146.42697 155.40292 180.11383 185.61115 218.57704 227.06635 255.85068">a b c d e f g h</tspan></text>

</g></g><path
       id="path174"
       style="fill:#e2f0d9;fill-opacity:1;fill-rule:evenodd;stroke:none"
       d="m 493.32,433.32 c 0,11.86 9.62,21.48 21.48,21.48 11.86,0 21.48,-9.62 21.48,-21.48 0,-11.86 -9.62,-21.48 -21.48,-21.48 -11.86,0 -21.48,9.62 -21.48,21.48 z"
       inkscape:connector-curvature="0" /><path
       id="path176"
       style="fill:none;stroke:#000000;stroke-width:0.95999998;stroke-linecap:butt;stroke-linejoin:miter;stroke-miterlimit:10;stroke-dasharray:none;stroke-opacity:1"
       d="m 493.32,433.32 c 0,11.86 9.62,21.48 21.48,21.48 11.86,0 21.48,-9.62 21.48,-21.48 0,-11.86 -9.62,-21.48 -21.48,-21.48 -11.86,0 -21.48,9.62 -21.48,21.48 z"
       inkscape:connector-curvature="0" /><g
       id="g178"><g
         clip-path="url(#clipPath184)"
         id="g180"><text
   id="text188"
   style="font-variant:normal;font-weight:bold;font-size:39.95999908px;font-family:Calibri;-inkscape-font-specification:Calibri-Bold;writing-mode:lr-tb;fill:#000000;fill-opacity:1;fill-rule:nonzero;stroke:none"
   transform="matrix(1,0,0,-1,504.89,419.86)"><tspan
     id="tspan186"
     y="0"
     x="0">+</tspan></text>

</g></g><path
       id="path190"
       style="fill:#e2f0d9;fill-opacity:1;fill-rule:evenodd;stroke:none"
       d="m 554.04,433.32 c 0,11.86 9.62,21.48 21.48,21.48 11.86,0 21.48,-9.62 21.48,-21.48 0,-11.86 -9.62,-21.48 -21.48,-21.48 -11.86,0 -21.48,9.62 -21.48,21.48 z"
       inkscape:connector-curvature="0" /><path
       id="path192"
       style="fill:none;stroke:#000000;stroke-width:0.95999998;stroke-linecap:butt;stroke-linejoin:miter;stroke-miterlimit:10;stroke-dasharray:none;stroke-opacity:1"
       d="m 554.04,433.32 c 0,11.86 9.62,21.48 21.48,21.48 11.86,0 21.48,-9.62 21.48,-21.48 0,-11.86 -9.62,-21.48 -21.48,-21.48 -11.86,0 -21.48,9.62 -21.48,21.48 z"
       inkscape:connector-curvature="0" /><g
       id="g194"><g
         clip-path="url(#clipPath200)"
         id="g196"><text
   id="text204"
   style="font-variant:normal;font-weight:bold;font-size:39.95999908px;font-family:Calibri;-inkscape-font-specification:Calibri-Bold;writing-mode:lr-tb;fill:#000000;fill-opacity:1;fill-rule:nonzero;stroke:none"
   transform="matrix(1,0,0,-1,565.66,419.86)"><tspan
     id="tspan202"
     y="0"
     x="0">+</tspan></text>

</g></g><path
       id="path206"
       style="fill:#e2f0d9;fill-opacity:1;fill-rule:evenodd;stroke:none"
       d="m 614.88,433.32 c 0,11.86 9.59,21.48 21.42,21.48 11.83,0 21.42,-9.62 21.42,-21.48 0,-11.86 -9.59,-21.48 -21.42,-21.48 -11.83,0 -21.42,9.62 -21.42,21.48 z"
       inkscape:connector-curvature="0" /><path
       id="path208"
       style="fill:none;stroke:#000000;stroke-width:0.95999998;stroke-linecap:butt;stroke-linejoin:miter;stroke-miterlimit:10;stroke-dasharray:none;stroke-opacity:1"
       d="m 614.88,433.32 c 0,11.86 9.59,21.48 21.42,21.48 11.83,0 21.42,-9.62 21.42,-21.48 0,-11.86 -9.59,-21.48 -21.42,-21.48 -11.83,0 -21.42,9.62 -21.42,21.48 z"
       inkscape:connector-curvature="0" /><g
       id="g210"><g
         clip-path="url(#clipPath216)"
         id="g212"><text
   id="text220"
   style="font-variant:normal;font-weight:bold;font-size:39.95999908px;font-family:Calibri;-inkscape-font-specification:Calibri-Bold;writing-mode:lr-tb;fill:#000000;fill-opacity:1;fill-rule:nonzero;stroke:none"
   transform="matrix(1,0,0,-1,626.4,419.86)"><tspan
     id="tspan218"
     y="0"
     x="0">+</tspan></text>

</g></g><path
       id="path222"
       style="fill:#e2f0d9;fill-opacity:1;fill-rule:evenodd;stroke:none"
       d="m 675.6,433.32 c 0,11.86 9.62,21.48 21.48,21.48 11.86,0 21.48,-9.62 21.48,-21.48 0,-11.86 -9.62,-21.48 -21.48,-21.48 -11.86,0 -21.48,9.62 -21.48,21.48 z"
       inkscape:connector-curvature="0" /><path
       id="path224"
       style="fill:none;stroke:#000000;stroke-width:0.95999998;stroke-linecap:butt;stroke-linejoin:miter;stroke-miterlimit:10;stroke-dasharray:none;stroke-opacity:1"
       d="m 675.6,433.32 c 0,11.86 9.62,21.48 21.48,21.48 11.86,0 21.48,-9.62 21.48,-21.48 0,-11.86 -9.62,-21.48 -21.48,-21.48 -11.86,0 -21.48,9.62 -21.48,21.48 z"
       inkscape:connector-curvature="0" /><g
       id="g226"><g
         clip-path="url(#clipPath232)"
         id="g228"><text
   id="text236"
   style="font-variant:normal;font-weight:bold;font-size:39.95999908px;font-family:Calibri;-inkscape-font-specification:Calibri-Bold;writing-mode:lr-tb;fill:#000000;fill-opacity:1;fill-rule:nonzero;stroke:none"
   transform="matrix(1,0,0,-1,687.17,419.86)"><tspan
     id="tspan234"
     y="0"
     x="0">+</tspan></text>

</g></g><path
       id="path238"
       style="fill:#e2f0d9;fill-opacity:1;fill-rule:evenodd;stroke:none"
       d="m 524.88,370.32 c 0,11.86 9.59,21.48 21.42,21.48 11.83,0 21.42,-9.62 21.42,-21.48 0,-11.86 -9.59,-21.48 -21.42,-21.48 -11.83,0 -21.42,9.62 -21.42,21.48 z"
       inkscape:connector-curvature="0" /><path
       id="path240"
       style="fill:none;stroke:#000000;stroke-width:0.95999998;stroke-linecap:butt;stroke-linejoin:miter;stroke-miterlimit:10;stroke-dasharray:none;stroke-opacity:1"
       d="m 524.88,370.32 c 0,11.86 9.59,21.48 21.42,21.48 11.83,0 21.42,-9.62 21.42,-21.48 0,-11.86 -9.59,-21.48 -21.42,-21.48 -11.83,0 -21.42,9.62 -21.42,21.48 z"
       inkscape:connector-curvature="0" /><g
       id="g242"><g
         clip-path="url(#clipPath248)"
         id="g244"><text
   id="text252"
   style="font-variant:normal;font-weight:bold;font-size:39.95999908px;font-family:Calibri;-inkscape-font-specification:Calibri-Bold;writing-mode:lr-tb;fill:#000000;fill-opacity:1;fill-rule:nonzero;stroke:none"
   transform="matrix(1,0,0,-1,536.4,356.83)"><tspan
     id="tspan250"
     y="0"
     x="0">+</tspan></text>

</g></g><path
       id="path254"
       style="fill:#e2f0d9;fill-opacity:1;fill-rule:evenodd;stroke:none"
       d="m 647.04,370.32 c 0,11.86 9.62,21.48 21.48,21.48 11.86,0 21.48,-9.62 21.48,-21.48 0,-11.86 -9.62,-21.48 -21.48,-21.48 -11.86,0 -21.48,9.62 -21.48,21.48 z"
       inkscape:connector-curvature="0" /><path
       id="path256"
       style="fill:none;stroke:#000000;stroke-width:0.95999998;stroke-linecap:butt;stroke-linejoin:miter;stroke-miterlimit:10;stroke-dasharray:none;stroke-opacity:1"
       d="m 647.04,370.32 c 0,11.86 9.62,21.48 21.48,21.48 11.86,0 21.48,-9.62 21.48,-21.48 0,-11.86 -9.62,-21.48 -21.48,-21.48 -11.86,0 -21.48,9.62 -21.48,21.48 z"
       inkscape:connector-curvature="0" /><g
       id="g258"><g
         clip-path="url(#clipPath264)"
         id="g260"><text
   id="text268"
   style="font-variant:normal;font-weight:bold;font-size:39.95999908px;font-family:Calibri;-inkscape-font-specification:Calibri-Bold;writing-mode:lr-tb;fill:#000000;fill-opacity:1;fill-rule:nonzero;stroke:none"
   transform="matrix(1,0,0,-1,658.66,356.83)"><tspan
     id="tspan266"
     y="0"
     x="0">+</tspan></text>

</g></g><path
       id="path270"
       style="fill:#e2f0d9;fill-opacity:1;fill-rule:evenodd;stroke:none"
       d="m 590.64,316.98 c 0,11.83 9.62,21.42 21.48,21.42 11.86,0 21.48,-9.59 21.48,-21.42 0,-11.83 -9.62,-21.42 -21.48,-21.42 -11.86,0 -21.48,9.59 -21.48,21.42 z"
       inkscape:connector-curvature="0" /><path
       id="path272"
       style="fill:none;stroke:#000000;stroke-width:0.95999998;stroke-linecap:butt;stroke-linejoin:miter;stroke-miterlimit:10;stroke-dasharray:none;stroke-opacity:1"
       d="m 590.64,316.98 c 0,11.83 9.62,21.42 21.48,21.42 11.86,0 21.48,-9.59 21.48,-21.42 0,-11.83 -9.62,-21.42 -21.48,-21.42 -11.86,0 -21.48,9.59 -21.48,21.42 z"
       inkscape:connector-curvature="0" /><g
       id="g274"><g
         clip-path="url(#clipPath280)"
         id="g276"><text
   id="text284"
   style="font-variant:normal;font-weight:bold;font-size:39.95999908px;font-family:Calibri;-inkscape-font-specification:Calibri-Bold;writing-mode:lr-tb;fill:#000000;fill-opacity:1;fill-rule:nonzero;stroke:none"
   transform="matrix(1,0,0,-1,602.23,303.46)"><tspan
     id="tspan282"
     y="0"
     x="0">+</tspan></text>

</g></g><path
       id="path286"
       style="fill:#000000;fill-opacity:1;fill-rule:nonzero;stroke:none"
       d="m 534.82,470.87 -4.22,-14.79 2.88,-0.83 4.23,14.8 z m -6.69,-12.53 1.85,-9.89 6.8,7.42 z"
       inkscape:connector-curvature="0" /><path
       id="path288"
       style="fill:#000000;fill-opacity:1;fill-rule:nonzero;stroke:none"
       d="m 491.85,468.23 5.91,-12.38 -2.7,-1.3 -5.91,12.38 z m 7.98,-9.74 -0.19,-10.06 -7.94,6.18 z"
       inkscape:connector-curvature="0" /><path
       id="path290"
       style="fill:#000000;fill-opacity:1;fill-rule:nonzero;stroke:none"
       d="m 555.53,468.05 3.94,-12.02 -2.85,-0.94 -3.95,12.02 z m 6.32,-9.66 -1.46,-9.96 -7.09,7.15 z"
       inkscape:connector-curvature="0" /><path
       id="path292"
       style="fill:#000000;fill-opacity:1;fill-rule:nonzero;stroke:none"
       d="m 595.68,468.05 -3.95,-12.02 2.85,-0.94 3.95,12.02 z m -6.33,-9.66 1.47,-9.96 7.08,7.15 z"
       inkscape:connector-curvature="0" /><path
       id="path294"
       style="fill:#000000;fill-opacity:1;fill-rule:nonzero;stroke:none"
       d="m 616.36,468.05 3.95,-12.02 -2.85,-0.94 -3.95,12.02 z m 6.33,-9.66 -1.46,-9.96 -7.09,7.15 z"
       inkscape:connector-curvature="0" /><path
       id="path296"
       style="fill:#000000;fill-opacity:1;fill-rule:nonzero;stroke:none"
       d="m 656.4,468.05 -3.95,-12.02 2.85,-0.94 3.95,12.02 z m -6.33,-9.66 1.47,-9.96 7.08,7.15 z"
       inkscape:connector-curvature="0" /><path
       id="path298"
       style="fill:#000000;fill-opacity:1;fill-rule:nonzero;stroke:none"
       d="m 677.09,468.05 3.94,-12.02 -2.85,-0.94 -3.95,12.02 z m 6.32,-9.66 -1.46,-9.96 -7.09,7.15 z"
       inkscape:connector-curvature="0" /><path
       id="path300"
       style="fill:#000000;fill-opacity:1;fill-rule:nonzero;stroke:none"
       d="m 717.12,468.05 -3.95,-12.02 2.85,-0.94 3.95,12.02 z m -6.33,-9.66 1.47,-9.96 7.08,7.15 z"
       inkscape:connector-curvature="0" /><path
       id="path302"
       style="fill:#000000;fill-opacity:1;fill-rule:nonzero;stroke:none"
       d="m 516.14,412.57 12.37,-19.99 -2.55,-1.58 -12.38,19.99 z m 14.13,-17.13 0.91,-10.02 -8.56,5.28 z"
       inkscape:connector-curvature="0" /><path
       id="path304"
       style="fill:#000000;fill-opacity:1;fill-rule:nonzero;stroke:none"
       d="m 574.29,412.49 -10.54,-19.75 2.65,-1.41 10.54,19.74 z m -12.48,-17.01 -0.27,-10.06 8.21,5.82 z"
       inkscape:connector-curvature="0" /><path
       id="path306"
       style="fill:#000000;fill-opacity:1;fill-rule:nonzero;stroke:none"
       d="m 637.56,412.6 13,-20.07 -2.52,-1.63 -13,20.06 z m 14.7,-17.18 1.11,-10 -8.67,5.11 z"
       inkscape:connector-curvature="0" /><path
       id="path308"
       style="fill:#000000;fill-opacity:1;fill-rule:nonzero;stroke:none"
       d="m 695.81,412.46 -9.95,-19.67 2.68,-1.36 9.94,19.67 z m -11.95,-16.98 -0.04,-10.06 8.08,6 z"
       inkscape:connector-curvature="0" /><path
       id="path310"
       style="fill:#000000;fill-opacity:1;fill-rule:nonzero;stroke:none"
       d="m 546.77,350.2 43.53,-14.37 -0.94,-2.85 -43.53,14.38 z m 43.05,-11.05 7.13,-7.1 -9.96,-1.45 z"
       inkscape:connector-curvature="0" /><path
       id="path312"
       style="fill:#000000;fill-opacity:1;fill-rule:nonzero;stroke:none"
       d="m 667.98,350.17 -34.29,-13.91 1.12,-2.78 34.3,13.91 z m -34.03,-10.57 -6.65,-7.55 10.03,-0.79 z"
       inkscape:connector-curvature="0" /><path
       id="path314"
       style="fill:#000000;fill-opacity:1;fill-rule:nonzero;stroke:none"
       d="m 610.68,295.5 v -12.08 h 3 v 12.08 z m -3,-10.58 4.5,-9 4.5,9 z"
       inkscape:connector-curvature="0" /><g
       id="g316"><g
         clip-path="url(#clipPath322)"
         id="g318"><text
   id="text326"
   style="font-variant:normal;font-weight:normal;font-size:18.02400017px;font-family:Calibri;-inkscape-font-specification:Calibri;writing-mode:lr-tb;fill:#000000;fill-opacity:1;fill-rule:nonzero;stroke:none"
   transform="matrix(1,0,0,-1,482.18,478.06)"><tspan
     id="tspan324"
     y="0"
     x="0 8.6334963 49.854385 59.316982 67.589996 75.142059 108.07191 117.53451 129.88095 138.8569 171.82278 177.32011 189.68457 198.17387 231.15781">a b c d e f g h</tspan></text>

</g></g><path
       id="path328"
       style="fill:#7f7f7f;fill-opacity:1;fill-rule:evenodd;stroke:none"
       d="m 416.52,335.52 h 50.16 v 13.32 l 26.64,-26.64 -26.64,-26.64 v 13.32 h -50.16 z"
       inkscape:connector-curvature="0" /><path
       id="path330"
       style="fill:none;stroke:#000000;stroke-width:0.95999998;stroke-linecap:butt;stroke-linejoin:miter;stroke-miterlimit:10;stroke-dasharray:none;stroke-opacity:1"
       d="m 416.52,335.52 h 50.16 v 13.32 l 26.64,-26.64 -26.64,-26.64 v 13.32 h -50.16 z"
       inkscape:connector-curvature="0" /></g></svg>