<?xml version="1.0" encoding="UTF-8" standalone="no"?>
<!DOCTYPE svg PUBLIC "-//W3C//DTD SVG 1.1//EN" "http://www.w3.org/Graphics/SVG/1.1/DTD/svg11.dtd">
<svg xmlns:dc="http://purl.org/dc/elements/1.1/" xmlns:xl="http://www.w3.org/1999/xlink" version="1.1" xmlns="http://www.w3.org/2000/svg" viewBox="-63 106 281 258" width="281" height="258">
  <defs/>
  <metadata> Produced by OmniGraffle 7.17.2\n2020-08-24 18:12:46 +0000</metadata>
  <g id="Canvas_1" fill-opacity="1" stroke-dasharray="none" stroke-opacity="1" fill="none" stroke="none">
    <title>Canvas 1</title>
    <g id="Canvas_1_Application">
      <title>Application</title>
      <g id="Graphic_12">
        <path d="M -25.938414 167.748 L 180 167.748 C 185.52285 167.748 190 172.22515 190 177.748 L 190 203.496 C 190 209.01885 185.52285 213.496 180 213.496 L -25.938414 213.496 C -31.46126 213.496 -35.938414 209.01885 -35.938414 203.496 L -35.938414 177.748 C -35.938414 172.22515 -31.46126 167.748 -25.938414 167.748 Z" stroke="#495057" stroke-linecap="round" stroke-linejoin="round" stroke-width="25"/>
      </g>
      <g id="Graphic_14">
        <path d="M -37.969207 122 L 192.0308 122 C 197.55364 122 202.0308 126.47715 202.0308 132 L 202.0308 157.748 C 202.0308 163.27085 197.55364 167.748 192.0308 167.748 L -37.969207 167.748 C -43.492054 167.748 -47.969207 163.27085 -47.969207 157.748 L -47.969207 132 C -47.969207 126.47715 -43.492054 122 -37.969207 122 Z" fill="#495057"/>
        <path d="M -37.969207 122 L 192.0308 122 C 197.55364 122 202.0308 126.47715 202.0308 132 L 202.0308 157.748 C 202.0308 163.27085 197.55364 167.748 192.0308 167.748 L -37.969207 167.748 C -43.492054 167.748 -47.969207 163.27085 -47.969207 157.748 L -47.969207 132 C -47.969207 126.47715 -43.492054 122 -37.969207 122 Z" stroke="#495057" stroke-linecap="round" stroke-linejoin="round" stroke-width="30"/>
      </g>
      <g id="Graphic_15">
        <path d="M -25.938414 213.496 L 180 213.496 C 185.52285 213.496 190 217.97315 190 223.496 L 190 249.244 C 190 254.76685 185.52285 259.244 180 259.244 L -25.938414 259.244 C -31.46126 259.244 -35.938414 254.76685 -35.938414 249.244 L -35.938414 223.496 C -35.938414 217.97315 -31.46126 213.496 -25.938414 213.496 Z" stroke="#495057" stroke-linecap="round" stroke-linejoin="round" stroke-width="25"/>
      </g>
      <g id="Graphic_16">
        <path d="M -26 259.244 L 179.93841 259.244 C 185.46126 259.244 189.93841 263.72115 189.93841 269.244 L 189.93841 294.992 C 189.93841 300.51485 185.46126 304.992 179.93841 304.992 L -26 304.992 C -31.522847 304.992 -36 300.51485 -36 294.992 L -36 269.244 C -36 263.72115 -31.522847 259.244 -26 259.244 Z" stroke="#495057" stroke-linecap="round" stroke-linejoin="round" stroke-width="25"/>
      </g>
      <g id="Graphic_17">
        <path d="M -26 304.992 L 179.93841 304.992 C 185.46126 304.992 189.93841 309.46915 189.93841 314.992 L 189.93841 340.74 C 189.93841 346.26285 185.46126 350.74 179.93841 350.74 L -26 350.74 C -31.522847 350.74 -36 346.26285 -36 340.74 L -36 314.992 C -36 309.46915 -31.522847 304.992 -26 304.992 Z" stroke="#495057" stroke-linecap="round" stroke-linejoin="round" stroke-width="25"/>
      </g>
    </g>
  </g>
</svg>
