<svg id="Layer_1" data-name="Layer 1" xmlns="http://www.w3.org/2000/svg" viewBox="0 0 87.05 55.09"><defs><style>.cls-1,.cls-2,.cls-3{fill:none;}.cls-1{stroke:#ec4094;}.cls-1,.cls-2,.cls-3,.cls-4{stroke-linecap:round;stroke-linejoin:round;stroke-width:2.1px;}.cls-2,.cls-4{stroke:#faa21f;}.cls-3{stroke:#ffde17;}.cls-4{fill:#faa220;}</style></defs><path class="cls-1" d="M34.9,55.85H19.84A16,16,0,0,1,3.71,38.29,17,17,0,0,1,15.2,24c.11-.64,2.87-14.92,15.72-19.72C41.47.38,54.14,4.58,61.14,14.88a14.77,14.77,0,0,1,14.64,3.6c5.59,5.55,4.07,13.13,4,13.63.87.26,6.3,2,8.19,7A11.14,11.14,0,0,1,88,46.39a13.47,13.47,0,0,1-12.86,9.36l-33.09,0a7.15,7.15,0,0,1-7.16-7.14c0-3.25,0-5.57,0-8.81" transform="translate(-2.59 -1.81)"/><path class="cls-2" d="M32.06,51.27c-2.55-.05-10.76-.09-13.31-.14a8.56,8.56,0,0,1-1.33-.19,12.33,12.33,0,0,1-9-9.41c-1-6,3.63-12.6,10.94-13.91A20.86,20.86,0,0,1,34,8.67c9.41-2.74,20,2,24.49,11.53A11.43,11.43,0,0,1,74.7,35.48a9.19,9.19,0,0,1,6.77,3c.19.22,2.48,3,2,6.07s-3.87,6.47-8.19,6.72c-10.69-.08-20.22,0-30.91-.13-2.47,0-4.47-2.65-4.47-5.12V39.94" transform="translate(-2.59 -1.81)"/><path class="cls-3" d="M31.32,46.66l-10.11,0a6.85,6.85,0,0,1-4.29-1.39,6.92,6.92,0,0,1-2.55-4.31,7.66,7.66,0,0,1,1.48-5.76c2.86-3.87,8.19-3.29,8.44-3.26C23,23.83,27.7,16.17,34.85,13.81s14.2,1.21,17.81,6a16.08,16.08,0,0,1,3,7.25,15.27,15.27,0,0,1,3.57-2.2A9.84,9.84,0,0,1,65,23.76a7.7,7.7,0,0,1,3.66,1.64c2.63,2.34,2.75,7.94-.31,13.44.82,0,8.33.57,9.48,3.9a2.19,2.19,0,0,1,.07,1.45c-.46,1.43-2.68,2.28-5.65,2.2L48,46.11a3.24,3.24,0,0,1-3.21-3.23V39.83" transform="translate(-2.59 -1.81)"/><path class="cls-2" d="M30.71,27a12,12,0,0,1,18,0" transform="translate(-2.59 -1.81)"/><path class="cls-2" d="M33.06,30.55a9,9,0,0,1,13.37-.06" transform="translate(-2.59 -1.81)"/><path class="cls-2" d="M44.2,34.23a5.69,5.69,0,0,0-4.09-2.17,5.94,5.94,0,0,0-4.84,2.18" transform="translate(-2.59 -1.81)"/><path class="cls-4" d="M41,37.86a1.24,1.24,0,0,1-1.57.83,1.19,1.19,0,0,1-.92-1.47,1.29,1.29,0,1,1,2.49.64Z" transform="translate(-2.59 -1.81)"/></svg>