<?xml version="1.0" encoding="UTF-8" standalone="no"?>
<!DOCTYPE svg PUBLIC "-//W3C//DTD SVG 1.1//EN" "http://www.w3.org/Graphics/SVG/1.1/DTD/svg11.dtd">
<svg xmlns:dc="http://purl.org/dc/elements/1.1/" xmlns:xl="http://www.w3.org/1999/xlink" version="1.1" xmlns="http://www.w3.org/2000/svg" viewBox="866 109 276 255" width="276" height="255">
  <defs/>
  <metadata> Produced by OmniGraffle 7.17.2\n2020-08-24 18:13:37 +0000</metadata>
  <g id="Canvas_1" fill-opacity="1" stroke-dasharray="none" stroke-opacity="1" fill="none" stroke="none">
    <title>Canvas 1</title>
    <g id="Canvas_1_Link">
      <title>Link</title>
      <g id="Graphic_33">
        <path d="M 901.1848 213.496 L 1107.1232 213.496 C 1112.646 213.496 1117.1232 217.97315 1117.1232 223.496 L 1117.1232 249.244 C 1117.1232 254.76685 1112.646 259.244 1107.1232 259.244 L 901.1848 259.244 C 895.6619 259.244 891.1848 254.76685 891.1848 249.244 L 891.1848 223.496 C 891.1848 217.97315 895.6619 213.496 901.1848 213.496 Z" stroke="#495057" stroke-linecap="round" stroke-linejoin="round" stroke-width="25"/>
      </g>
      <g id="Graphic_32">
        <path d="M 889.0924 259.2986 L 1119.0924 259.2986 C 1124.6152 259.2986 1129.0924 263.77577 1129.0924 269.2986 L 1129.0924 295.0466 C 1129.0924 300.56946 1124.6152 305.0466 1119.0924 305.0466 L 889.0924 305.0466 C 883.5695 305.0466 879.0924 300.56946 879.0924 295.0466 L 879.0924 269.2986 C 879.0924 263.77577 883.5695 259.2986 889.0924 259.2986 Z" fill="#495057"/>
        <path d="M 889.0924 259.2986 L 1119.0924 259.2986 C 1124.6152 259.2986 1129.0924 263.77577 1129.0924 269.2986 L 1129.0924 295.0466 C 1129.0924 300.56946 1124.6152 305.0466 1119.0924 305.0466 L 889.0924 305.0466 C 883.5695 305.0466 879.0924 300.56946 879.0924 295.0466 L 879.0924 269.2986 C 879.0924 263.77577 883.5695 259.2986 889.0924 259.2986 Z" stroke="#495057" stroke-linecap="round" stroke-linejoin="round" stroke-width="25"/>
      </g>
      <g id="Graphic_31">
        <path d="M 901.1232 167.748 L 1107.0616 167.748 C 1112.5844 167.748 1117.0616 172.22515 1117.0616 177.748 L 1117.0616 203.496 C 1117.0616 209.01885 1112.5844 213.496 1107.0616 213.496 L 901.1232 213.496 C 895.6003 213.496 891.1232 209.01885 891.1232 203.496 L 891.1232 177.748 C 891.1232 172.22515 895.6003 167.748 901.1232 167.748 Z" stroke="#495057" stroke-linecap="round" stroke-linejoin="round" stroke-width="25"/>
      </g>
      <g id="Graphic_30">
        <path d="M 901.1848 122 L 1107.1232 122 C 1112.646 122 1117.1232 126.47715 1117.1232 132 L 1117.1232 157.748 C 1117.1232 163.27085 1112.646 167.748 1107.1232 167.748 L 901.1848 167.748 C 895.6619 167.748 891.1848 163.27085 891.1848 157.748 L 891.1848 132 C 891.1848 126.47715 895.6619 122 901.1848 122 Z" stroke="#495057" stroke-linecap="round" stroke-linejoin="round" stroke-width="25"/>
      </g>
      <g id="Graphic_29">
        <path d="M 901.1232 304.9647 L 1107.0616 304.9647 C 1112.5844 304.9647 1117.0616 309.44185 1117.0616 314.9647 L 1117.0616 340.7127 C 1117.0616 346.23554 1112.5844 350.7127 1107.0616 350.7127 L 901.1232 350.7127 C 895.6003 350.7127 891.1232 346.23554 891.1232 340.7127 L 891.1232 314.9647 C 891.1232 309.44185 895.6003 304.9647 901.1232 304.9647 Z" stroke="#495057" stroke-linecap="round" stroke-linejoin="round" stroke-width="25"/>
      </g>
    </g>
  </g>
</svg>
