<?xml version="1.0" encoding="UTF-8" standalone="no"?>
<!DOCTYPE svg PUBLIC "-//W3C//DTD SVG 1.1//EN" "http://www.w3.org/Graphics/SVG/1.1/DTD/svg11.dtd">
<svg xmlns:dc="http://purl.org/dc/elements/1.1/" xmlns:xl="http://www.w3.org/1999/xlink" version="1.1" xmlns="http://www.w3.org/2000/svg" viewBox="557 109 276 255" width="276" height="255">
  <defs/>
  <metadata> Produced by OmniGraffle 7.17.2\n2020-08-24 18:13:22 +0000</metadata>
  <g id="Canvas_1" fill-opacity="1" stroke-dasharray="none" stroke-opacity="1" fill="none" stroke="none">
    <title>Canvas 1</title>
    <g id="Canvas_1_Network">
      <title>Network</title>
      <g id="Graphic_28">
        <path d="M 592.0616 167.80261 L 798 167.80261 C 803.5228 167.80261 808 172.27977 808 177.80261 L 808 203.55061 C 808 209.07346 803.5228 213.55061 798 213.55061 L 592.0616 213.55061 C 586.53874 213.55061 582.0616 209.07346 582.0616 203.55061 L 582.0616 177.80261 C 582.0616 172.27977 586.53874 167.80261 592.0616 167.80261 Z" stroke="#495057" stroke-linecap="round" stroke-linejoin="round" stroke-width="25"/>
      </g>
      <g id="Graphic_27">
        <path d="M 579.9692 213.55061 L 809.9692 213.55061 C 815.4921 213.55061 819.9692 218.02777 819.9692 223.55061 L 819.9692 249.2986 C 819.9692 254.82146 815.4921 259.2986 809.9692 259.2986 L 579.9692 259.2986 C 574.44636 259.2986 569.9692 254.82146 569.9692 249.2986 L 569.9692 223.55061 C 569.9692 218.02777 574.44636 213.55061 579.9692 213.55061 Z" fill="#495057"/>
        <path d="M 579.9692 213.55061 L 809.9692 213.55061 C 815.4921 213.55061 819.9692 218.02777 819.9692 223.55061 L 819.9692 249.2986 C 819.9692 254.82146 815.4921 259.2986 809.9692 259.2986 L 579.9692 259.2986 C 574.44636 259.2986 569.9692 254.82146 569.9692 249.2986 L 569.9692 223.55061 C 569.9692 218.02777 574.44636 213.55061 579.9692 213.55061 Z" stroke="#495057" stroke-linecap="round" stroke-linejoin="round" stroke-width="25"/>
      </g>
      <g id="Graphic_26">
        <path d="M 592 122.05461 L 797.9384 122.05461 C 803.4613 122.05461 807.9384 126.53177 807.9384 132.05461 L 807.9384 157.80261 C 807.9384 163.32546 803.4613 167.80261 797.9384 167.80261 L 592 167.80261 C 586.47715 167.80261 582 163.32546 582 157.80261 L 582 132.05461 C 582 126.53177 586.47715 122.05461 592 122.05461 Z" stroke="#495057" stroke-linecap="round" stroke-linejoin="round" stroke-width="25"/>
      </g>
      <g id="Graphic_25">
        <path d="M 592.0616 259.2713 L 798 259.2713 C 803.5228 259.2713 808 263.74846 808 269.2713 L 808 295.0193 C 808 300.54215 803.5228 305.0193 798 305.0193 L 592.0616 305.0193 C 586.53874 305.0193 582.0616 300.54215 582.0616 295.0193 L 582.0616 269.2713 C 582.0616 263.74846 586.53874 259.2713 592.0616 259.2713 Z" stroke="#495057" stroke-linecap="round" stroke-linejoin="round" stroke-width="25"/>
      </g>
      <g id="Graphic_24">
        <path d="M 592.0616 305.0193 L 798 305.0193 C 803.5228 305.0193 808 309.49646 808 315.0193 L 808 340.7673 C 808 346.29015 803.5228 350.7673 798 350.7673 L 592.0616 350.7673 C 586.53874 350.7673 582.0616 346.29015 582.0616 340.7673 L 582.0616 315.0193 C 582.0616 309.49646 586.53874 305.0193 592.0616 305.0193 Z" stroke="#495057" stroke-linecap="round" stroke-linejoin="round" stroke-width="25"/>
      </g>
    </g>
  </g>
</svg>
