<?xml version="1.0" encoding="UTF-8" standalone="no"?>
<!DOCTYPE svg PUBLIC "-//W3C//DTD SVG 1.1//EN" "http://www.w3.org/Graphics/SVG/1.1/DTD/svg11.dtd">
<svg xmlns:dc="http://purl.org/dc/elements/1.1/" xmlns:xl="http://www.w3.org/1999/xlink" version="1.1" xmlns="http://www.w3.org/2000/svg" viewBox="248 109 276 255" width="276" height="255">
  <defs/>
  <metadata> Produced by OmniGraffle 7.17.2\n2020-08-24 18:13:10 +0000</metadata>
  <g id="Canvas_1" fill-opacity="1" stroke-dasharray="none" stroke-opacity="1" fill="none" stroke="none">
    <title>Canvas 1</title>
    <g id="Canvas_1_Transport">
      <title>Transport</title>
      <g id="Graphic_23">
        <path d="M 283.0616 122.02731 L 489 122.02731 C 494.52285 122.02731 499 126.50446 499 132.0273 L 499 157.7753 C 499 163.29815 494.52285 167.7753 489 167.7753 L 283.0616 167.7753 C 277.53874 167.7753 273.0616 163.29815 273.0616 157.7753 L 273.0616 132.0273 C 273.0616 126.50446 277.53874 122.02731 283.0616 122.02731 Z" stroke="#495057" stroke-linecap="round" stroke-linejoin="round" stroke-width="25"/>
      </g>
      <g id="Graphic_21">
        <path d="M 271.0308 167.80261 L 501.0308 167.80261 C 506.55364 167.80261 511.0308 172.27977 511.0308 177.80261 L 511.0308 203.55061 C 511.0308 209.07346 506.55364 213.55061 501.0308 213.55061 L 271.0308 213.55061 C 265.50795 213.55061 261.0308 209.07346 261.0308 203.55061 L 261.0308 177.80261 C 261.0308 172.27977 265.50795 167.80261 271.0308 167.80261 Z" fill="#495057"/>
        <path d="M 271.0308 167.80261 L 501.0308 167.80261 C 506.55364 167.80261 511.0308 172.27977 511.0308 177.80261 L 511.0308 203.55061 C 511.0308 209.07346 506.55364 213.55061 501.0308 213.55061 L 271.0308 213.55061 C 265.50795 213.55061 261.0308 209.07346 261.0308 203.55061 L 261.0308 177.80261 C 261.0308 172.27977 265.50795 167.80261 271.0308 167.80261 Z" stroke="#495057" stroke-linecap="round" stroke-linejoin="round" stroke-width="25"/>
      </g>
      <g id="Graphic_20">
        <path d="M 283.0616 213.5233 L 489 213.5233 C 494.52285 213.5233 499 218.00046 499 223.5233 L 499 249.2713 C 499 254.79415 494.52285 259.2713 489 259.2713 L 283.0616 259.2713 C 277.53874 259.2713 273.0616 254.79415 273.0616 249.2713 L 273.0616 223.5233 C 273.0616 218.00046 277.53874 213.5233 283.0616 213.5233 Z" stroke="#495057" stroke-linecap="round" stroke-linejoin="round" stroke-width="25"/>
      </g>
      <g id="Graphic_19">
        <path d="M 283 259.2713 L 488.9384 259.2713 C 494.46126 259.2713 498.9384 263.74846 498.9384 269.2713 L 498.9384 295.0193 C 498.9384 300.54215 494.46126 305.0193 488.9384 305.0193 L 283 305.0193 C 277.47715 305.0193 273 300.54215 273 295.0193 L 273 269.2713 C 273 263.74846 277.47715 259.2713 283 259.2713 Z" stroke="#495057" stroke-linecap="round" stroke-linejoin="round" stroke-width="25"/>
      </g>
      <g id="Graphic_18">
        <path d="M 283 305.0193 L 488.9384 305.0193 C 494.46126 305.0193 498.9384 309.49646 498.9384 315.0193 L 498.9384 340.7673 C 498.9384 346.29015 494.46126 350.7673 488.9384 350.7673 L 283 350.7673 C 277.47715 350.7673 273 346.29015 273 340.7673 L 273 315.0193 C 273 309.49646 277.47715 305.0193 283 305.0193 Z" stroke="#495057" stroke-linecap="round" stroke-linejoin="round" stroke-width="25"/>
      </g>
    </g>
  </g>
</svg>
