<svg id="Layer_1" data-name="Layer 1" xmlns="http://www.w3.org/2000/svg" viewBox="0 0 2122 2435.13"><defs><style>.cls-1{fill:#c3e6ef;}.cls-2{fill:#f6b05d;}.cls-3{fill:#f1a0c6;}.cls-4{fill:#fce165;}.cls-5{fill:#dddcd6;}.cls-6{fill:#fef2f7;}.cls-7{fill:#bebebb;}.cls-8{fill:#e9e8e7;}.cls-9{fill:#d4d2ca;}.cls-10{fill:#e7e6e9;}.cls-11{fill:#603b1b;}.cls-12,.cls-21,.cls-22,.cls-24,.cls-25,.cls-27,.cls-29,.cls-30,.cls-32,.cls-34,.cls-35,.cls-39,.cls-40,.cls-42,.cls-43{fill:none;}.cls-12{stroke:#603b1b;stroke-width:1.53px;}.cls-12,.cls-20,.cls-21,.cls-22,.cls-23,.cls-24,.cls-25,.cls-26,.cls-27,.cls-28,.cls-29,.cls-30,.cls-31,.cls-32,.cls-33,.cls-34,.cls-38,.cls-39,.cls-40,.cls-42,.cls-43{stroke-linecap:round;}.cls-12,.cls-20,.cls-23,.cls-26,.cls-28,.cls-31,.cls-33,.cls-38,.cls-42,.cls-43{stroke-linejoin:round;}.cls-13{fill:#825a3a;}.cls-14{fill:#fdd6a7;}.cls-15{fill:#e0c098;}.cls-16{fill:#603526;opacity:0.37;}.cls-16,.cls-19,.cls-36,.cls-37,.cls-41{isolation:isolate;}.cls-17{fill:#ffeea4;}.cls-18{fill:#fff;}.cls-19{fill:#bebec0;opacity:0.64;}.cls-20,.cls-23,.cls-26,.cls-28,.cls-31,.cls-33,.cls-38{fill:#64cbe4;stroke:#3c2116;}.cls-20{stroke-width:0.54px;}.cls-21,.cls-24,.cls-27,.cls-29,.cls-39{stroke:#ffeea4;}.cls-21,.cls-22,.cls-24,.cls-25,.cls-27,.cls-29,.cls-30,.cls-32,.cls-34,.cls-39,.cls-40{stroke-miterlimit:10;}.cls-21,.cls-22{stroke-width:0.13px;}.cls-22,.cls-25,.cls-30,.cls-32,.cls-34,.cls-40{stroke:#010101;}.cls-23{stroke-width:0.58px;}.cls-24,.cls-25{stroke-width:0.14px;}.cls-26{stroke-width:0.4px;}.cls-27{stroke-width:0.1px;}.cls-28{stroke-width:0.44px;}.cls-29,.cls-30{stroke-width:0.11px;}.cls-31{stroke-width:0.77px;}.cls-32{stroke-width:0.18px;}.cls-33{stroke-width:0.62px;}.cls-34{stroke-width:0.15px;}.cls-36,.cls-37{fill:#aa9b8c;}.cls-36{opacity:0.35;}.cls-37{opacity:0.25;}.cls-38{stroke-width:0.35px;}.cls-39,.cls-40{stroke-width:0.09px;}.cls-41{fill:#ceb28d;opacity:0.53;}.cls-42,.cls-43{stroke:#613c1d;}.cls-42{stroke-width:1.53px;}.cls-43{stroke-width:1.15px;}.cls-44{fill:#f8be71;}.cls-45{fill:#eeb0d0;}.cls-46{fill:#fff270;}</style></defs><g id="Layer_4" data-name="Layer 4"><rect class="cls-1" width="2122" height="2435.13"/></g><g id="Layer_3" data-name="Layer 3"><path class="cls-2" d="M2118.77,2241.3c-510.88,63.07-844.7-12.44-1070.81-118.48C878.47,2043.37,411.25,1779,306.57,1875.24c-21.88,20.17-22.71,51.51-19.67,74.83-12.18-3.4-152.87-44.21-182.78-154-8.87-32.31-5.54-61.71,0-83.82,108.56-171.29,231.8-246.12,321.53-283,358.38-147,624.25,87.22,1048.26-58.79,273.62-93.78,427.6-286,466.65-335.77,123-157.44,162.85-312.93,177.53-401.61" transform="translate(0 -1.99)"/><path class="cls-3" d="M2118.09,633a819.66,819.66,0,0,1-126.57,329.21c-27.14,41.06-249.53,368.56-632.55,424.45-149.27,21.86-370.83,9.23-712.59-10.21-15.23-1-83.08-4.86-148.72,13.85-64,18-119.36,51.51-119.36,51.51h0c-44.59,24.29-120.75,72.64-188,157-23,28.91-61.49,86.25-68.13,164.48a273.22,273.22,0,0,0,5.54,82.61,382.26,382.26,0,0,1,85.57-144.56c85.58-90.87,196.36-121.73,247.32-135.33,268.09-71.19,443.12,59.52,828.63,72.4,277.5,9.23,488.26-42.28,668.83-95.73,41-12.12,96.14-29.51,160.76-54.41" transform="translate(0 -1.99)"/><path class="cls-4" d="M2122,1987.85c-288.48,48.17-524.44,33.29-713.73-4.49-432-86.25-962.68-358.85-1157.09-186.11-44.87,39.85-57.61,92.09-62,125.13,42.93,38.63,85.58,77.26,128.5,115.89C272,1934.53,286.07,1893.47,306.57,1875c116.31-104.47,624.52,351.32,1380.59,392.13,135.7,7.29,237.89,3.41,357-3.15q37.72-2,74.63-4.73" transform="translate(0 -1.99)"/></g><g id="Layer_1-2" data-name="Layer 1"><path class="cls-5" d="M775.63,2180.84H1816.48a22.12,22.12,0,0,0,22.17-22.17V1508.21a22.12,22.12,0,0,0-22.17-22.17H775.63a22.12,22.12,0,0,0-22.17,22.17v650.46A22.12,22.12,0,0,0,775.63,2180.84Z" transform="translate(0 -1.99)"/><path class="cls-5" d="M545.83,2360.61H2046.58c12.58,0,16.18-5.1,8.39-11.39L1846.14,2182c-4.19-3.3-14.38-5.69-23.07-5.69H769.34c-8.69,0-19.18,2.69-23.07,5.69L537.44,2349.22C529.65,2355.51,533.25,2360.61,545.83,2360.61Z" transform="translate(0 -1.99)"/><rect class="cls-6" x="804.52" y="1541.49" width="981.82" height="603.12"/><path class="cls-7" d="M594.37,2384H1997.74c15.28,0,29.67-3.9,38.65-10.19l22.17-16.18h-1525l22.17,16.18C564.71,2380.08,579.09,2384,594.37,2384Z" transform="translate(0 -1.99)"/><polygon class="cls-8" points="804.39 1604.5 754.96 1604.5 755.26 1643.45 804.09 1643.45 804.39 1604.5"/><polygon class="cls-8" points="805.29 1657.23 755.86 1657.23 756.16 1676.41 804.99 1676.41 805.29 1657.23"/><path class="cls-9" d="M880.79,2278.51h836.82c4.19,0,6-2.39,3.89-5.09l-46.44-62.32c-1.49-2.1-6-3.89-9.58-3.89H935.32c-3.59,0-8.09,1.79-9.58,3.89l-48.54,62.32C875.1,2276.42,876.6,2278.51,880.79,2278.51Z" transform="translate(0 -1.99)"/><path class="cls-9" d="M1144.75,2340.23h335.57c5.09,0,8.39-3,7.49-6.29l-11.69-37.45c-.9-3-5.39-5.39-10.19-5.39h-306.8c-4.79,0-9.28,2.39-10.18,5.39l-11.69,37.45C1136.36,2337.54,1139.66,2340.23,1144.75,2340.23Z" transform="translate(0 -1.99)"/><polygon class="cls-10" points="1565.11 2236.08 1607.95 2236.08 1602.86 2227.69 1560.61 2227.69 1565.11 2236.08"/><polygon class="cls-10" points="1512.08 2236.08 1555.22 2236.08 1550.72 2227.69 1508.48 2227.69 1512.08 2236.08"/><polygon class="cls-10" points="1459.34 2236.08 1502.19 2236.08 1498.59 2227.69 1456.65 2227.69 1459.34 2236.08"/><polygon class="cls-10" points="1405.41 2236.08 1448.56 2236.08 1445.86 2227.69 1403.91 2227.69 1405.41 2236.08"/><polygon class="cls-10" points="1351.78 2236.08 1394.63 2236.08 1393.13 2227.69 1351.18 2227.69 1351.78 2236.08"/><polygon class="cls-10" points="1298.75 2236.08 1341.9 2236.08 1341.3 2227.69 1299.05 2227.69 1298.75 2236.08"/><polygon class="cls-10" points="1244.82 2236.08 1287.67 2236.08 1287.97 2227.69 1246.02 2227.69 1244.82 2236.08"/><polygon class="cls-10" points="1190.89 2236.08 1233.74 2236.08 1234.93 2227.69 1192.69 2227.69 1190.89 2236.08"/><polygon class="cls-10" points="1137.86 2236.08 1180.7 2236.08 1182.8 2227.69 1140.86 2227.69 1137.86 2236.08"/><polygon class="cls-10" points="1084.23 2236.08 1127.08 2236.08 1130.07 2227.69 1088.13 2227.69 1084.23 2236.08"/><polygon class="cls-10" points="1030.3 2236.08 1073.14 2236.08 1077.34 2227.69 1035.39 2227.69 1030.3 2236.08"/><polygon class="cls-10" points="977.27 2236.08 1020.41 2236.08 1025.51 2227.69 983.26 2227.69 977.27 2236.08"/><polygon class="cls-10" points="924.54 2236.08 967.38 2236.08 973.38 2227.69 931.13 2227.69 924.54 2236.08"/><polygon class="cls-10" points="1554.62 2247.16 1598.36 2247.16 1593.27 2238.48 1550.13 2238.48 1554.62 2247.16"/><polygon class="cls-10" points="1500.39 2247.16 1544.43 2247.16 1539.94 2238.48 1497.09 2238.48 1500.39 2247.16"/><polygon class="cls-10" points="1446.16 2247.16 1490.2 2247.16 1486.91 2238.48 1443.76 2238.48 1446.16 2247.16"/><polygon class="cls-10" points="1391.33 2247.16 1435.08 2247.16 1432.98 2238.48 1389.83 2238.48 1391.33 2247.16"/><polygon class="cls-10" points="1336.5 2247.16 1380.25 2247.16 1379.05 2238.48 1335.9 2238.48 1336.5 2247.16"/><polygon class="cls-10" points="1282.27 2247.16 1326.02 2247.16 1325.72 2238.48 1282.57 2238.48 1282.27 2247.16"/><polygon class="cls-10" points="1226.85 2247.16 1270.89 2247.16 1271.49 2238.48 1228.34 2238.48 1226.85 2247.16"/><polygon class="cls-10" points="1171.72 2247.16 1215.46 2247.16 1217.26 2238.48 1174.11 2238.48 1171.72 2247.16"/><polygon class="cls-10" points="1117.49 2247.16 1161.23 2247.16 1163.93 2238.48 1120.78 2238.48 1117.49 2247.16"/><polygon class="cls-10" points="1062.36 2247.16 1106.4 2247.16 1110 2238.48 1066.85 2238.48 1062.36 2247.16"/><polygon class="cls-10" points="1007.53 2247.16 1051.27 2247.16 1056.07 2238.48 1012.92 2238.48 1007.53 2247.16"/><polygon class="cls-10" points="1530.05 2258.55 1574.99 2258.55 1570.2 2249.56 1526.16 2249.56 1530.05 2258.55"/><polygon class="cls-10" points="1474.62 2258.55 1519.57 2258.55 1515.67 2249.56 1471.63 2249.56 1474.62 2258.55"/><polygon class="cls-10" points="1419.19 2258.55 1464.14 2258.55 1461.44 2249.56 1417.1 2249.56 1419.19 2258.55"/><polygon class="cls-10" points="1363.17 2258.55 1407.81 2258.55 1406.01 2249.56 1361.97 2249.56 1363.17 2258.55"/><polygon class="cls-10" points="1306.84 2258.55 1351.78 2258.55 1350.88 2249.56 1306.84 2249.56 1306.84 2258.55"/><polygon class="cls-10" points="1251.41 2258.55 1296.36 2258.55 1296.36 2249.56 1252.31 2249.56 1251.41 2258.55"/><polygon class="cls-10" points="1194.79 2258.55 1239.73 2258.55 1240.93 2249.56 1196.88 2249.56 1194.79 2258.55"/><polygon class="cls-10" points="1138.16 2258.55 1183.1 2258.55 1185.2 2249.56 1141.16 2249.56 1138.16 2258.55"/><polygon class="cls-10" points="1082.73 2258.55 1127.67 2258.55 1130.97 2249.56 1086.93 2249.56 1082.73 2258.55"/><polygon class="cls-10" points="1026.41 2258.55 1071.35 2258.55 1075.54 2249.56 1031.5 2249.56 1026.41 2258.55"/><polygon class="cls-10" points="1627.13 2225.59 1668.77 2225.59 1662.78 2217.5 1621.43 2217.5 1627.13 2225.59"/><polygon class="cls-10" points="1575.29 2225.59 1617.24 2225.59 1611.85 2217.5 1570.5 2217.5 1575.29 2225.59"/><polygon class="cls-10" points="1523.46 2225.59 1565.41 2225.59 1560.91 2217.5 1519.87 2217.5 1523.46 2225.59"/><polygon class="cls-10" points="1471.03 2225.59 1512.97 2225.59 1509.38 2217.5 1468.03 2217.5 1471.03 2225.59"/><polygon class="cls-10" points="1418.3 2225.59 1460.24 2225.59 1457.55 2217.5 1416.5 2217.5 1418.3 2225.59"/><polygon class="cls-10" points="1366.46 2225.59 1408.41 2225.59 1406.91 2217.5 1365.57 2217.5 1366.46 2225.59"/><polygon class="cls-10" points="1313.73 2225.59 1355.68 2225.59 1354.78 2217.5 1313.73 2217.5 1313.73 2225.59"/><polygon class="cls-10" points="1261 2225.59 1302.65 2225.59 1302.95 2217.5 1261.6 2217.5 1261 2225.59"/><polygon class="cls-10" points="1209.17 2225.59 1251.11 2225.59 1252.01 2217.5 1210.67 2217.5 1209.17 2225.59"/><polygon class="cls-10" points="1156.44 2225.59 1198.38 2225.59 1200.48 2217.5 1159.13 2217.5 1156.44 2225.59"/><polygon class="cls-10" points="1104.01 2225.59 1145.95 2225.59 1148.65 2217.5 1107.6 2217.5 1104.01 2225.59"/><polygon class="cls-10" points="1052.17 2225.59 1094.12 2225.59 1098.01 2217.5 1056.67 2217.5 1052.17 2225.59"/><polygon class="cls-10" points="1000.34 2225.59 1042.29 2225.59 1047.08 2217.5 1005.73 2217.5 1000.34 2225.59"/><polygon class="cls-10" points="1619.93 2215.71 1661.88 2215.71 1658.88 2211.81 1617.24 2211.81 1619.93 2215.71"/><polygon class="cls-10" points="1568.4 2215.71 1610.05 2215.71 1607.65 2211.81 1566.01 2211.81 1568.4 2215.71"/><polygon class="cls-10" points="1516.57 2215.71 1558.51 2215.71 1556.42 2211.81 1514.77 2211.81 1516.57 2215.71"/><polygon class="cls-10" points="1464.14 2215.71 1506.08 2215.71 1504.29 2211.81 1462.64 2211.81 1464.14 2215.71"/><polygon class="cls-10" points="1411.7 2215.71 1453.35 2215.71 1452.15 2211.81 1410.81 2211.81 1411.7 2215.71"/><polygon class="cls-10" points="1359.87 2215.71 1401.82 2215.71 1400.92 2211.81 1359.57 2211.81 1359.87 2215.71"/><polygon class="cls-10" points="1307.14 2215.71 1348.79 2215.71 1348.49 2211.81 1307.14 2211.81 1307.14 2215.71"/><polygon class="cls-10" points="1254.11 2215.71 1296.06 2215.71 1296.36 2211.81 1254.71 2211.81 1254.11 2215.71"/><polygon class="cls-10" points="1202.58 2215.71 1244.52 2215.71 1244.82 2211.81 1203.48 2211.81 1202.58 2215.71"/><polygon class="cls-10" points="1150.14 2215.71 1191.79 2215.71 1192.99 2211.81 1151.34 2211.81 1150.14 2215.71"/><polygon class="cls-10" points="1097.41 2215.71 1139.36 2215.71 1140.86 2211.81 1099.21 2211.81 1097.41 2215.71"/><polygon class="cls-10" points="1045.88 2215.71 1087.83 2215.71 1089.62 2211.81 1047.98 2211.81 1045.88 2215.71"/><polygon class="cls-10" points="994.05 2215.71 1035.99 2215.71 1038.39 2211.81 996.74 2211.81 994.05 2215.71"/><polygon class="cls-10" points="941.02 2215.71 982.96 2215.71 985.66 2211.81 944.31 2211.81 941.02 2215.71"/><polygon class="cls-10" points="1619.04 2236.08 1677.76 2236.08 1671.47 2227.69 1613.64 2227.69 1619.04 2236.08"/><polygon class="cls-10" points="1609.45 2247.16 1686.45 2247.16 1679.56 2238.48 1604.06 2238.48 1609.45 2247.16"/><polygon class="cls-10" points="1586.08 2258.55 1695.44 2258.55 1688.25 2249.56 1580.69 2249.56 1586.08 2258.55"/><polygon class="cls-10" points="932.63 2225.59 990.15 2225.59 995.55 2217.5 939.22 2217.5 932.63 2225.59"/><polygon class="cls-10" points="915.55 2247.16 994.65 2247.16 1000.34 2238.48 922.44 2238.48 915.55 2247.16"/><polygon class="cls-10" points="906.26 2258.55 1014.12 2258.55 1019.51 2249.56 913.45 2249.56 906.26 2258.55"/><polygon class="cls-10" points="1467.73 2270.53 1191.79 2270.53 1193.89 2260.95 1464.74 2260.95 1467.73 2270.53"/><polygon class="cls-10" points="1121.08 2270.53 1177.41 2270.53 1179.81 2260.95 1124.68 2260.95 1121.08 2270.53"/><polygon class="cls-10" points="1065.65 2270.53 1108.2 2270.53 1112.09 2260.95 1070.15 2260.95 1065.65 2270.53"/><polygon class="cls-10" points="1535.14 2270.53 1478.82 2270.53 1475.52 2260.95 1530.65 2260.95 1535.14 2270.53"/><polygon class="cls-10" points="1590.57 2270.53 1548.03 2270.53 1543.23 2260.95 1585.18 2260.95 1590.57 2270.53"/><polygon class="cls-10" points="1647.5 2270.53 1604.95 2270.53 1599.26 2260.95 1641.21 2260.95 1647.5 2270.53"/><polygon class="cls-10" points="1704.72 2270.53 1662.18 2270.53 1655.29 2260.95 1697.23 2260.95 1704.72 2270.53"/><polygon class="cls-10" points="1006.33 2270.53 1053.37 2270.53 1055.77 2265.74 1009.33 2265.74 1006.33 2270.53"/><polygon class="cls-10" points="951.2 2270.53 998.24 2270.53 1001.24 2265.74 954.8 2265.74 951.2 2270.53"/><polygon class="cls-10" points="896.08 2270.53 943.11 2270.53 946.71 2265.74 900.27 2265.74 896.08 2270.53"/><polygon class="cls-10" points="954.8 2265.74 1001.24 2265.74 1004.23 2260.95 958.09 2260.95 954.8 2265.74"/><path class="cls-11" d="M1816.18,1490.54a17.71,17.71,0,0,1,17.68,17.67v650.46a17.71,17.71,0,0,1-17.68,17.68H775.33a17.71,17.71,0,0,1-17.68-17.68V1507.91a17.71,17.71,0,0,1,17.68-17.67H1816.18m0-4.5H775.33a22.12,22.12,0,0,0-22.17,22.17v650.46a22.12,22.12,0,0,0,22.17,22.17H1816.18a22.12,22.12,0,0,0,22.17-22.17V1507.91a22.12,22.12,0,0,0-22.17-22.17Z" transform="translate(0 -1.99)"/><path class="cls-11" d="M1822.47,2180.54c8.39,0,17.38,2.7,20.38,4.79l208.82,167.19a13,13,0,0,1,2.1,2.09c-.9.6-3.29,1.2-7.49,1.2h-1501c-4.19,0-6.59-.6-7.49-1.2a6.7,6.7,0,0,1,2.1-2.09l208.83-167.19c3-2.39,12-4.79,20.37-4.79H1822.47m0-4.49H769c-8.69,0-19.18,2.69-23.07,5.69L537.14,2348.92c-7.79,6.29-4.19,11.39,8.39,11.39H2046.28c12.58,0,16.18-5.1,8.39-11.39l-208.83-167.18c-4.19-3.3-14.68-5.69-23.37-5.69Z" transform="translate(0 -1.99)"/><rect class="cls-12" x="804.11" y="1541.37" width="981.82" height="603.12"/><path class="cls-12" d="M533.25,2357.31l22.17,16.18c9,6.59,23.37,10.19,38.65,10.19H1997.44c15.28,0,29.67-3.9,38.65-10.19l22.18-16.18" transform="translate(0 -1.99)"/><path class="cls-11" d="M1665.78,2208.1c3,0,6.59,1.5,7.49,3l46.44,66.51a2.38,2.38,0,0,1,.29.9,3.46,3.46,0,0,1-2.39.6H881.09c-1.49,0-2.09-.3-2.39-.6,0,0,0-.3.6-.9l48.53-66.51c1.2-1.5,4.5-3,7.79-3h730.16m0-2.39H935.32c-3.59,0-8.09,1.79-9.58,4.19l-48.54,66.52c-2.1,3-.6,5.39,3.59,5.39h836.82c4.19,0,6-2.4,3.89-5.39l-46.44-66.52c-1.49-2.4-5.69-4.19-9.28-4.19Z" transform="translate(0 -1.99)"/><path class="cls-11" d="M1465.93,2293.19c3.9,0,7.5,2.1,8.09,3.9l11.69,37.45a1.32,1.32,0,0,1-.3,1.5c-.6.9-2.1,1.8-4.79,1.8H1144.75c-2.69,0-4.19-.9-4.79-1.8a2.7,2.7,0,0,1-.3-1.5l11.68-37.45c.6-1.8,4.2-3.9,8.09-3.9h306.5m0-2.39h-306.8c-4.79,0-9.28,2.39-10.18,5.39l-11.69,37.45c-1.2,3.6,2.1,6.29,7.49,6.29h335.57c5.09,0,8.38-3,7.49-6.29l-11.69-37.45c-.6-3-5.39-5.39-10.19-5.39Z" transform="translate(0 -1.99)"/><path class="cls-11" d="M1602,2231.17l3.29,5.4H1566l-3-5.4h39m.9-1.49h-42.25l4.5,8.39H1608l-5.09-8.39Z" transform="translate(0 -1.99)"/><path class="cls-11" d="M1549.83,2231.17l2.69,5.4h-39.25l-2.39-5.4h38.95m.89-1.49h-42.24l3.59,8.39h43.15l-4.5-8.39Z" transform="translate(0 -1.99)"/><path class="cls-11" d="M1497.69,2231.17l2.1,5.4h-39.55l-1.8-5.4h39.25m1.2-1.49h-42.24l2.69,8.39h42.85l-3.3-8.39Z" transform="translate(0 -1.99)"/><path class="cls-11" d="M1445,2231.17l1.5,5.4h-39.55l-1.2-5.4H1445m.9-1.49h-42.24l1.79,8.39h42.85l-2.4-8.39Z" transform="translate(0 -1.99)"/><path class="cls-11" d="M1391.93,2231.17l.9,5.4h-39.55l-.6-5.4h39.25m1.2-1.49h-42.25l.9,8.39h42.85l-1.5-8.39Z" transform="translate(0 -1.99)"/><path class="cls-11" d="M1339.8,2231.17l.3,5.4h-39.55v-5.4h39.25m1.5-1.49h-42.25l-.3,8.39h42.85l-.3-8.39Z" transform="translate(0 -1.99)"/><path class="cls-11" d="M1286.47,2231.17l-.3,5.4h-39.55l.6-5.4h39.25m1.5-1.49Zm0,0h-42.25l-1.2,8.39h42.85l.6-8.39Z" transform="translate(0 -1.99)"/><path class="cls-11" d="M1233.14,2231.17l-.9,5.4h-39.55l1.2-5.4h39.25m1.79-1.49Zm0,0h-42.24l-2.1,8.39h42.85l1.49-8.39Z" transform="translate(0 -1.99)"/><path class="cls-11" d="M1181,2231.17l-1.49,5.4H1140l1.8-5.4H1181m2.1-1.49Zm0,0h-42.24l-3,8.39h42.85l2.39-8.39Z" transform="translate(0 -1.99)"/><path class="cls-11" d="M1128,2231.17l-2.09,5.4h-39.55l2.39-5.4H1128m2.1-1.49Zm0,0h-42.24l-3.9,8.39h42.85l3.29-8.39Z" transform="translate(0 -1.99)"/><path class="cls-11" d="M1074.94,2231.17l-2.69,5.4H1033l3-5.4h39m2.4-1.49Zm0,0h-42.25l-4.79,8.39h42.84l4.2-8.39Z" transform="translate(0 -1.99)"/><path class="cls-11" d="M1022.81,2231.17l-3.3,5.4H980.27l3.59-5.4h38.95m2.7-1.49Zm0,0H983.26l-5.69,8.39h42.84l5.1-8.39Z" transform="translate(0 -1.99)"/><path class="cls-11" d="M970.38,2231.17l-3.9,5.4h-39l4.2-5.4h38.65m3-1.49Zm0,0H931.13l-6.89,8.39h42.84l6.29-8.39Z" transform="translate(0 -1.99)"/><path class="cls-11" d="M1592.37,2242l3.3,5.69h-40.15l-3-5.69h39.85m.9-1.8h-43.14l4.49,8.69h43.74l-5.09-8.69Z" transform="translate(0 -1.99)"/><path class="cls-11" d="M1539,2242l2.7,5.69h-40.45l-2.4-5.69H1539m1.2-1.8h-43.15l3.6,8.69h43.74l-4.19-8.69Z" transform="translate(0 -1.99)"/><path class="cls-11" d="M1485.71,2242l2.1,5.69h-40.45l-1.5-5.69h39.85m1.2-1.8h-43.15l2.4,8.69h43.74l-3-8.69Z" transform="translate(0 -1.99)"/><path class="cls-11" d="M1431.78,2242l1.5,5.69h-40.75l-.9-5.69h40.15m1.2-1.8h-43.15l1.5,8.69h44l-2.39-8.69Z" transform="translate(0 -1.99)"/><path class="cls-11" d="M1377.55,2242l.9,5.69H1337.7l-.3-5.69h40.15m1.5-1.8H1335.9l.6,8.69h43.75l-1.2-8.69Z" transform="translate(0 -1.99)"/><path class="cls-11" d="M1324.22,2242l.3,5.69h-40.75l.3-5.69h40.15m1.5-1.8h-43.15l-.6,8.69h43.75v-8.69Z" transform="translate(0 -1.99)"/><path class="cls-11" d="M1269.69,2242l-.3,5.69h-40.75l.9-5.69h40.15m1.8-1.8Zm0,0h-43.15l-1.49,8.69h43.74l.9-8.69Z" transform="translate(0 -1.99)"/><path class="cls-11" d="M1215.46,2242l-1.2,5.69h-40.45l1.5-5.69h40.15m1.8-1.8Zm0,0h-43.15l-2.39,8.69h43.74l1.8-8.69Z" transform="translate(0 -1.99)"/><path class="cls-11" d="M1161.83,2242l-1.8,5.69h-40.45l2.4-5.69h39.85m2.1-1.8Zm0,0h-43.15l-3.29,8.69h43.74l2.7-8.69Z" transform="translate(0 -1.99)"/><path class="cls-11" d="M1107.6,2242l-2.4,5.69h-40.44l3-5.69h39.85m2.4-1.8Zm0,0h-43.15l-4.49,8.69h43.74l3.9-8.69Z" transform="translate(0 -1.99)"/><path class="cls-11" d="M1053.67,2242l-3,5.69h-40.14l3.59-5.69h39.55m2.4-1.8Zm0,0h-43.15l-5.39,8.69h43.74l4.8-8.69Z" transform="translate(0 -1.99)"/><path class="cls-11" d="M1569.3,2252.75l3.3,6.29h-41.35l-2.7-6.29h40.75m.9-1.5h-44l4.19,9.29h44.94l-5.09-9.29Z" transform="translate(0 -1.99)"/><path class="cls-11" d="M1514.77,2252.75l2.7,6.29h-41.65l-2.1-6.29h41m.9-1.5h-44l3,9.29h45l-3.9-9.29Z" transform="translate(0 -1.99)"/><path class="cls-11" d="M1460.24,2252.75l1.8,6.29h-41.65l-1.49-6.29h41.34m1.2-1.5h-44l2.1,9.29h44.94l-3-9.29Z" transform="translate(0 -1.99)"/><path class="cls-11" d="M1404.81,2252.75l1.2,6.29h-41.64l-.6-6.29h41m1.2-1.5h-44l.9,9.29h44.94l-1.8-9.29Z" transform="translate(0 -1.99)"/><path class="cls-11" d="M1349.39,2252.75l.6,6.29h-41.65v-6.29h41.05m1.49-1.5h-44v9.29h44.94l-.9-9.29Z" transform="translate(0 -1.99)"/><path class="cls-11" d="M1294.86,2252.75V2259h-41.65l.6-6.29h41m1.79-1.5Zm0,0h-44l-.9,9.29h44.94v-9.29Z" transform="translate(0 -1.99)"/><path class="cls-11" d="M1239.13,2252.75l-.9,6.29h-41.65l1.5-6.29h41.05m1.8-1.5Zm0,0h-44l-2.09,9.29h44.94l1.2-9.29Z" transform="translate(0 -1.99)"/><path class="cls-11" d="M1183.4,2252.75l-1.5,6.29h-41.64l2.1-6.29h41m2.1-1.5Zm0,0h-44l-3,9.29h44.94l2.1-9.29Z" transform="translate(0 -1.99)"/><path class="cls-11" d="M1128.87,2252.75l-2.09,6.29h-41.35l2.7-6.29h40.74m2.1-1.5Zm0,0h-44l-4.2,9.29h44.94l3.3-9.29Z" transform="translate(0 -1.99)"/><path class="cls-11" d="M1073.44,2252.75l-3,6.29H1029.1l3.6-6.29h40.74m2.4-1.5Zm0,0h-44l-5.09,9.29h44.94l4.19-9.29Z" transform="translate(0 -1.99)"/><path class="cls-11" d="M1661.88,2221l3.9,5.09h-38.06l-3.29-5.09h37.45m.9-1.5h-41.35l5.4,8.09h41.94l-6-8.09Z" transform="translate(0 -1.99)"/><path class="cls-11" d="M1611,2221l3.29,5.09h-38l-3-5.09H1611m.9-1.5H1570.5l4.49,8.09h42l-5.09-8.09Z" transform="translate(0 -1.99)"/><path class="cls-11" d="M1560,2221l2.7,5.09h-38.35L1522,2221h38m.9-1.5h-41.34l3.59,8.09h41.95l-4.2-8.09Z" transform="translate(0 -1.99)"/><path class="cls-11" d="M1508.48,2221l2.1,5.09h-38.65l-1.8-5.09h38.35m.9-1.5H1468l2.7,8.09h41.94l-3.29-8.09Z" transform="translate(0 -1.99)"/><path class="cls-11" d="M1456.65,2221l1.49,5.09h-38.65l-1.19-5.09h38.35m1.2-1.5H1416.5l1.8,8.09h41.94l-2.39-8.09Z" transform="translate(0 -1.99)"/><path class="cls-11" d="M1405.71,2221l1.2,5.09h-38.65l-.6-5.09h38m1.2-1.5h-41.34l.89,8.09h42l-1.5-8.09Z" transform="translate(0 -1.99)"/><path class="cls-11" d="M1353.58,2221l.6,5.09h-38.65V2221h38m1.2-1.5h-41.35v8.09h42l-.6-8.09Z" transform="translate(0 -1.99)"/><path class="cls-11" d="M1301.45,2221v5.09H1262.8l.6-5.09h38m1.5-1.5Zm0,0H1261.6l-.9,8.09h42l.3-8.09Z" transform="translate(0 -1.99)"/><path class="cls-11" d="M1250.21,2221l-.59,5.09H1211l1.19-5.09h38m1.8-1.5Zm0,0h-41.34l-1.8,8.09h41.94l1.2-8.09Z" transform="translate(0 -1.99)"/><path class="cls-11" d="M1198.38,2221l-1.2,5.09h-38.65l1.5-5.09h38.35m2.1-1.5Zm0,0h-41.35l-2.69,8.09h41.94l2.1-8.09Z" transform="translate(0 -1.99)"/><path class="cls-11" d="M1146.55,2221l-1.8,5.09H1106.1l2.1-5.09h38.35m2.4-1.5Zm0,0H1107.6l-3.6,8.09h42l3-8.09Z" transform="translate(0 -1.99)"/><path class="cls-11" d="M1095.62,2221l-2.4,5.09h-38.35l2.7-5.09h38m2.39-1.5Zm0,0h-41.34l-4.5,8.09h41.95l3.89-8.09Z" transform="translate(0 -1.99)"/><path class="cls-11" d="M1044.38,2221l-3,5.09H1003l3.29-5.09h38.05m2.7-1.5Zm0,0h-41.35l-5.39,8.09h41.95l4.79-8.09Z" transform="translate(0 -1.99)"/><path class="cls-11" d="M1658.28,2215.29l.6.9h-38.05l-.6-.9h38m.6-1.49h-41.64l2.69,3.89h42l-3-3.89Z" transform="translate(0 -1.99)"/><path class="cls-11" d="M1606.75,2215.29l.6.9h-38l-.6-.9h38m.9-1.49H1566l2.1,3.89h42l-2.4-3.89Z" transform="translate(0 -1.99)"/><path class="cls-11" d="M1555.52,2215.29l.6.9h-38.35l-.3-.9h38m.9-1.49h-41.65l1.8,3.89h41.94l-2.09-3.89Z" transform="translate(0 -1.99)"/><path class="cls-11" d="M1503.39,2215.29l.3.9h-38.35l-.3-.9h38.35m.89-1.49h-41.64l1.2,3.89h41.94l-1.5-3.89Z" transform="translate(0 -1.99)"/><path class="cls-11" d="M1451.25,2215.29l.3.9H1412.9l-.3-.9h38.65m.9-1.49h-41.64l.9,3.89h41.94l-1.2-3.89Z" transform="translate(0 -1.99)"/><path class="cls-11" d="M1399.72,2215.29l.3.9h-38.65v-.9h38.35m1.2-1.49h-41.65l.3,3.89h42l-.6-3.89Z" transform="translate(0 -1.99)"/><path class="cls-11" d="M1347.29,2215.29v.9h-38.65v-.9h38.65m1.2-1.49h-41.65v3.89h42l-.3-3.89Z" transform="translate(0 -1.99)"/><path class="cls-11" d="M1294.56,2215.29v.9h-38.65v-.9h38.65m1.79-1.49Zm0,0h-41.64l-.6,3.89h42l.29-3.89Z" transform="translate(0 -1.99)"/><path class="cls-11" d="M1243.32,2215.29v.9h-38.65l.3-.9h38.35m1.5-1.49Zm0,0h-41.64l-.9,3.89h41.94l.6-3.89Z" transform="translate(0 -1.99)"/><path class="cls-11" d="M1190.89,2215.29l-.3.9h-38.65l.3-.9h38.65m2.1-1.49Zm0,0h-41.65l-1.2,3.89h41.95l.9-3.89Z" transform="translate(0 -1.99)"/><path class="cls-11" d="M1138.76,2215.29l-.3.9h-38.65l.3-.9h38.65m2.1-1.49Zm0,0h-41.65l-1.8,3.89h41.95l1.5-3.89Z" transform="translate(0 -1.99)"/><path class="cls-11" d="M1087.23,2215.29l-.3.9h-38.35l.6-.9h38m2.39-1.49Zm0,0H1048l-2.1,3.89h41.95l1.79-3.89Z" transform="translate(0 -1.99)"/><path class="cls-11" d="M1035.69,2215.29l-.6.9H997l.6-.9h38.05m2.7-1.49Zm0,0H996.74l-2.69,3.89H1036l2.4-3.89Z" transform="translate(0 -1.99)"/><path class="cls-11" d="M983,2215.29l-.6.9H944.31l.6-.9H983m2.7-1.49Zm0,0H944l-3,3.89H983l2.7-3.89Z" transform="translate(0 -1.99)"/><path class="cls-11" d="M1670.57,2231.17l4.19,5.4h-54.83l-3.59-5.4h54.23m.9-1.49h-57.83l5.4,8.39h59l-6.59-8.39Z" transform="translate(0 -1.99)"/><path class="cls-11" d="M1679,2242l4.49,5.69h-73.1l-3.6-5.69H1679m.6-1.8h-75.5l5.39,8.69h77l-6.89-8.69Z" transform="translate(0 -1.99)"/><path class="cls-11" d="M1687.35,2252.75l4.79,6.29H1586.68l-3.3-6.29h104m.9-1.5H1581l5.09,9.29h109.36l-7.19-9.29Z" transform="translate(0 -1.99)"/><path class="cls-11" d="M992.85,2221l-3.3,5.09H936.22l3.9-5.09h52.73m3-1.5Zm0,0H939.52l-6.59,8.09h57.52l5.4-8.09Z" transform="translate(0 -1.99)"/><path class="cls-11" d="M997.64,2242l-3.59,5.69h-75.2l4.49-5.69h74.3m2.7-1.8Zm0,0h-77.9l-7.19,8.69h79.4l5.69-8.69Z" transform="translate(0 -1.99)"/><path class="cls-11" d="M1017.12,2252.75l-3.6,6.29h-104l5.09-6.29h102.47m2.39-1.5Zm0,0H913.45l-7.49,9.29h108.16l5.39-9.29Z" transform="translate(0 -1.99)"/><path class="cls-11" d="M1463.54,2264.43l2.1,6.59H1193.59l1.5-6.59h268.45m1.2-1.5H1193.89l-2.1,9.59h275.94l-3-9.59Z" transform="translate(0 -1.99)"/><path class="cls-11" d="M1178,2264.43l-1.8,6.59h-53l2.4-6.59H1178m1.8-1.5Zm0,0h-55.13l-3.6,9.59h56.33l2.4-9.59Z" transform="translate(0 -1.99)"/><path class="cls-11" d="M1109.7,2264.43,1107,2271h-39.25l3-6.59h39m2.39-1.5Zm0,0h-41.64l-4.5,9.59h42.55l3.59-9.59Z" transform="translate(0 -1.99)"/><path class="cls-11" d="M1529.75,2264.43l3,6.59H1480l-2.1-6.59h51.83m1.2-1.5h-55.13l3.3,9.59h56.32l-4.49-9.59Z" transform="translate(0 -1.99)"/><path class="cls-11" d="M1584.28,2264.43l3.6,6.59h-39l-3-6.59h38.35m.9-1.5h-41.65l4.5,9.59h42.54l-5.39-9.59Z" transform="translate(0 -1.99)"/><path class="cls-11" d="M1640.31,2264.43l4.49,6.59h-39l-3.89-6.59h38.35m.9-1.5h-41.65l5.69,9.59h42.55l-6.59-9.59Z" transform="translate(0 -1.99)"/><path class="cls-11" d="M1696.34,2264.43l5.09,6.59h-38.65l-4.5-6.59h38.06m.89-1.5h-41.64l6.59,9.59h42.54l-7.49-9.59Z" transform="translate(0 -1.99)"/><path class="cls-11" d="M1053.37,2269.22l-.9,1.8H1009l1.2-1.8h43.14m2.4-1.49Zm0,0h-46.44l-3,4.79h47l2.4-4.79Z" transform="translate(0 -1.99)"/><path class="cls-11" d="M998.54,2269.22l-1.2,1.8H954.2l1.2-1.8h43.14m2.7-1.49Zm0,0H954.8l-3.3,4.79h47l2.7-4.79Z" transform="translate(0 -1.99)"/><path class="cls-11" d="M943.71,2269.22l-1.2,1.8H899.67l1.5-1.8h42.54m3-1.49Zm0,0H900.27l-3.9,4.79h47l3.3-4.79Z" transform="translate(0 -1.99)"/><path class="cls-11" d="M1001.54,2264.43l-1.2,1.8H957.5l1.19-1.8h42.85m2.69-1.5Zm0,0H958.09l-3.29,4.8h46.44l3-4.8Z" transform="translate(0 -1.99)"/><path class="cls-8" d="M1833.56,1608.88c-15,.3-30,.3-44.94.6v39.25h45.24C1833.56,1635.55,1833.56,1622.07,1833.56,1608.88Z" transform="translate(0 -1.99)"/><path class="cls-8" d="M1833.56,1662.21h-45.24v19.18h45.24Z" transform="translate(0 -1.99)"/><path class="cls-13" d="M1143.25,1635.55l-3.59-38a81.76,81.76,0,0,1-14.68-95.28c-8.09,3.6-15.88,1.8-19.48-3-1.5-1.79-3-5.69-1.5-7.78,1.8-2.1,7.5-2.7,24.87,4.79q3.15-4.05,6.29-8.09a39.17,39.17,0,0,1-6-18.28c0-1.2-.9-15.88,9-28.16,5.69-7.19,9.29-6.29,25.47-15.58a255.61,255.61,0,0,0,35.95-26.07,189.38,189.38,0,0,0,18.28-18.57c15.88-17.68,74.6-83.89,143.21-80.6,23.07,1.2,38.65,9.59,42.84,12,24.87,14.38,42.55,40.74,46.44,68.61,5.4,40.45-18,82.69-59,103.36a117.19,117.19,0,0,1,4.5,22.47,105.54,105.54,0,0,1-.6,25.17c-2.1,17.08-7.49,54.53-16.18,103.37Z" transform="translate(0 -1.99)"/><path class="cls-14" d="M1167.22,1816.21c7.79-30.26,6.29-55.13,4.5-72.5-3.6-41.35-10.49-69.81-13.49-86-5.39-28.16-23.66-129.43,29.37-189.36,23.37-26.36,58.72-41.94,94.07-40.74s69.81,19.47,90.19,47.94c27.26,38.35,28.46,88.68,28.46,136q0,104.26-.3,208.83a17,17,0,0,0,.3,3.89c6,1.2,12.28,2.7,18.28,3.9-12.59,17.08-38.35,46.14-80.3,62.32-96.17,37.45-186.36-28.17-193.55-33.56,5.1-6.59,10.49-13.48,15.58-20.07A136.74,136.74,0,0,0,1167.22,1816.21Z" transform="translate(0 -1.99)"/><path class="cls-14" d="M1154,1601.09c-1.2-.9-9-8.09-18.88-6.89-10.78,1.2-15.87,11.39-17.67,15.88-5.7,11.69-5.1,29.06,6.89,38.35,1.8,1.5,9.89,7.79,20.07,6a22.22,22.22,0,0,0,12.89-7.79C1156.14,1631.05,1154.94,1616.07,1154,1601.09Z" transform="translate(0 -1.99)"/><path class="cls-15" d="M1117.19,1609.18c2.1-4.19,6.89-14.38,17.67-15.88,6.9-.9,12.59,2.4,15.88,4.5-1.79-41.35,3.9-93.48,36.56-130.33,23.37-26.37,58.72-42,94.07-40.75a115.48,115.48,0,0,1,22.77,3h0c-15,2.69-37.75,9-56.92,26.66-18.58,17.38-37.15,48.84-34.46,141.12,2.1,75.8,16.78,130.63,22.17,153.7,8.69,37.75,15,86.59,10.49,147.41-55.13-9-95.87-38.65-100.67-42.25,5.1-6.59,10.49-13.48,15.58-20.07,1.8-4.8,4.2-12,6.59-20.68,7.79-30.26,6.3-55.12,4.5-72.5-3.6-41.35-10.49-69.81-13.48-86-.6-2.7-1.2-6.29-1.8-10.49a21,21,0,0,1-12.29,7.19c-10.18,1.8-18.27-4.49-20.07-6C1112.09,1638.24,1111.79,1620.87,1117.19,1609.18Z" transform="translate(0 -1.99)"/><path class="cls-13" d="M1170.82,1590.91c-.9,3.89-2.1,7.79-3,11.68-4.49.9-9,2.1-13.48,3,0-1.5-.3-3.3-.3-4.8a22.8,22.8,0,0,0-3.3-2.39c-5.09-9.59-10.18-18.88-15.58-28.47a395.69,395.69,0,0,1,10.49-42.24,457.89,457.89,0,0,1,15.58-43.75,364.87,364.87,0,0,1,9.89,48.24C1175.61,1566.64,1172.62,1584,1170.82,1590.91Z" transform="translate(0 -1.99)"/><path class="cls-13" d="M1145.65,1508.21c1.5-17.67,7.19-47.63,29.36-72.8,2.7-3,8.39-9.29,24.27-21.27a372.87,372.87,0,0,1,76.7-44.05c15.58,19.48,31.16,39.25,46.44,58.73-13.78-.3-33.56,1.49-53.63,11.38-21,10.49-28.76,23.37-45.24,36.55C1208.57,1489,1184.3,1502.82,1145.65,1508.21Z" transform="translate(0 -1.99)"/><path class="cls-16" d="M1241.23,1461.17c-5.4,1.2-11.69,1.2-16.18-2.09-15-11.09-1.5-51.24,1.8-60.22,5.39-15.58,16.77-40.45,43.14-65.62-4.2,3.6-10.79,9.89-18.58,17.38-21.87,21-26.66,27.26-41.94,41-13.19,11.69-19.48,17.38-29.36,24-23.07,15-32.06,13.19-41.95,26.37-1.8,2.4-15,19.47-8.39,35.35a28.88,28.88,0,0,0,12.29,13.49,10.4,10.4,0,0,0-8.39.59,10.13,10.13,0,0,0-4.8,5.4,48.23,48.23,0,0,0-17.08-6c-5.69-.9-7.19,0-7.79.89-1.49,2.1.3,5.7,1.5,7.79,4.8,6.9,16.78,5.1,18.28,4.8-3,6.29-12.88,29.36-4.79,56.62,4.79,15.58,13.48,26.07,18.57,31.76.9,0,8.69-.9,13.78,5.1a16.06,16.06,0,0,1,3.3,7.79c4.49-.9,9-2.1,13.48-3a101.3,101.3,0,0,0,6.29-23.07c.9-7.49,1.2-15-1.79-36.85-1.2-9.89-3-22.77-6-37.75a166.89,166.89,0,0,0,74.61-43.75Z" transform="translate(0 -1.99)"/><path class="cls-17" d="M1699.33,2145.79h51.23a507.13,507.13,0,0,1-69.5-63.82c-36.86-41-69.51-91.08-101.27-139.62-22.47-34.46-28.77-46.14-46.44-60.22-23.67-18.88-52.43-29.36-79.7-39.85a425.29,425.29,0,0,0-44-14.38c-3.3,5.39-41.35,68-117.15,73.1-82.09,5.7-129.73-61.12-131.83-64.41-42.84,27-85.69,53.63-128.53,80.59a187.09,187.09,0,0,0-18.88,14.38c-7.49,6.6-16.78,14.68-25.16,27.87a103.51,103.51,0,0,0-12.89,29.06c-7.19,24-22.77,80.89-41.64,157" transform="translate(0 -1.99)"/><path class="cls-17" d="M944.31,2141H1646.9" transform="translate(0 -1.99)"/><path class="cls-18" d="M1346.39,1874.34a177,177,0,0,1-54.23,11.68,185.56,185.56,0,0,1-80.59-14.38c9,7.19,18,14.08,27,21.27a120.8,120.8,0,0,0,42.25,9,114.07,114.07,0,0,0,41-6.59C1329.91,1888.12,1338.3,1881.23,1346.39,1874.34Z" transform="translate(0 -1.99)"/><path class="cls-18" d="M1401.22,1825.5a125.5,125.5,0,0,1-37.45,39.25c-29.66,19.77-59.33,21.27-71.61,21.27,22.17,1.2,40.75,13.78,47,31.46a43.84,43.84,0,0,1,0,28.16c20.07-16.77,45.84-42.84,65.31-80.89a242.52,242.52,0,0,0,14.39-33.86C1413.2,1829.1,1407.21,1827.3,1401.22,1825.5Z" transform="translate(0 -1.99)"/><path class="cls-18" d="M1160.63,1836.89A186.8,186.8,0,0,0,1270.89,1886c-3.6,0-18,.9-28.76,12.29-11.39,11.68-14.39,30-7.79,46.74-21-14.39-49.74-39-70.11-77a242.24,242.24,0,0,1-11.69-26.07C1155.54,1840.18,1158.23,1838.38,1160.63,1836.89Z" transform="translate(0 -1.99)"/><path class="cls-19" d="M1246.92,1882.13c-2.7,1.2-15.88,6.59-21.57,20.67-5.7,13.78-2.1,30.26,9.29,42a229,229,0,0,1-62.32-64.42,222.52,222.52,0,0,1-19.48-38.65c2.7-1.5,5.09-3.3,7.79-4.79a174.21,174.21,0,0,0,34.46,25.16A180.6,180.6,0,0,0,1246.92,1882.13Z" transform="translate(0 -1.99)"/><path class="cls-20" d="M1389.23,2006.47c1.8,2.69,4.8,4.19,6.9,5.09a32.88,32.88,0,0,0,3.89,1.5c-1.5,5.09-3,8.39-3.3,9.88-.59,1.2-1.49,3-2.39,5.1,6,1.5,12,3,18,4.79q4-15.72,7.2-27c1.19.3,2.39.3,3.89.6,2.4,0,5.39.3,8.39-1.5,6-3.3,9-12,6.59-15a4.63,4.63,0,0,0-6.29-.3c-1.2.9-.3,2.39-1.5,4.79a10.74,10.74,0,0,1-3,3.6,8.51,8.51,0,0,1-6,.9c.9-3.6,2.1-6.3,3-9,.6-2.1,2.4-6.89.3-11.39a10.74,10.74,0,0,0-6.29-5.69,9.43,9.43,0,0,0-8.39,1.5c-4.2,3-5.1,8.39-6.29,14.68-.3,3-.3,3.29-.6,7.19a86.55,86.55,0,0,1-1.5,9.89c-1.8-.6-4.2-1.5-5.39-3.6a8,8,0,0,1-.9-4.49c0-2.7,1.19-3.3.9-4.8-.6-1.79-3.9-3.29-5.7-2.69C1386.84,1991.49,1385.34,2000.77,1389.23,2006.47Z" transform="translate(0 -1.99)"/><path class="cls-21" d="M1423.39,1977.1a21.36,21.36,0,0,1-.6,9.29c-.6,2.1-1.2,3.6-2.7,8.39,0,0-.3,1.2-.89,3-1.8,6.29-4.5,16.78-8.69,34.15" transform="translate(0 -1.99)"/><path class="cls-21" d="M1420.69,1975.31c.3,2.09-1.2,8.09-1.49,9.28-.3.9-1.8,6.3-2.4,8.69,0,0-.6,2.1-.9,3-.9,3-6.59,26.36-8.69,35" transform="translate(0 -1.99)"/><line class="cls-21" x1="1418.3" y1="1971.52" x2="1403.92" y2="2028.15"/><path class="cls-21" d="M1415,1973.81c-.6.9-2.1,5.69-2.7,7.49-1.19,3.29-3.29,14.68-4.19,19.77s-4.19,18-4.49,18.88c-.6,2.1-2.7,8.39-3.3,9.59" transform="translate(0 -1.99)"/><path class="cls-21" d="M1411.71,1974.11a46.12,46.12,0,0,0-3.6,6.89c-2.7,6.59-1.8,9.29-3.3,19.77a86,86,0,0,1-4.49,18.58,82,82,0,0,1-3.89,9.29" transform="translate(0 -1.99)"/><path class="cls-21" d="M1401.52,2007.66c-.3,0-6.29-2.09-7.49-8.09a8.92,8.92,0,0,1,.9-6.29" transform="translate(0 -1.99)"/><path class="cls-21" d="M1400.92,2010.36c-4.79-1.5-8.69-5.09-9.59-9.89a12.87,12.87,0,0,1,1.8-9.28" transform="translate(0 -1.99)"/><path class="cls-21" d="M1389.83,1991.49c-.3.89-2.69,6.29-.3,12a15.08,15.08,0,0,0,10.79,8.69" transform="translate(0 -1.99)"/><path class="cls-21" d="M1420.39,2000.47c.3,0,6.6.9,10.19-3.59a10.17,10.17,0,0,0,2.1-6" transform="translate(0 -1.99)"/><path class="cls-21" d="M1419.79,2002.87a13.24,13.24,0,0,0,13.19-4.19c3-3.6,3-8.09,2.69-9" transform="translate(0 -1.99)"/><path class="cls-21" d="M1438.37,1991.49a16.15,16.15,0,0,1-5.39,10.78,15,15,0,0,1-13.48,2.7" transform="translate(0 -1.99)"/><path class="cls-17" d="M1404.81,2027.14" transform="translate(0 -1.99)"/><path class="cls-20" d="M1433.88,2037.93c1.19-.6,6-3.3,7.49-8.69,1.79-6.3-.9-14.68-6-15.88-4.79-1.2-10.48,3.89-12.28,9.28-2.4,6.3.9,12,1.5,12.89A83.43,83.43,0,0,0,1433.88,2037.93Z" transform="translate(0 -1.99)"/><line class="cls-22" x1="1439.57" y1="2033.84" x2="1437.17" y2="2031.75"/><line class="cls-22" x1="1442.27" y1="2023.96" x2="1440.77" y2="2023.66"/><line class="cls-22" x1="1442.27" y1="2017.06" x2="1440.47" y2="2017.96"/><line class="cls-22" x1="1437.77" y1="2025.45" x2="1440.17" y2="2026.05"/><line class="cls-22" x1="1437.47" y1="2021.26" x2="1439.87" y2="2020.36"/><line class="cls-22" x1="1433.28" y1="2024.25" x2="1432.68" y2="2026.05"/><line class="cls-22" x1="1428.48" y1="2015.27" x2="1426.39" y2="2011.97"/><line class="cls-22" x1="1432.68" y1="2012.57" x2="1433.28" y2="2010.17"/><line class="cls-22" x1="1436.87" y1="2013.77" x2="1438.07" y2="2012.27"/><line class="cls-22" x1="1424.29" y1="2020.36" x2="1421.89" y2="2019.76"/><line class="cls-22" x1="1425.19" y1="2017.36" x2="1423.99" y2="2016.46"/><line class="cls-22" x1="1424.89" y1="2030.25" x2="1421.89" y2="2030.85"/><line class="cls-22" x1="1423.09" y1="2025.75" x2="1421.59" y2="2025.45"/><line class="cls-22" x1="1429.68" y1="2021.56" x2="1428.48" y2="2019.16"/><line class="cls-22" x1="1432.98" y1="2016.17" x2="1432.38" y2="2019.16"/><line class="cls-22" x1="1429.68" y1="2029.95" x2="1429.08" y2="2027.25"/><line class="cls-22" x1="1435.07" y1="2028.75" x2="1436.87" y2="2029.05"/><line class="cls-22" x1="1433.88" y1="2033.24" x2="1436.27" y2="2034.44"/><path class="cls-23" d="M1137.26,2074.18c-1.8,3.29-4.79,5.09-6.89,6.29a27.8,27.8,0,0,1-4.19,2.1,67.18,67.18,0,0,0,4.79,10.18,45.08,45.08,0,0,0,3.3,5.1c-6.3,2.39-12.59,4.49-18.58,6.89-3.9-10.79-7.49-20.38-10.49-27.87-1.2.3-2.69.6-4.19.9-2.4.3-5.69.9-9.29-.6-6.89-2.69-10.79-12-8.69-15.28,1.2-1.79,5.1-2.39,6.59-1.19,1.2.89.6,2.39,2.1,4.79a12,12,0,0,0,3.6,3.59,7.73,7.73,0,0,0,6.29.3c-1.5-3.59-2.7-6.59-3.9-9.28-.9-2.1-3-6.89-1.5-12.29a9.91,9.91,0,0,1,6.3-6.59,10.48,10.48,0,0,1,9,.6c4.79,2.7,6.29,8.39,8.08,15,.9,3,.6,3.6,1.5,7.49a78.11,78.11,0,0,0,2.4,10.49,8,8,0,0,0,5.39-4.5,12,12,0,0,0,.6-5.09c-.3-2.7-1.8-3.6-1.5-5.09a5.44,5.44,0,0,1,6-3.3C1138.16,2058,1140.56,2067.59,1137.26,2074.18Z" transform="translate(0 -1.99)"/><path class="cls-24" d="M1098,2046.31a19.91,19.91,0,0,0,1.5,9.59c.9,2.1,1.8,3.9,3.6,8.69,0,0,.6,1.5,1.19,3.3,2.7,6.59,6.6,17.67,12.89,35.65" transform="translate(0 -1.99)"/><path class="cls-24" d="M1100.41,2044.22c0,2.09,2.1,8.69,2.4,9.58s2.39,6.6,3.59,9c0,0,.9,2.4,1.2,3.3,1.2,3.29,9.89,27.26,12.88,36.25" transform="translate(0 -1.99)"/><line class="cls-24" x1="1103.11" y1="2039.83" x2="1123.78" y2="2099.16"/><path class="cls-24" d="M1106.4,2041.82c.6.9,3,6,3.6,7.49,1.79,3.3,5.09,15.28,6.59,20.67s6.29,18.88,6.89,19.78c.9,2.1,3.6,8.69,4.49,9.89" transform="translate(0 -1.99)"/><path class="cls-24" d="M1110,2041.82a33.91,33.91,0,0,1,4.49,7.19c3.6,6.59,3,9.89,5.69,20.67,2.7,11.09,5.7,17.68,6.6,19.48a88,88,0,0,0,5.09,9.59" transform="translate(0 -1.99)"/><path class="cls-24" d="M1124.38,2076.87c.3,0,6.59-3,7.19-9.28a11.11,11.11,0,0,0-1.5-6.59" transform="translate(0 -1.99)"/><path class="cls-24" d="M1125.28,2079.27a14.81,14.81,0,0,0,9.29-11.68c.59-5.1-2.1-8.69-2.7-9.89" transform="translate(0 -1.99)"/><path class="cls-24" d="M1135.16,2058.3a15.93,15.93,0,0,1,1.5,12.88c-2.39,7.79-9.88,10.19-10.48,10.49" transform="translate(0 -1.99)"/><path class="cls-24" d="M1103.41,2070.88c-.3,0-6.9,1.8-11.39-2.69a12.26,12.26,0,0,1-3-6" transform="translate(0 -1.99)"/><path class="cls-24" d="M1104.3,2073.28c-5.39,1.5-10.78.3-14.38-3.3a13.66,13.66,0,0,1-3.89-9.28" transform="translate(0 -1.99)"/><path class="cls-24" d="M1083.33,2063.09c.3.9,1.2,7.19,6.89,10.79,6.59,4.49,14.08,1.8,14.68,1.5" transform="translate(0 -1.99)"/><path class="cls-17" d="M1122.58,2098.15" transform="translate(0 -1.99)"/><path class="cls-23" d="M1092.92,2112.53a17.06,17.06,0,0,1-9-8.39c-2.7-6.59-.6-15.58,4.79-17.68,5.1-1.8,11.39,3.3,14.09,8.69a16.3,16.3,0,0,1-.3,13.78C1099.51,2110.13,1096.21,2111.33,1092.92,2112.53Z" transform="translate(0 -1.99)"/><line class="cls-25" x1="1086.33" y1="2108.75" x2="1088.72" y2="2106.05"/><line class="cls-25" x1="1082.73" y1="2098.56" x2="1084.23" y2="2097.96"/><line class="cls-25" x1="1081.83" y1="2090.77" x2="1083.93" y2="2091.97"/><line class="cls-25" x1="1087.53" y1="2099.46" x2="1085.13" y2="2100.36"/><line class="cls-25" x1="1087.53" y1="2095.26" x2="1084.53" y2="2094.36"/><line class="cls-25" x1="1092.32" y1="2097.66" x2="1092.92" y2="2099.76"/><line class="cls-25" x1="1096.21" y1="2087.47" x2="1098.31" y2="2083.88"/><line class="cls-25" x1="1091.72" y1="2085.38" x2="1090.52" y2="2082.68"/><line class="cls-25" x1="1087.23" y1="2086.87" x2="1085.73" y2="2085.67"/><line class="cls-25" x1="1101.31" y1="2092.57" x2="1104" y2="2091.67"/><line class="cls-25" x1="1100.11" y1="2089.87" x2="1101.31" y2="2088.37"/><line class="cls-25" x1="1101.91" y1="2103.35" x2="1105.2" y2="2103.65"/><line class="cls-25" x1="1103.41" y1="2098.56" x2="1104.6" y2="2097.96"/><line class="cls-25" x1="1095.92" y1="2094.66" x2="1096.81" y2="2091.97"/><line class="cls-25" x1="1091.72" y1="2089.27" x2="1092.62" y2="2092.27"/><line class="cls-25" x1="1096.51" y1="2103.35" x2="1097.11" y2="2100.66"/><line class="cls-25" x1="1090.82" y1="2102.75" x2="1089.02" y2="2103.35"/><line class="cls-25" x1="1092.62" y1="2107.55" x2="1090.22" y2="2109.04"/><path class="cls-26" d="M1505.78,1906.7a11.71,11.71,0,0,0,6.29.3c1.2-.3,2.1-.3,3-.6a30.56,30.56,0,0,1,1.8,7.49c.3.89.3,2.39.6,4.19,4.19-1.5,8.69-3,12.88-4.49-2.7-7.49-4.79-14.09-6.59-19.18.9-.3,1.8-.9,2.7-1.2a10.75,10.75,0,0,0,4.49-4.49c2.4-4.5.6-11.09-2.1-12a4.24,4.24,0,0,0-4.19,2.4c-.3,1.2.6,1.5.9,3.6a7,7,0,0,1-.3,3.29,6.4,6.4,0,0,1-3.3,3,37,37,0,0,1-1.8-6.59,12.15,12.15,0,0,0-4.49-7.19,7.72,7.72,0,0,0-6.29-.9,7,7,0,0,0-4.5,4.19c-1.49,3.6.3,7.19,2.4,11.39a45.18,45.18,0,0,0,2.7,4.49c1.2,2.4,2.39,4.5,3.29,6.59a5.38,5.38,0,0,1-4.79,0,7.91,7.91,0,0,1-2.4-2.39c-.9-1.5-.6-2.7-1.5-3.3a3.35,3.35,0,0,0-4.49.9C1498,1898.61,1501,1904.9,1505.78,1906.7Z" transform="translate(0 -1.99)"/><path class="cls-27" d="M1514.47,1874.94a15.72,15.72,0,0,1,3.6,5.69c.6,1.5.6,2.7,1.79,6.29,0,0,.3.9.6,2.1,1.5,4.49,4.2,12.28,8.69,24.57" transform="translate(0 -1.99)"/><path class="cls-27" d="M1512.07,1874.94a39.2,39.2,0,0,1,3,6.29c.3.6,1.5,4.49,2.1,6.29,0,0,.6,1.5.9,2.1.6,2.39,6.59,18.87,9,24.87" transform="translate(0 -1.99)"/><line class="cls-27" x1="1509.68" y1="1872.65" x2="1524.36" y2="1913.1"/><path class="cls-27" d="M1507.88,1876.14c0,.59,1.2,4.49,1.2,5.69a97,97,0,0,0,5.69,13.78c1.8,3.6,4.8,12.88,5.09,13.48.3,1.5,1.8,6.29,2.1,7.19" transform="translate(0 -1.99)"/><path class="cls-27" d="M1506.08,1877.63a52.89,52.89,0,0,0,.6,5.7c1.2,5.09,2.7,6.59,6,13.48a79.32,79.32,0,0,1,5.1,13.18,51.68,51.68,0,0,1,1.5,7.19" transform="translate(0 -1.99)"/><path class="cls-27" d="M1513.57,1902.5c-.3,0-4.79,1.2-7.79-1.8a8.92,8.92,0,0,1-2.09-4.19" transform="translate(0 -1.99)"/><path class="cls-27" d="M1514.47,1904.3a9.74,9.74,0,0,1-9.89-2.1,10,10,0,0,1-2.69-6.29" transform="translate(0 -1.99)"/><path class="cls-27" d="M1500.09,1897.41a10.84,10.84,0,0,0,15,8.39" transform="translate(0 -1.99)"/><path class="cls-27" d="M1522.26,1890.22c.3,0,4.5-2.1,4.8-6.29a5.83,5.83,0,0,0-1.2-4.5" transform="translate(0 -1.99)"/><path class="cls-27" d="M1522.86,1892a9.7,9.7,0,0,0,6.29-8.08,8.77,8.77,0,0,0-2.09-6.6" transform="translate(0 -1.99)"/><path class="cls-27" d="M1529.45,1877.63a11.93,11.93,0,0,1,1.2,8.69,10.39,10.39,0,0,1-7.19,7.19" transform="translate(0 -1.99)"/><path class="cls-17" d="M1523.76,1913" transform="translate(0 -1.99)"/><path class="cls-28" d="M1546.83,2123.61c2.1,1.8,4.79,2.1,6.59,2.4a14.61,14.61,0,0,0,3.6.3,31.07,31.07,0,0,1-.3,8.39,37.26,37.26,0,0,1-.6,4.49c5.09-.3,10.18-.6,15-.9-.6-8.68-.9-16.47-1.2-22.47a10.66,10.66,0,0,0,3-.6,14.14,14.14,0,0,0,6.29-3.29c3.89-3.9,3.89-11.69,1.5-13.18a4.17,4.17,0,0,0-5.1,1.19c-.6,1.2.3,1.8,0,3.9a8.41,8.41,0,0,1-1.5,3.59,5.76,5.76,0,0,1-4.49,2.1V2102c0-1.8,0-6-2.4-9a7.27,7.27,0,0,0-6.29-2.69,7.83,7.83,0,0,0-6.29,3.29c-2.7,3.3-1.8,7.79-1.2,12.89.3,2.39.6,2.69,1.2,5.69s1.2,5.69,1.5,8.09c-1.5,0-3.6,0-5.1-1.5a9,9,0,0,1-1.79-3.3c-.6-2.09,0-3-.6-3.89-.9-1.2-3.9-1.8-5.1-.6C1541.14,2112.53,1542.34,2120,1546.83,2123.61Z" transform="translate(0 -1.99)"/><path class="cls-29" d="M1565.71,2092.45a15.72,15.72,0,0,1,1.79,7.2v9.88c0,5.4.6,14.38,1.8,28.76" transform="translate(0 -1.99)"/><path class="cls-29" d="M1563.31,2091.56a38.35,38.35,0,0,1,1.2,7.49c0,.89.3,5.39.3,7.19v2.69c0,2.7,1.49,22.17,1.79,29.36" transform="translate(0 -1.99)"/><line class="cls-29" x1="1560.91" y1="2088.67" x2="1564.21" y2="2136.31"/><path class="cls-29" d="M1558.51,2091.86c-.3.59-.3,5.09-.3,6.29-.29,3,1.2,12.28,1.8,16.48s1.2,15,1.2,15.87v8.09" transform="translate(0 -1.99)"/><path class="cls-29" d="M1555.82,2092.75a28.49,28.49,0,0,0-.9,6.3c-.3,5.69.9,7.79,2.4,16.17a75.43,75.43,0,0,1,1.19,15.58,52.69,52.69,0,0,1-.59,8.09" transform="translate(0 -1.99)"/><path class="cls-29" d="M1556.42,2121.52c-.3,0-5.4,0-7.79-4.2a9,9,0,0,1-.9-5.09" transform="translate(0 -1.99)"/><path class="cls-29" d="M1556.72,2123.61c-4.2,0-8.09-1.79-9.89-5.39a11,11,0,0,1-.9-7.79" transform="translate(0 -1.99)"/><path class="cls-29" d="M1543.53,2111.93a12.74,12.74,0,0,0,2.7,9.29c3.9,4.79,9.89,4.19,10.49,4.19" transform="translate(0 -1.99)"/><path class="cls-29" d="M1569.3,2111c.3,0,5.39-.9,7.19-5.39.9-2.1.3-4.2.3-5.1" transform="translate(0 -1.99)"/><path class="cls-29" d="M1569.6,2113.13a10.19,10.19,0,0,0,9-6.59,10.86,10.86,0,0,0,0-7.79" transform="translate(0 -1.99)"/><path class="cls-29" d="M1581,2099.65a12.35,12.35,0,0,1-1.5,9.58,13.39,13.39,0,0,1-9.89,5.7" transform="translate(0 -1.99)"/><path class="cls-17" d="M1563.91,2135.9" transform="translate(0 -1.99)"/><path class="cls-28" d="M1589.07,2137.1c.9-.9,3.9-3.9,3.6-8.39,0-5.4-4.19-11.09-8.69-10.79-4.19.3-7.19,5.69-7.19,10.19-.3,5.39,3.6,9,4.2,9.59A79,79,0,0,1,1589.07,2137.1Z" transform="translate(0 -1.99)"/><line class="cls-30" x1="1593.27" y1="2131.82" x2="1590.57" y2="2130.92"/><line class="cls-30" x1="1592.67" y1="2123.73" x2="1591.47" y2="2123.73"/><line class="cls-30" x1="1591.17" y1="2118.03" x2="1589.97" y2="2119.23"/><line class="cls-30" x1="1589.67" y1="2125.82" x2="1591.47" y2="2125.52"/><line class="cls-30" x1="1588.48" y1="2122.53" x2="1589.97" y2="2121.33"/><line class="cls-30" x1="1585.78" y1="2125.82" x2="1585.78" y2="2127.62"/><line class="cls-30" x1="1579.79" y1="2120.13" x2="1577.39" y2="2118.03"/><line class="cls-30" x1="1582.48" y1="2117.13" x2="1582.48" y2="2115.04"/><line class="cls-30" x1="1586.08" y1="2116.83" x2="1586.68" y2="2115.64"/><line class="cls-30" x1="1577.99" y1="2125.22" x2="1575.89" y2="2125.22"/><line class="cls-30" x1="1577.69" y1="2122.83" x2="1576.49" y2="2122.23"/><line class="cls-30" x1="1580.69" y1="2132.71" x2="1578.59" y2="2133.91"/><line class="cls-30" x1="1578.29" y1="2129.72" x2="1577.09" y2="2129.72"/><line class="cls-30" x1="1582.18" y1="2124.92" x2="1580.99" y2="2123.13"/><line class="cls-30" x1="1583.68" y1="2119.83" x2="1583.98" y2="2122.23"/><line class="cls-30" x1="1584.58" y1="2131.22" x2="1583.38" y2="2129.42"/><line class="cls-30" x1="1588.18" y1="2129.12" x2="1589.67" y2="2128.82"/><line class="cls-30" x1="1588.48" y1="2132.71" x2="1590.57" y2="2133.31"/><path class="cls-31" d="M1230.14,2039.42c1.5-1.2,7.49-6,8.39-14.08.9-9.29-5.09-20.37-12.58-20.67-7.19-.3-13.49,8.39-14.68,16.18-1.5,9.29,4.49,16.48,5.39,17.67C1221.15,2039.12,1225.65,2039.12,1230.14,2039.42Z" transform="translate(0 -1.99)"/><line class="cls-32" x1="1237.93" y1="2032.94" x2="1234.04" y2="2030.55"/><line class="cls-32" x1="1238.83" y1="2018.56" x2="1236.73" y2="2018.26"/><line class="cls-32" x1="1237.33" y1="2008.38" x2="1234.93" y2="2010.47"/><line class="cls-32" x1="1233.14" y1="2021.56" x2="1236.43" y2="2021.56"/><line class="cls-32" x1="1231.64" y1="2015.87" x2="1234.93" y2="2013.77"/><line class="cls-32" x1="1226.55" y1="2020.96" x2="1226.25" y2="2023.96"/><line class="cls-32" x1="1217.56" y1="2009.57" x2="1213.96" y2="2005.68"/><line class="cls-32" x1="1222.65" y1="2005.08" x2="1222.95" y2="2001.18"/><line class="cls-32" x1="1228.64" y1="2005.38" x2="1230.14" y2="2003.28"/><line class="cls-32" x1="1213.06" y1="2017.96" x2="1209.17" y2="2017.66"/><line class="cls-32" x1="1213.36" y1="2013.77" x2="1211.27" y2="2012.57"/><line class="cls-32" x1="1216.36" y1="2031.75" x2="1212.16" y2="2033.54"/><line class="cls-32" x1="1212.76" y1="2026.05" x2="1210.67" y2="2025.75"/><line class="cls-32" x1="1220.55" y1="2018.26" x2="1218.46" y2="2015.27"/><line class="cls-32" x1="1224.15" y1="2009.87" x2="1223.85" y2="2014.37"/><line class="cls-32" x1="1222.95" y1="2029.95" x2="1221.45" y2="2026.35"/><line class="cls-32" x1="1230.14" y1="2026.95" x2="1232.54" y2="2026.95"/><line class="cls-32" x1="1229.84" y1="2033.54" x2="1233.44" y2="2034.74"/><path class="cls-26" d="M1298.75,2128.41c.9-1.2,3.6-1.8,4.5-.9.89.6.6,1.8,1.49,3.29a7.88,7.88,0,0,0,2.4,2.4,5.38,5.38,0,0,0,4.79,0c-.89-2.1-2.09-4.19-3.29-6.59a45.18,45.18,0,0,1-2.7-4.49c-2.09-4.2-3.59-7.79-2.39-11.39a6.9,6.9,0,0,1,4.49-4.19,7.75,7.75,0,0,1,6.29.89,12.22,12.22,0,0,1,4.5,7.2c.6,1.79,1.19,4.19,1.79,6.59a6.4,6.4,0,0,0,3.3-3,7,7,0,0,0,.3-3.29c-.3-1.8-1.2-2.4-.9-3.6.3-1.5,2.4-2.7,4.19-2.4,2.7.9,4.5,7.49,2.1,12a16,16,0,0,1-4.49,4.49,10.66,10.66,0,0,1-2.7,1.2c1.5,4.49,3.3,9.29,5.09,15.28-4.19,0-8.68.6-12.88.6-.3-.9-.6-2.1-.9-3.3a8.87,8.87,0,0,1-3,.6,11.49,11.49,0,0,1-6.3-.3C1300,2137.1,1297,2130.8,1298.75,2128.41Z" transform="translate(0 -1.99)"/><path class="cls-27" d="M1313.43,2107.14a15.72,15.72,0,0,1,3.6,5.69c.6,1.5.6,2.69,1.8,6.29,0,0,.3.9.6,2.1,2.09,6.89,4.49,13.48,6.89,19.77" transform="translate(0 -1.99)"/><path class="cls-27" d="M1311,2106.84a22.41,22.41,0,0,1,3,6c.6,1.8,1.2,3.29,2.1,6a5.22,5.22,0,0,0,.9,2.1l7.19,19.77" transform="translate(0 -1.99)"/><path class="cls-27" d="M1308.64,2106.84c4.19,11.38,8.39,22.77,12.28,34.15" transform="translate(0 -1.99)"/><path class="cls-27" d="M1306.84,2108.33c.3,1.5.9,3.6,1.5,5.7,1.5,4.79,3.3,8.09,5.69,14.08,1.5,3.89,3.6,8.09,5.1,13.48" transform="translate(0 -1.99)"/><path class="cls-27" d="M1305,2109.83a52.5,52.5,0,0,0,.6,5.69c1.2,5.1,2.7,6.6,6,13.49,1.49,3,3.89,6.89,5.09,13.18" transform="translate(0 -1.99)"/><path class="cls-27" d="M1312.53,2134.7c-.3,0-4.79,1.2-7.79-1.8a9.06,9.06,0,0,1-2.09-4.19" transform="translate(0 -1.99)"/><path class="cls-27" d="M1313.43,2136.5a9.72,9.72,0,0,1-9.88-2.1,9.92,9.92,0,0,1-2.7-6.29" transform="translate(0 -1.99)"/><path class="cls-27" d="M1299.05,2129.61a10.85,10.85,0,0,0,15,8.39" transform="translate(0 -1.99)"/><path class="cls-27" d="M1321.22,2122.42c.3,0,4.5-2.1,4.8-6.3a5.78,5.78,0,0,0-1.2-4.49" transform="translate(0 -1.99)"/><path class="cls-27" d="M1321.82,2124.21a9.7,9.7,0,0,0,6.29-8.09,8.72,8.72,0,0,0-2.09-6.59" transform="translate(0 -1.99)"/><path class="cls-27" d="M1328.41,2109.53a11.93,11.93,0,0,1,1.2,8.69,10.42,10.42,0,0,1-7.19,7.19" transform="translate(0 -1.99)"/><path class="cls-28" d="M1031.5,1928.57a13.26,13.26,0,0,0,4.79,5.09,15.89,15.89,0,0,0,3,1.8,85.43,85.43,0,0,1-4.2,7.49c-.59.9-1.49,2.1-2.69,3.89,4.49,2.1,9.29,4.2,13.78,6.3,3.6-8.09,6.59-15,9.29-20.68.9.3,1.8.6,3,.9,1.8.3,4.5.9,6.9,0,5.39-1.8,9-8.39,7.49-11.08a4.16,4.16,0,0,0-5.1-1.2c-.9.6-.6,1.79-1.8,3.59a6.69,6.69,0,0,1-3,2.4,8.63,8.63,0,0,1-4.8,0,43.37,43.37,0,0,1,3.6-6.59,13.12,13.12,0,0,0,1.8-9.29,7.78,7.78,0,0,0-4.2-5.39,9.13,9.13,0,0,0-6.89,0c-3.89,1.79-5.39,6-6.89,10.78-.9,2.1-.6,2.7-1.5,5.7s-1.5,5.39-2.39,7.78a6.52,6.52,0,0,1-3.9-3.59,9.74,9.74,0,0,1-.3-3.9c.3-2.09,1.5-2.69,1.2-3.89-.3-1.5-2.7-3.3-4.19-3C1031.8,1916.28,1029.1,1923.47,1031.5,1928.57Z" transform="translate(0 -1.99)"/><path class="cls-29" d="M1063,1909.69a18.49,18.49,0,0,1-1.5,7.19c-.6,1.5-1.5,2.7-3.3,6.29a14.83,14.83,0,0,0-1.19,2.4c-2.4,4.79-6,12.88-11.69,26.37" transform="translate(0 -1.99)"/><path class="cls-29" d="M1061.16,1907.89c0,1.8-2.1,6.3-2.4,7.19s-2.39,4.8-3,6.6l-1.2,2.39c-1.2,2.4-9,20.08-12,27" transform="translate(0 -1.99)"/><line class="cls-29" x1="1059.36" y1="1904.11" x2="1040.19" y2="1947.55"/><path class="cls-29" d="M1056.67,1905.8c-.6.6-2.4,4.49-3.3,5.39-1.5,2.4-4.79,11.38-6,15.28-1.2,4.19-6,14.08-6.29,14.68-.9,1.5-3.3,6.59-3.9,7.19" transform="translate(0 -1.99)"/><path class="cls-29" d="M1054,1905.5a52.82,52.82,0,0,0-3.9,5.09c-3,4.79-2.69,7.19-5.39,15.28a99.14,99.14,0,0,1-6,14.38,39.74,39.74,0,0,1-4.49,6.89" transform="translate(0 -1.99)"/><path class="cls-29" d="M1041.09,1931.26c-.3,0-4.8-2.69-4.8-7.49a7.42,7.42,0,0,1,1.5-4.79" transform="translate(0 -1.99)"/><path class="cls-29" d="M1040.49,1933.06a10.34,10.34,0,0,1-6.29-9.29,10.93,10.93,0,0,1,2.69-7.19" transform="translate(0 -1.99)"/><path class="cls-29" d="M1033.9,1916.58a12.92,12.92,0,0,0-1.8,9.59c1.5,6,6.89,8.39,7.49,8.69" transform="translate(0 -1.99)"/><path class="cls-29" d="M1057.57,1928c.29,0,5.09,1.8,8.68-1.5a6.63,6.63,0,0,0,2.4-4.49" transform="translate(0 -1.99)"/><path class="cls-29" d="M1056.67,1929.77a11.25,11.25,0,0,0,11.08-1.5c3-2.4,3.3-6,3.6-6.89" transform="translate(0 -1.99)"/><path class="cls-29" d="M1072.85,1923.17c-.3.9-1.2,5.4-5.7,7.79a12.94,12.94,0,0,1-11.38.3" transform="translate(0 -1.99)"/><path class="cls-17" d="M1041.09,1947.44" transform="translate(0 -1.99)"/><path class="cls-28" d="M1063,1960a11.82,11.82,0,0,0,7.19-6c2.4-4.79,1.5-12-2.7-13.48-3.89-1.5-9,1.8-11.08,5.69a12.77,12.77,0,0,0-.6,10.49A75.4,75.4,0,0,0,1063,1960Z" transform="translate(0 -1.99)"/><line class="cls-30" x1="1068.05" y1="1957.14" x2="1066.25" y2="1955.04"/><line class="cls-30" x1="1071.35" y1="1949.65" x2="1070.15" y2="1949.05"/><line class="cls-30" x1="1072.55" y1="1943.96" x2="1070.75" y2="1944.56"/><line class="cls-30" x1="1067.45" y1="1949.95" x2="1069.55" y2="1950.85"/><line class="cls-30" x1="1068.05" y1="1946.66" x2="1070.15" y2="1946.36"/><line class="cls-30" x1="1064.16" y1="1948.45" x2="1063.56" y2="1949.95"/><line class="cls-30" x1="1061.76" y1="1940.66" x2="1060.56" y2="1937.67"/><line class="cls-30" x1="1065.36" y1="1939.17" x2="1066.25" y2="1937.07"/><line class="cls-30" x1="1068.35" y1="1940.36" x2="1069.85" y2="1939.76"/><line class="cls-30" x1="1057.57" y1="1944.26" x2="1055.47" y2="1943.36"/><line class="cls-30" x1="1058.46" y1="1941.86" x2="1057.86" y2="1940.96"/><line class="cls-30" x1="1056.67" y1="1952.35" x2="1053.97" y2="1952.35"/><line class="cls-30" x1="1055.77" y1="1948.45" x2="1054.57" y2="1947.85"/><line class="cls-30" x1="1061.46" y1="1945.76" x2="1061.16" y2="1943.66"/><line class="cls-30" x1="1065.06" y1="1942.16" x2="1064.16" y2="1944.26"/><line class="cls-30" x1="1060.56" y1="1952.65" x2="1060.56" y2="1950.25"/><line class="cls-30" x1="1065.06" y1="1952.35" x2="1066.25" y2="1952.95"/><line class="cls-30" x1="1063.56" y1="1955.94" x2="1065.06" y2="1957.14"/><path class="cls-33" d="M955.1,2140.09a16.64,16.64,0,0,0,6.59-11.38c.9-7.49-3.9-16.48-10.19-16.78-5.69-.3-10.78,6.89-12,13.18-1.2,7.49,3.59,13.19,4.49,14.38C947.61,2139.79,951.2,2140.09,955.1,2140.09Z" transform="translate(0 -1.99)"/><line class="cls-34" x1="961.39" y1="2134.51" x2="957.79" y2="2132.41"/><line class="cls-34" x1="961.99" y1="2122.83" x2="960.19" y2="2122.83"/><line class="cls-34" x1="960.79" y1="2114.74" x2="958.99" y2="2116.53"/><line class="cls-34" x1="957.2" y1="2125.22" x2="960.19" y2="2125.22"/><line class="cls-34" x1="956" y1="2120.73" x2="958.69" y2="2118.93"/><line class="cls-34" x1="951.8" y1="2124.92" x2="951.8" y2="2127.32"/><line class="cls-34" x1="944.61" y1="2115.64" x2="941.62" y2="2112.34"/><line class="cls-34" x1="948.81" y1="2112.04" x2="949.11" y2="2108.75"/><line class="cls-34" x1="953.6" y1="2112.34" x2="955.1" y2="2110.54"/><line class="cls-34" x1="941.02" y1="2122.23" x2="938.02" y2="2122.23"/><line class="cls-34" x1="941.32" y1="2118.93" x2="939.82" y2="2118.03"/><line class="cls-34" x1="943.71" y1="2133.61" x2="940.42" y2="2134.81"/><line class="cls-34" x1="940.72" y1="2128.82" x2="939.22" y2="2128.82"/><line class="cls-34" x1="947.31" y1="2122.83" x2="945.51" y2="2120.13"/><line class="cls-34" x1="950" y1="2115.94" x2="950" y2="2119.23"/><line class="cls-34" x1="949.11" y1="2132.11" x2="947.91" y2="2129.12"/><line class="cls-34" x1="954.8" y1="2129.72" x2="956.9" y2="2129.72"/><line class="cls-34" x1="954.5" y1="2134.81" x2="957.5" y2="2136.01"/><line class="cls-35" x1="1335.9" y1="2138.71" x2="1303.85" y2="2138.71"/><path class="cls-36" d="M975.47,1989.69a110.4,110.4,0,0,1,12.89-29.06c8.38-13.19,17.67-21.58,25.16-27.87a163.2,163.2,0,0,1,18.88-14.38c18.27-12,62.32-39.85,121.64-76.1a227.46,227.46,0,0,0,16.18,34.15,203.47,203.47,0,0,0,42.84,50.94c-3.29,4.19-7.19,9.89-11.38,16.48,0,0-9.59,15-17.68,30.86-4.49,9-19.77,39.25-25.17,73.7-6.29,40.75,1.8,76.4,9.89,99.77l-235.19-1.8c6-22.17,10.48-40.14,13.48-52.43C948.81,2086.76,961.09,2036.73,975.47,1989.69Z" transform="translate(0 -1.99)"/><path class="cls-6" d="M1531,2145.79c-6.59-9-13.48-13.19-16.78-11.39s-2.1,9.59-1.8,11.39Z" transform="translate(0 -1.99)"/><path class="cls-14" d="M1553.42,2211.7c-15.58-.3-23.67-.6-33-3.6-20.67-6.59-30.26-19.17-44.34-15-1.5.6-7.19,2.1-10.48,7.19-6.6,9.59-.3,23.67.59,25.77-9.58.9-26.36,3.9-41.64,15.88-4.5,3.6-28.46,22.17-24.27,41.35a22.47,22.47,0,0,0,4.49,9.28,22.88,22.88,0,0,0,12.89,6.9c12.28,1.79,27-9.59,35.65-28.77a36.65,36.65,0,0,0,.9,21.87,36.11,36.11,0,0,0,9.29,13.79,55.2,55.2,0,0,0,0,15.88c2.39,16.47,11.68,27.26,16.48,32.65,8.09,9,14.68,15.88,23.67,15.58,10.48-.3,20.37-10.18,25.46-24.27,3.6,1.5,17.68,7.49,34.46,2.4,20.07-6,28.46-22.77,30-25.47a63.61,63.61,0,0,1,16.18-1.49,77.7,77.7,0,0,1,21.57,3.29c5.69-2.1,11.39-3.89,17.08-6a215.81,215.81,0,0,0,5.69-62.92c-1.5-24,.9-37.15-8.09-46.44-5.69-5.69-12.88-8.09-18-9.29C1595.37,2210.8,1569.3,2212.3,1553.42,2211.7Z" transform="translate(0 -1.99)"/><path class="cls-17" d="M1962.69,2084.07c-69.21,12.28-109.66,60.82-121.34,75.8a16.65,16.65,0,0,1-1.2,6.29,21.07,21.07,0,0,1-4.5,7.19,21.39,21.39,0,0,1-3.29,2.7,36,36,0,0,1,7.79,1.49,34.27,34.27,0,0,1,11.38,6,32.84,32.84,0,0,1,3,2.39c13.78,16.78,27.56,33.86,41.35,50.64,21.87-16.48,43.44-33,65.31-49.44a13.63,13.63,0,0,1-1.2-6.59,11.85,11.85,0,0,1,5.4-7.49c1.19-.6,7.49-5.09,12-1.8,3,2.1,4.19,6.89,2.4,11.39a10.39,10.39,0,0,1-1.8,2.69c-5.39,5.7-16.18,1.8-16.78,1.5l-118.64,4.5q-107.86,4-215.42,8.09c6.29,13.48,16.77,40.14,15,74.3a163.87,163.87,0,0,1-11.09,49.73c29.66.3,240,2.4,370-16.77,32.66-4.8,75.8-13.79,99.47-48.84,28.76-42.84,22.17-117.15-22.77-154.6C2037.89,2070.58,1986.06,2079.87,1962.69,2084.07Z" transform="translate(0 -1.99)"/><path class="cls-37" d="M1960.89,2187.73a13.16,13.16,0,0,1,4.2-14.08c5.09-4.2,11.68-2.1,12-1.8a41.22,41.22,0,0,0-17.08-7.19c-9-1.5-15.28.6-30.86,4.79-17.37,4.5-26.06,6.9-29.66,6.6-2.1,0-26.36-.6-39.25-19.18a36.68,36.68,0,0,1-5.69-12.58c-4.49,5.09-8.69,10.18-13.18,15.28a21.33,21.33,0,0,1-2.1,8.09,23.53,23.53,0,0,1-6.89,8.39,37.24,37.24,0,0,1,14.08,4.49,47.1,47.1,0,0,1,8.09,5.69c.6.9,1.2,2.1,1.8,3C1891.08,2188.93,1926.14,2188.33,1960.89,2187.73Z" transform="translate(0 -1.99)"/><path class="cls-20" d="M1717.61,2301.58a15.17,15.17,0,0,1-6.29-6,22.74,22.74,0,0,1-2.1-3.59,69.54,69.54,0,0,0-9,5.09,27.54,27.54,0,0,0-4.49,3.29c-2.7-5.69-5.1-11.38-7.79-16.77q14.82-6.75,25.16-11.69c-.3-1.2-.89-2.4-1.19-3.59a14.18,14.18,0,0,1,0-8.69c2.09-6.59,10.48-11.09,13.78-9,1.8,1.2,2.69,4.49,1.5,6.29-.9,1.2-2.1.9-4.2,2.4a10,10,0,0,0-3,3.59,7,7,0,0,0,.3,6,68.69,68.69,0,0,0,8.39-4.49c1.8-.9,6.3-3.29,11.39-2.4a9.65,9.65,0,0,1,6.59,5.1,10.23,10.23,0,0,1,0,8.39c-2.1,4.79-7.49,6.59-13.48,8.69-2.7.89-3.3.89-6.89,1.79s-6.59,2.1-9.59,3a10,10,0,0,0,4.49,4.79,14.66,14.66,0,0,0,4.8.3c2.69-.6,3.29-1.8,4.49-1.5,2.1.3,3.9,3,3.6,5.4C1732.59,2301.28,1723.9,2304.58,1717.61,2301.58Z" transform="translate(0 -1.99)"/><path class="cls-21" d="M1740.38,2263.23a20.78,20.78,0,0,0-9,2.1c-1.8.9-3.3,2.1-7.79,4.19l-3,1.5c-5.69,3-15.88,7.49-32,14.38" transform="translate(0 -1.99)"/><path class="cls-21" d="M1742.78,2265.33c-2.1,0-7.79,2.4-9,3a89.62,89.62,0,0,0-8.09,3.89s-2.1.9-3,1.2c-3,1.5-24.57,11.08-33,14.68" transform="translate(0 -1.99)"/><line class="cls-21" x1="1745.17" y1="2265.44" x2="1691.54" y2="2289.11"/><path class="cls-21" d="M1745.47,2270.72c-.6.6-5.39,3-6.89,3.9-3,1.8-13.78,6-18.87,7.49-5.1,1.8-17.08,7.49-18,7.79-1.8.9-7.79,4.19-9,4.79" transform="translate(0 -1.99)"/><path class="cls-21" d="M1745.77,2274c-1.5,1.2-3.59,3-6.29,4.79-6,3.6-9,3.3-18.88,6.59a103.23,103.23,0,0,0-17.67,7.49,69.4,69.4,0,0,0-8.39,5.4" transform="translate(0 -1.99)"/><path class="cls-21" d="M1714.31,2289.9c0,.3,3.3,6,9,6a10.77,10.77,0,0,0,6-1.8" transform="translate(0 -1.99)"/><path class="cls-21" d="M1711.92,2290.8a13.66,13.66,0,0,0,11.38,7.79,15.3,15.3,0,0,0,9-3.3" transform="translate(0 -1.99)"/><path class="cls-21" d="M1732,2298.59a16.21,16.21,0,0,1-11.69,2.39c-7.49-1.79-10.18-8.39-10.48-9" transform="translate(0 -1.99)"/><path class="cls-21" d="M1718.21,2269.82c0-.3-2.1-6.29,1.79-10.78a8.94,8.94,0,0,1,5.4-3" transform="translate(0 -1.99)"/><path class="cls-21" d="M1715.81,2271c-1.8-4.79-1.2-10.18,1.8-13.78a11.87,11.87,0,0,1,8.39-4.19" transform="translate(0 -1.99)"/><path class="cls-21" d="M1723.9,2251c-.9.3-6.59,1.5-9.59,7.19-3.59,6.59-.6,13.18-.3,13.78" transform="translate(0 -1.99)"/><path class="cls-17" d="M1694.24,2289.9" transform="translate(0 -1.99)"/><path class="cls-20" d="M1678.66,2263.23a14.44,14.44,0,0,1,7.19-9c5.69-3,14.68-1.79,16.78,3.3,2.09,4.49-2.1,11.09-6.89,13.78-5.7,3.3-12,1.2-12.89.9C1681.35,2269.22,1680.16,2266.23,1678.66,2263.23Z" transform="translate(0 -1.99)"/><line class="cls-22" x1="1679.86" y1="2254.96" x2="1682.55" y2="2257.05"/><line class="cls-22" x1="1689.14" y1="2251.06" x2="1689.74" y2="2252.26"/><line class="cls-22" x1="1696.04" y1="2249.56" x2="1695.14" y2="2251.66"/><line class="cls-22" x1="1688.55" y1="2255.55" x2="1687.65" y2="2253.16"/><line class="cls-22" x1="1692.44" y1="2254.96" x2="1693.04" y2="2252.56"/><line class="cls-22" x1="1690.34" y1="2259.75" x2="1688.55" y2="2260.65"/><line class="cls-22" x1="1700.23" y1="2262.74" x2="1703.83" y2="2264.24"/><line class="cls-22" x1="1702.03" y1="2258.25" x2="1704.42" y2="2257.05"/><line class="cls-22" x1="1700.23" y1="2254.36" x2="1701.43" y2="2252.86"/><line class="cls-22" x1="1695.74" y1="2267.84" x2="1696.93" y2="2270.24"/><line class="cls-22" x1="1698.43" y1="2266.64" x2="1699.93" y2="2267.54"/><line class="cls-22" x1="1685.85" y1="2269.04" x2="1685.85" y2="2272.33"/><line class="cls-22" x1="1690.64" y1="2269.94" x2="1691.24" y2="2271.43"/><line class="cls-22" x1="1693.64" y1="2263.04" x2="1696.34" y2="2263.64"/><line class="cls-22" x1="1698.43" y1="2258.55" x2="1695.74" y2="2259.75"/><line class="cls-22" x1="1685.55" y1="2264.24" x2="1688.25" y2="2264.24"/><line class="cls-22" x1="1685.85" y1="2258.85" x2="1684.95" y2="2257.05"/><line class="cls-22" x1="1681.35" y1="2260.65" x2="1679.86" y2="2258.55"/><path class="cls-31" d="M1852.13,2225.48a20.63,20.63,0,0,0,13.79-8.39c5.09-7.79,5.09-20.07-1.5-24.27-6-3.59-15.88,1.2-20.68,7.49-5.69,7.49-3.89,16.48-3.59,18C1844,2220.69,1848.24,2223.08,1852.13,2225.48Z" transform="translate(0 -1.99)"/><line class="cls-32" x1="1861.12" y1="2223.2" x2="1858.42" y2="2219"/><line class="cls-32" x1="1868.61" y1="2210.61" x2="1866.81" y2="2209.41"/><line class="cls-32" x1="1871.91" y1="2201.03" x2="1868.91" y2="2201.92"/><line class="cls-32" x1="1862.02" y1="2210.61" x2="1865.02" y2="2212.41"/><line class="cls-32" x1="1863.52" y1="2204.92" x2="1867.11" y2="2204.62"/><line class="cls-32" x1="1856.33" y1="2207.02" x2="1854.83" y2="2209.41"/><line class="cls-32" x1="1853.93" y1="2192.94" x2="1852.43" y2="2187.54"/><line class="cls-32" x1="1860.52" y1="2191.14" x2="1862.62" y2="2188.14"/><line class="cls-32" x1="1865.62" y1="2194.43" x2="1868.01" y2="2192.94"/><line class="cls-32" x1="1846.14" y1="2198.03" x2="1842.85" y2="2196.23"/><line class="cls-32" x1="1848.24" y1="2194.43" x2="1847.04" y2="2192.34"/><line class="cls-32" x1="1842.55" y1="2211.81" x2="1838.05" y2="2211.51"/><line class="cls-32" x1="1841.95" y1="2204.92" x2="1840.15" y2="2204.02"/><line class="cls-32" x1="1852.43" y1="2201.92" x2="1852.13" y2="2198.33"/><line class="cls-32" x1="1859.62" y1="2196.23" x2="1857.23" y2="2199.83"/><line class="cls-32" x1="1849.14" y1="2213.31" x2="1849.44" y2="2209.71"/><line class="cls-32" x1="1856.93" y1="2213.91" x2="1859.02" y2="2215.41"/><line class="cls-32" x1="1853.33" y1="2219.6" x2="1856.03" y2="2222.3"/><path class="cls-26" d="M2027.71,2233.27a10.67,10.67,0,0,0,4.49,4.5,12.52,12.52,0,0,0,2.7,1.49,26.57,26.57,0,0,1-3.6,6.6,18.13,18.13,0,0,1-2.4,3.29l12.59,5.39c3.29-7.19,6-13.48,8.39-18.57l2.69.9c1.5.3,3.9.9,6.29,0,4.8-1.5,8.09-7.79,6.6-10.19a3.36,3.36,0,0,0-4.5-.9c-.9.6-.6,1.5-1.8,3.3a11.71,11.71,0,0,1-2.69,2.39,7.67,7.67,0,0,1-4.5,0c1.2-2.39,2.1-4.49,3-6,.6-1.5,2.4-4.79,1.5-8.39a7.85,7.85,0,0,0-3.9-4.79,7.66,7.66,0,0,0-6.29,0c-3.29,1.5-4.79,5.39-6,9.89-.6,2.09-.6,2.39-1.2,5.09s-1.5,5.09-2.1,7.19a5.61,5.61,0,0,1-3.59-3.3,7,7,0,0,1-.3-3.29c.3-1.8,1.2-2.4,1.2-3.3a3.86,3.86,0,0,0-3.9-2.69C2027.71,2222.19,2025.61,2228.78,2027.71,2233.27Z" transform="translate(0 -1.99)"/><path class="cls-27" d="M2055.87,2215.89a12.61,12.61,0,0,1-1.5,6.6c-.6,1.49-1.5,2.39-3,5.69a18.69,18.69,0,0,1-.89,2.1c-2.1,4.19-5.4,11.68-10.19,24" transform="translate(0 -1.99)"/><path class="cls-27" d="M2054.07,2214.4c0,1.49-1.8,5.69-2.1,6.59a64.71,64.71,0,0,0-2.69,6s-.6,1.5-.9,2.1c-.9,2.09-7.79,18.27-10.49,24.27" transform="translate(0 -1.99)"/><line class="cls-27" x1="2052.57" y1="2210.61" x2="2035.79" y2="2250.16"/><path class="cls-27" d="M2050.18,2212.3a39.22,39.22,0,0,0-2.7,5.09c-1.2,2.1-4.2,10.19-5.39,14.08-1.2,3.6-5.1,12.59-5.4,13.19l-3.29,6.59" transform="translate(0 -1.99)"/><path class="cls-27" d="M2047.78,2212.3a25.85,25.85,0,0,0-3.3,4.79c-2.69,4.5-2.39,6.59-4.79,13.78a84,84,0,0,1-5.39,13.19,48.45,48.45,0,0,1-3.9,6.29" transform="translate(0 -1.99)"/><path class="cls-27" d="M2036.39,2235.67c-.3,0-4.49-2.4-4.49-6.59a10.31,10.31,0,0,1,1.2-4.5" transform="translate(0 -1.99)"/><path class="cls-27" d="M2035.79,2237.47a10.39,10.39,0,0,1-6-8.39,8.51,8.51,0,0,1,2.4-6.59" transform="translate(0 -1.99)"/><path class="cls-27" d="M2029.8,2222.49a11.48,11.48,0,0,0-1.5,8.68c1.2,5.4,6.3,7.49,6.9,7.79" transform="translate(0 -1.99)"/><path class="cls-27" d="M2051.07,2232.37c.3,0,4.8,1.5,7.79-1.5a6.77,6.77,0,0,0,2.1-4.19" transform="translate(0 -1.99)"/><path class="cls-27" d="M2050.18,2234.17a11,11,0,0,0,10.18-1.5,8.75,8.75,0,0,0,3-6.29" transform="translate(0 -1.99)"/><path class="cls-27" d="M2065.16,2228.18c-.3.6-1.2,4.79-5.1,7.19-4.79,2.7-9.58.6-10.18.6" transform="translate(0 -1.99)"/><path class="cls-17" d="M2036.69,2250.35" transform="translate(0 -1.99)"/><path class="cls-38" d="M1974.67,2124.21c1.2-2.09.9-4.19.9-5.69a7.45,7.45,0,0,0-.3-2.7,46.89,46.89,0,0,1,6.89-.89h3.9c-.9-3.9-1.8-8.09-2.7-12-6.89,1.5-12.88,2.7-18,3.9-.3-.9-.6-1.5-.9-2.4a9.25,9.25,0,0,0-3.3-4.5c-3.59-2.69-9.89-1.79-10.78.6-.6,1.2.3,3.3,1.79,3.9.9.3,1.5-.3,3.3-.6a8,8,0,0,1,3,.6c1.2.6,1.8,2.1,2.4,3.29-2.4.3-4.49.9-6,.9-1.5.3-4.79.6-6.89,3.3a7.12,7.12,0,0,0-1.5,5.39,6.28,6.28,0,0,0,3.3,4.5c3,1.49,6.59.6,10.48-.9,1.8-.6,2.1-.9,4.5-1.8a51,51,0,0,1,6.29-2.1,5.27,5.27,0,0,1-.6,4.2,6.24,6.24,0,0,1-2.4,1.79c-1.5.6-2.39.3-3,.9a3.21,3.21,0,0,0,.3,4.2C1966.58,2129.91,1972.28,2128.11,1974.67,2124.21Z" transform="translate(0 -1.99)"/><path class="cls-39" d="M1947.41,2113.13a15.6,15.6,0,0,1,5.39-2.4c1.2-.3,2.7-.3,5.7-.9a7.21,7.21,0,0,1,2.09-.3c4.2-.9,11.39-2.39,22.77-5.09" transform="translate(0 -1.99)"/><path class="cls-39" d="M1946.81,2115.22c1.2-.89,5.09-1.79,5.69-1.79s4.2-.9,5.7-1.2a16.67,16.67,0,0,1,2.09-.3c2.1-.3,17.38-3.9,23.07-5.39" transform="translate(0 -1.99)"/><line class="cls-39" x1="1946.51" y1="2115.04" x2="1983.96" y2="2106.35"/><path class="cls-39" d="M1947.71,2119.12c.6,0,4.19-.6,5.09-.6a96.64,96.64,0,0,0,12.89-3.59,99.84,99.84,0,0,1,12.58-3c1.5-.3,5.69-.9,6.59-.9" transform="translate(0 -1.99)"/><path class="cls-39" d="M1948.91,2120.92a28.34,28.34,0,0,0,5.09,0c4.5-.3,6-1.8,12.58-3.9a102.32,102.32,0,0,1,12.29-3c2.7-.3,5.09-.6,6.59-.6" transform="translate(0 -1.99)"/><path class="cls-39" d="M1971.68,2116.72c0,.3.6,4.5-2.4,6.59-1.5,1.2-3.29,1.2-3.89,1.5" transform="translate(0 -1.99)"/><path class="cls-39" d="M1973.18,2116.12a9.32,9.32,0,0,1-3,8.69,8.38,8.38,0,0,1-6,1.8" transform="translate(0 -1.99)"/><path class="cls-39" d="M1965.69,2128.41a10.14,10.14,0,0,0,7.19-3.6c3.29-3.89,2.09-8.39,2.09-9" transform="translate(0 -1.99)"/><path class="cls-39" d="M1961.79,2107.73c0-.3-1.5-4.19-5.09-5.09a7.71,7.71,0,0,0-4.2.6" transform="translate(0 -1.99)"/><path class="cls-39" d="M1963.29,2107.43a8.43,8.43,0,0,0-6.29-6.29,8.6,8.6,0,0,0-6.29,1.2" transform="translate(0 -1.99)"/><path class="cls-39" d="M1951.3,2099.94a9.38,9.38,0,0,1,7.79,0,10.28,10.28,0,0,1,5.7,7.2" transform="translate(0 -1.99)"/><path class="cls-17" d="M1982.16,2108.93" transform="translate(0 -1.99)"/><path class="cls-38" d="M1979.77,2088.86a9.9,9.9,0,0,0-7.19-1.8c-4.2.6-8.39,4.8-7.49,8.39.9,3.3,5.39,4.79,9,4.49,4.5-.59,6.6-4.19,7.2-4.79C1980.67,2092.75,1980.37,2090.66,1979.77,2088.86Z" transform="translate(0 -1.99)"/><line class="cls-40" x1="1976.77" y1="2083.88" x2="1976.17" y2="2085.97"/><line class="cls-40" x1="1970.18" y1="2085.38" x2="1970.48" y2="2086.27"/><line class="cls-40" x1="1965.99" y1="2087.47" x2="1967.18" y2="2088.07"/><line class="cls-40" x1="1972.28" y1="2087.47" x2="1971.98" y2="2085.97"/><line class="cls-40" x1="1970.18" y1="2088.97" x2="1968.68" y2="2087.77"/><line class="cls-40" x1="1972.88" y1="2090.47" x2="1974.37" y2="2090.17"/><line class="cls-40" x1="1968.98" y1="2095.86" x2="1967.78" y2="2098.26"/><line class="cls-40" x1="1966.28" y1="2094.36" x2="1964.79" y2="2094.66"/><line class="cls-40" x1="1965.69" y1="2091.67" x2="1964.49" y2="2091.07"/><line class="cls-40" x1="1973.48" y1="2096.76" x2="1973.78" y2="2098.56"/><line class="cls-40" x1="1971.38" y1="2097.36" x2="1971.08" y2="2098.26"/><line class="cls-40" x1="1979.17" y1="2093.76" x2="1980.37" y2="2095.26"/><line class="cls-40" x1="1977.07" y1="2096.16" x2="1977.07" y2="2097.06"/><line class="cls-40" x1="1972.58" y1="2093.46" x2="1971.38" y2="2094.96"/><line class="cls-40" x1="1968.38" y1="2093.17" x2="1970.18" y2="2092.57"/><line class="cls-40" x1="1977.37" y1="2091.07" x2="1976.17" y2="2091.97"/><line class="cls-40" x1="1975.27" y1="2088.07" x2="1974.97" y2="2086.87"/><line class="cls-40" x1="1977.97" y1="2087.47" x2="1978.27" y2="2085.67"/><path class="cls-36" d="M2116.69,2182.34c-4.2,18.87-13.18,45.84-35.05,68-41.65,42.24-103.07,39.85-182.77,39.55-58.42-.3-146.21,0-259.16,4.79q-1.8,8.08-4.5,17.08c-1.49,4.79-3,9-4.49,13.18,48.54.9,234.3,3.6,370-17.38,30.26-4.79,74.6-13.18,99.47-48.83C2118.19,2231.77,2118.49,2201.21,2116.69,2182.34Z" transform="translate(0 -1.99)"/><path class="cls-41" d="M1639.41,2294.39c-12.88.9-30.26,4.2-47,15.28-2.7,1.8-5.09,3.6-7.49,5.4a62.65,62.65,0,0,1-30,23.66,61.22,61.22,0,0,1-38.35,1.2c1.8,1.5,21.87,16.18,46.14,8.69,19.77-6,28.46-22.47,30-25.47a63.61,63.61,0,0,1,16.18-1.49,77.7,77.7,0,0,1,21.57,3.29c1.5-4.19,3-8.39,4.5-13.18A167.84,167.84,0,0,0,1639.41,2294.39Z" transform="translate(0 -1.99)"/><path class="cls-36" d="M1597.76,2148.48c-12-10.78-25.46-21.87-40.44-33-14.09-10.48-27.87-19.47-40.45-27.26.3,6.89.3,14.38,0,22.17-.3,7.19-.9,14.08-1.8,20.37,7.19,5.4,14.68,10.79,21.87,16.48C1557,2147.58,1577.39,2147.88,1597.76,2148.48Z" transform="translate(0 -1.99)"/><path class="cls-12" d="M1628.32,2198.52c-34.75,7.79-61.42,11.08-73.4,11.68a108.55,108.55,0,0,1-28.46-2.4,24.15,24.15,0,0,1-4.5-1.19c-20.67-6.6-30.26-19.18-44.34-15-1.5.59-7.19,2.09-10.49,7.19-6.59,9.58-.3,23.67.6,25.76-9.59.9-26.36,3.9-41.64,15.88-12.89,9.89-27.27,27.87-24.27,41.35a24.09,24.09,0,0,0,4.49,9.29,21.23,21.23,0,0,0,12.89,6.89c12.28,1.79,27-9.59,35.65-28.77a36.68,36.68,0,0,0,.9,21.88,36,36,0,0,0,9.29,13.78,55.21,55.21,0,0,0,0,15.88c2.39,16.48,11.68,27.26,16.47,32.66,7.79,8.68,14.69,16.17,23.67,15.58,7.79-.6,13.79-6.9,16.78-10.19a38,38,0,0,0,8.69-14.08c3.6,1.49,17.68,7.49,34.46,2.39,20.07-6,28.46-22.77,30-25.46a82.46,82.46,0,0,1,16.18-1.5,84.71,84.71,0,0,1,21.57,2.69" transform="translate(0 -1.99)"/><path class="cls-12" d="M1467.43,2224.28a44.65,44.65,0,0,1,12.29.6,33,33,0,0,1,8.69,2.7" transform="translate(0 -1.99)"/><path class="cls-12" d="M1454.25,2268.93a13.85,13.85,0,0,1,2.1-3,11.69,11.69,0,0,1,6.89-3.6" transform="translate(0 -1.99)"/><path class="cls-12" d="M1476.12,2297.39a9.87,9.87,0,0,0-9.59,1.5,7.92,7.92,0,0,0-2.39,5.39" transform="translate(0 -1.99)"/><line class="cls-12" x1="1529.75" y1="2342.44" x2="1492" y2="2329.86"/><path class="cls-12" d="M1962.39,2185.93a13.63,13.63,0,0,1-1.2-6.59c1.5-7.19,12.29-12.58,17.38-9.29,3.29,2.1,4.49,7.79,2.4,11.39-3.6,6-15.28,4.79-18.58,4.49-19.18-1.5-145,3.6-334.07,12.59,6.3,13.48,16.78,40.14,15,74.3a163.75,163.75,0,0,1-11.08,49.74c29.66.29,240,2.39,370-16.78,32.66-4.8,75.8-13.78,99.47-48.84,28.76-42.84,22.17-117.15-22.77-154.6-39.55-33.26-91.38-23.67-114.75-19.47-73.11,13.18-115,66.81-126.14,82.09" transform="translate(0 -1.99)"/><path class="cls-42" d="M933.83,2144.29c18.87-76.1,34.45-133,41.64-157a113,113,0,0,1,12.89-29.06c8.38-13.18,17.67-21.57,25.16-27.87A210.07,210.07,0,0,1,1032.4,1916c18.57-12.28,65.61-41.94,128.53-80.59" transform="translate(0 -1.99)"/><path class="cls-42" d="M1091.42,2043a199.7,199.7,0,0,0-17.08,62,192.76,192.76,0,0,0,0,41.64" transform="translate(0 -1.99)"/><path class="cls-42" d="M1137.26,1591.51a80.37,80.37,0,0,1-20.37-38.06,90.26,90.26,0,0,1,.3-31.16,79.71,79.71,0,0,1,6.29-19.17c-1.5.3-13.48,1.8-18.28-4.79-1.49-1.8-3-5.7-1.49-7.79.59-.9,2.09-1.8,7.79-.9a48.46,48.46,0,0,1,17.07,6,13.26,13.26,0,0,1,4.8-5.39,1,1,0,0,1,.6-.3,10.1,10.1,0,0,1,7.79-.3,21.39,21.39,0,0,1-9.59-7.49c-1.2-1.8-3.3-5.7-3.3-12.89a51.39,51.39,0,0,1,9-28.16c9.59-12.58,19.48-11.09,42-26.37,6.59-4.19,10.78-8.08,19.77-15.58,35.06-29.66,52.43-52.43,70.41-66.81,27.86-22.47,82.09-45.24,127.33-23.67,27.27,13.19,51.24,42.55,53.93,78.8,2.7,39-21,77.6-59.92,96.47a111.52,111.52,0,0,1,5.39,29.37,156.34,156.34,0,0,1-.89,21.57" transform="translate(0 -1.99)"/><path class="cls-42" d="M1160.63,1835.39a208.66,208.66,0,0,0,12.88-61.42c1.2-23.67-2.69-37.75-15.28-117.75-1.49-10.49-3-18.87-3.59-24" transform="translate(0 -1.99)"/><path class="cls-42" d="M1300.85,1429.12a137.21,137.21,0,0,1,34.45,13.48c7.2,4.19,23.37,14.08,36.86,31.46,25.16,31.46,26.36,68,26.06,80.59" transform="translate(0 -1.99)"/><path class="cls-42" d="M1400.62,1599c0,8.38,0,15-.3,18.27-.9,101.57-2.4,140.52,0,201.34a12.35,12.35,0,0,0,.3,3.89" transform="translate(0 -1.99)"/><path class="cls-42" d="M1151.94,1597.5c-3.29-2.4-9.29-6-16.78-5.1-10.78,1.2-15.87,11.39-17.67,15.88-5.7,11.69-5.1,29.07,6.89,38.35,1.5,1.2,9.89,8.39,20.07,6a21.26,21.26,0,0,0,11.09-7.2" transform="translate(0 -1.99)"/><path class="cls-42" d="M1166.62,1503.42c2.4,11.09,3.6,20.37,4.5,27.26,2.39,19.18,5.39,37.46,0,58.43-.9,3.89-2.1,7.79-3,11.68-4.49.9-9,2.1-13.48,3,0-1.5-.3-3.3-.3-4.79a22.9,22.9,0,0,0-3.3-2.4" transform="translate(0 -1.99)"/><path class="cls-42" d="M1332.31,1427.32c-16.18-1.2-39.85-.6-63.22,11.38-20.37,10.49-26.66,22.47-45.24,36.56-15.28,11.68-39.55,25.46-77.9,31.46" transform="translate(0 -1.99)"/><path class="cls-42" d="M1322.12,1894.41a137,137,0,0,1-38.65,5.69,141,141,0,0,1-39-5.39" transform="translate(0 -1.99)"/><path class="cls-42" d="M1753.26,2146.38a445.91,445.91,0,0,1-56.63-47.93c-11.08-11.09-38.05-38.95-97.67-129.14-42.24-64.11-44.64-73.1-65.61-88.68-25.17-19.18-54.83-30.26-79.7-39.85-17.68-6.59-32.66-11.08-43.74-14.08" transform="translate(0 -1.99)"/><path class="cls-42" d="M1401.22,1824a125.5,125.5,0,0,1-37.45,39.25c-29.66,19.78-59.33,21.27-71.61,21.27,22.17,1.2,40.75,13.79,47,31.46a43.87,43.87,0,0,1,0,28.17c20.07-16.78,45.84-42.85,65.31-80.9a242.93,242.93,0,0,0,14.39-33.85C1413.2,1827.6,1407.21,1825.8,1401.22,1824Z" transform="translate(0 -1.99)"/><path class="cls-42" d="M1160.63,1835.39a186.8,186.8,0,0,0,110.26,49.13c-3.6,0-18,.9-28.76,12.29-11.39,11.68-14.39,30-7.79,46.74-21-14.38-49.74-39-70.11-77a242.24,242.24,0,0,1-11.69-26.07C1155.54,1838.38,1158.23,1836.89,1160.63,1835.39Z" transform="translate(0 -1.99)"/><circle class="cls-11" cx="1319.13" cy="1579.63" r="8.69"/><circle class="cls-11" cx="1399.12" cy="1579.63" r="8.69"/><path class="cls-42" d="M1372.76,1603.19c-.3.6-7.2,7.79-17.68,6-10.19-1.8-14.08-10.78-14.38-11.38" transform="translate(0 -1.99)"/><line class="cls-42" x1="1292.16" y1="1882.24" x2="1271.19" y2="1882.54"/><circle class="cls-43" cx="1283.47" cy="1888.23" r="4.19"/><path class="cls-42" d="M1145.05,1609.48a11.38,11.38,0,0,0-12.58,1.2,12,12,0,0,0-3.9,12.28" transform="translate(0 -1.99)"/><path class="cls-42" d="M1512.67,2144.29c.6-3.6,1.2-7.49,1.8-11.39a281.78,281.78,0,0,0,2.4-46.44" transform="translate(0 -1.99)"/><path class="cls-42" d="M1515.37,2131.1c6.29,5.1,12.88,10.19,19.18,15.28" transform="translate(0 -1.99)"/><line class="cls-12" x1="1788.92" y1="2144.4" x2="830.46" y2="2144.4"/></g><g id="Layer_2" data-name="Layer 2"><path class="cls-44" d="M176.82,1601.19c-19.68,32.07-62.2,112.73-38.63,200,21.62,79.21,86.73,124.15,158.65,173.47,72.89,50.05,138,75.81,159.38,83.58a29.05,29.05,0,0,0,5.59,1.94c52.48,19,209.67,116.62,572.41,373.67H81.09a465.53,465.53,0,0,0,33-142.37c11.18-163.51-82.36-242-82.6-366.62C31.53,1849.73,55.1,1738.46,176.82,1601.19Z" transform="translate(0 -1.99)"/><path class="cls-45" d="M336.2,2432.59c-24.3-128.28-72.65-209.92-113.22-261.18-59-74.35-128.28-118.08-162-222.31a373.37,373.37,0,0,1-18.22-112.24A448.54,448.54,0,0,0,32,1903.91c-9,106.42,23.08,183.44,37.41,232.76,18.95,65.11,30.37,161.81-5.34,296.89C154.71,2433.56,245.33,2433.07,336.2,2432.59Z" transform="translate(0 -1.99)"/><path class="cls-46" d="M712.3,2433.8a1032.25,1032.25,0,0,0-105.69-114.19c-54.18-50.53-88.19-71.43-207.49-157.19-44-31.58-100.09-73.13-174.93-132.41-44.7-35.23-123.17-98.89-145-202.39a278.21,278.21,0,0,1-5.1-76.28,536.41,536.41,0,0,1,38.38-69,544.58,544.58,0,0,1,64.87-81.4c-17,25.76-44,75.08-40.81,137,1,19.2,8,97.91,124.63,197.53,101.07,86.25,191.7,109.09,281.84,145,0,0,18.46,7.29,49.8,22.6,0,0,62.69,30.13,126.58,69.73,58.8,36.68,177.12,125.36,315.36,260.69Q873.26,2433.92,712.3,2433.8Z" transform="translate(0 -1.99)"/></g></svg>