<svg id="Layer_1" data-name="Layer 1" xmlns="http://www.w3.org/2000/svg" viewBox="0 0 569.66 400.7"><defs><style>.cls-1{fill:#fef2f7;}.cls-2{fill:#e6d1d9;opacity:0.35;isolation:isolate;}.cls-3{fill:#603a1a;}</style></defs><path class="cls-1" d="M305.25,499.07c-55.1,0-110.4,3-165.2-.7-60.5-4-105.1-42-119.9-90.9-11.4-37.7-.2-72.1,3.6-83,18.7-52.6,62.1-76.8,73.4-82.6.9-14,5.2-52.8,34.7-88.2,42.1-50.4,101.7-53.6,111.1-54,76.8-2.8,123.6,54.4,128.5,60.6,4.7-1.8,49.6-17.7,90.6,9.4,31.8,21,48.7,59.7,43.2,98.9,8.9,4,56.6,26.3,73.7,79.4,3.2,10,9.9,36.9,1.9,67.3-12.2,46.5-55.3,81-110.4,83.3s-110.2.5-165.3.5C305.25,499.17,305.25,499.17,305.25,499.07Z" transform="translate(-15.17 -99.57)"/><path class="cls-2" d="M422.35,464.47c14.7-2.8,44.8-9.5,71.3-33.1,10.5-9.4,31.8-28.3,33.2-54.9,1.6-30.4-23.1-61.4-61.2-77.5a99.09,99.09,0,0,0,11.4-46.3c-.4-58.5-55.8-93.3-60.8-96.3a98.83,98.83,0,0,1,47,17.5c4.4,3.1,31.6,23,39.4,60.1a98.21,98.21,0,0,1,.8,36c12.6,5.7,36.7,18.8,55.2,45.6,6.7,9.7,29.3,43.3,22.7,87.5a110.31,110.31,0,0,1-18.6,47c-29.7,41.5-80.2,46-88.7,46.7q-142,.6-284,1.1c-13.6.1-25-.4-33.7-1-31.3-1.9-44.6-5.7-52.2-8.2-4.2-1.4-7.6-2.7-9.8-3.7C247.65,484.37,365.25,475.47,422.35,464.47Z" transform="translate(-15.17 -99.57)"/><path class="cls-3" d="M248.55,105.07c29.7,0,58.1,9.1,84.2,27.1,19.6,13.5,31.4,27.5,34.5,31.5a5.31,5.31,0,0,0,4.2,2,6.28,6.28,0,0,0,1.9-.3,105.6,105.6,0,0,1,35.1-5.9c18.8,0,35.8,5,50.7,14.8a92.62,92.62,0,0,1,33.6,40.3A98.42,98.42,0,0,1,500,268a5.23,5.23,0,0,0,3.1,5.6,141.87,141.87,0,0,1,32.5,20.5c18.5,15.5,31.4,34.2,38.3,55.7,3.1,9.6,9.5,35.1,1.8,64.3a102.28,102.28,0,0,1-37.2,55.4c-19,14.6-42.6,22.9-68.2,23.9-19,.8-39.5,1.1-64.3,1.1-16.8,0-33.8-.2-50.3-.3-16.1-.2-32.7-.3-49.1-.3a5.9,5.9,0,0,0-1.4-.2c-17.1,0-34.5.3-51.4.6s-34.2.6-51.2.6c-24,0-43.8-.6-62.3-1.8-27.9-1.8-53.5-11.3-74.1-27.5a118.89,118.89,0,0,1-41-59.6c-7.3-24.3-6.1-52.6,3.6-79.6,16.9-47.5,55.2-71.5,70.8-79.7a5.26,5.26,0,0,0,2.9-4.4c1.1-18.2,7-53.4,33.5-85.1,17.1-20.5,39.1-35.3,65.4-44.1a147.29,147.29,0,0,1,41.8-7.9c1.8-.1,3.6-.1,5.4-.1m0-5.4c-1.8,0-3.7,0-5.5.1-9.4.3-69,3.6-111.1,54-29.5,35.4-33.8,74.2-34.7,88.2-11.3,5.9-54.7,30.1-73.4,82.6-3.9,10.9-15,45.3-3.6,83,14.7,48.9,59.4,86.9,119.9,90.9,20.8,1.4,41.7,1.8,62.6,1.8,34.2,0,68.4-1.1,102.6-1.1v.2c33.6,0,67.2.6,100.8.6,21.5,0,43-.3,64.5-1.1,55.1-2.2,98.1-36.7,110.4-83.3,8-30.4,1.3-57.3-1.9-67.3-17.1-53.2-64.8-75.5-73.7-79.4,5.5-39.3-11.4-77.9-43.2-98.9-18.4-12.2-37.6-15.7-53.6-15.7a113.76,113.76,0,0,0-37,6.2c-4.9-6.1-49.5-60.8-123.1-60.8Z" transform="translate(-15.17 -99.57)"/></svg>