<svg id="Layer_1" data-name="Layer 1" xmlns="http://www.w3.org/2000/svg" viewBox="0 0 360.7 379.5"><defs><style>.cls-1{fill:#e9e8e9;}.cls-2{fill:#ddddd7;}.cls-3{fill:#fef2f7;}.cls-4{fill:#e6d1d9;opacity:0.35;isolation:isolate;}.cls-5{fill:#603a1a;}</style></defs><path class="cls-1" d="M437.37,347h0l-54.7-1.2q-78-39.45-156-79v141.4l43.5-9.9-74.6,97c-3.8-4.9-7.6-9.8-11.4-14.8l-63.3-82.2c14.5,3.3,28.9,6.6,43.5,9.9l-.5-286.7c0-2.9,3.1-5.2,7-5.3l48.9-.3c3.9,0,7.1,2.3,7.1,5.3v80.6q95.25,49.65,190.4,99.3C423.77,316.37,430.57,331.67,437.37,347Z" transform="translate(-120.67 -115.87)"/><path class="cls-2" d="M417.07,301.17q-95.25-49.65-190.4-99.3v-81.1c0-2.4-3.1-4.1-6.1-3.3-1.9.5-3.9,1.1-6.1,1.8-1.3.4-2.7.9-4.2,1.3v355.7l59.9-77.9-43.5,9.9V267q78,39.45,156,79l54.7,1.2h0C430.57,331.87,423.77,316.47,417.07,301.17Z" transform="translate(-120.67 -115.87)"/><path class="cls-3" d="M481.37,398.27l-63.3,82.2c-3.8,4.9-7.6,9.8-11.4,14.8l-74.6-97,43.5,9.9v-66.1c-16.7-8.6-33.4-17.1-50-25.7A191,191,0,0,0,307,272a225.56,225.56,0,0,0-36.6-47.5q52.65,27.45,105.2,54.8V115.87c2.9.6,7.3,1.7,12.3,3.2,10.7,3.4,27.6,8.7,38.9,20.8a42.67,42.67,0,0,1,10.8,20.7,19.92,19.92,0,0,1,.4,4.2v243.4C452.37,404.87,466.87,401.57,481.37,398.27Z" transform="translate(-120.67 -115.87)"/><path class="cls-4" d="M437.87,408.17V164.77a19.92,19.92,0,0,0-.4-4.2,42.19,42.19,0,0,0-10.8-20.7c-9.2-9.8-22-15.1-32.3-18.6v358l12.3,15.9c3.8-4.9,7.6-9.8,11.4-14.8l63.3-82.2C466.87,401.57,452.37,404.87,437.87,408.17Z" transform="translate(-120.67 -115.87)"/><path class="cls-3" d="M406.27,128.67a83.87,83.87,0,0,0-25.4-11.5c-1.8-.5-3.6-.9-5.4-1.3v292.4l-43.5-9.9q37.35,48.45,74.7,97Q406.52,311.92,406.27,128.67Z" transform="translate(-120.67 -115.87)"/><path class="cls-5" d="M220.17,121.27a2.15,2.15,0,0,1,1,.2v80.3a5.48,5.48,0,0,0,2.9,4.8c14.6,7.6,29.1,15.2,43.7,22.8q52.5,27.45,105,54.7l.2.1a5.42,5.42,0,0,0,2.5.6,5.66,5.66,0,0,0,2.8-.8,5.41,5.41,0,0,0,2.6-4.6V122.67c1.8.5,3.6,1,5.3,1.5h.1c10.4,3.3,26.2,8.2,36.5,19.3a37.81,37.81,0,0,1,9.5,18.1,13,13,0,0,1,.3,3.1v243.4a5.31,5.31,0,0,0,2,4.2,5.16,5.16,0,0,0,3.3,1.2,4.87,4.87,0,0,0,1.2-.1l28.9-6.6c-6.6,8.5-13.1,17-19.7,25.6-11.5,14.9-23,29.9-34.5,44.8l-5.6,7.2-1.6,2-61.3-79.6,13.1,3c5.3,1.2,10.6,2.4,15.8,3.6a4.87,4.87,0,0,0,1.2.1,5,5,0,0,0,3.3-1.2,5.31,5.31,0,0,0,2-4.2v-66a5.37,5.37,0,0,0-2.9-4.8q-46.65-23.55-93.2-47.2c-18.6-9.4-37.1-18.8-55.7-28.2a5.33,5.33,0,0,0-2.4-.6,5.66,5.66,0,0,0-2.8.8,5.41,5.41,0,0,0-2.6,4.6v141.4a5.31,5.31,0,0,0,2,4.2,5.16,5.16,0,0,0,3.3,1.2,4.87,4.87,0,0,0,1.2-.1l15.8-3.6,13.1-3-61.3,79.6-1.5-2-5.6-7.3c-18.1-23.4-36.4-47.2-54.2-70.4,9.6,2.2,19.2,4.4,28.9,6.6a4.87,4.87,0,0,0,1.2.1,5,5,0,0,0,3.3-1.2,5.31,5.31,0,0,0,2-4.2l-.2-286.2a2.51,2.51,0,0,1,1-.2l28.6-.2,21.5-.1m155.3-5.4v163.4q-52.65-27.45-105.2-54.8c-14.6-7.6-29.1-15.2-43.7-22.8v-81c0-2.7-2.9-4.8-6.4-4.8h0l-50.1.3c-3.5,0-6.4,2.2-6.4,4.8q.3,143.55.5,287.2l-43.5-9.9,63.3,82.2c3.8,4.9,7.6,9.8,11.4,14.8l74.6-97-43.5,9.9V266.77q74.4,37.65,148.9,75.4v66l-43.5-9.9,74.7,97c3.8-4.9,7.6-9.8,11.4-14.8l63.3-82.2c-14.5,3.3-28.9,6.6-43.5,9.9V164.77a19.92,19.92,0,0,0-.4-4.2,42.19,42.19,0,0,0-10.8-20.7c-11.3-12.1-28.2-17.4-38.9-20.8-4.9-1.5-9.2-2.5-12.2-3.2Zm-105.4,282.4Z" transform="translate(-120.67 -115.87)"/></svg>