<svg id="Layer_1" data-name="Layer 1" xmlns="http://www.w3.org/2000/svg" viewBox="0 0 537.1 377.71"><defs><style>.cls-1{fill:#fef2f7;}.cls-2{fill:#e9e8e9;}.cls-3{fill:#ddddd7;}.cls-4{fill:none;stroke:#603a1a;stroke-linecap:round;stroke-linejoin:round;stroke-width:5.36px;}</style></defs><rect class="cls-1" x="290.91" y="196.6" width="41.7" height="212.8" transform="translate(-137.23 71.13) rotate(-28.07)"/><rect class="cls-1" x="343.29" y="286.54" width="212.8" height="41.7" transform="translate(-46.57 480.02) rotate(-65.76)"/><rect class="cls-1" x="65.5" y="274.49" width="212.8" height="41.7" transform="matrix(0.53, -0.85, 0.85, 0.53, -200.98, 173.4)"/><rect class="cls-1" x="292.37" y="158.23" width="165.8" height="41.7" transform="translate(-37.44 -97.77) rotate(-2.03)"/><rect class="cls-1" x="205.56" y="317.29" width="41.7" height="212.79" transform="translate(-244.99 505.15) rotate(-85.52)"/><path class="cls-2" d="M113.68,352.75a65.67,65.67,0,1,0,50.4,78A65.69,65.69,0,0,0,113.68,352.75Zm-16.5,76.7a12.73,12.73,0,1,1,15.1-9.8A12.74,12.74,0,0,1,97.18,429.45Z" transform="translate(-31.33 -111.19)"/><path class="cls-3" d="M55.78,465.55a66.76,66.76,0,0,0,30.4,15.6c23.5,4.9,51.3-3.8,67.3-26.1,1.2-1.6,19.3-27.9,8.7-59.2a67,67,0,0,0-23.7-32.1,68.92,68.92,0,0,1-82.7,101.8Z" transform="translate(-31.33 -111.19)"/><path class="cls-2" d="M265.38,116a65.67,65.67,0,1,0,50.4,78A65.69,65.69,0,0,0,265.38,116ZM249,192.65a12.73,12.73,0,1,1,15.1-9.8A12.74,12.74,0,0,1,249,192.65Z" transform="translate(-31.33 -111.19)"/><path class="cls-3" d="M207.48,228.75a66.76,66.76,0,0,0,30.4,15.6c23.5,4.9,51.3-3.8,67.3-26.1,1.2-1.6,19.3-27.9,8.7-59.2a67,67,0,0,0-23.7-32.1,68.92,68.92,0,0,1-82.7,101.8Z" transform="translate(-31.33 -111.19)"/><path class="cls-2" d="M514.08,115.25a65.67,65.67,0,1,0,50.4,78A65.69,65.69,0,0,0,514.08,115.25ZM497.68,192a12.73,12.73,0,1,1,15.1-9.8A12.74,12.74,0,0,1,497.68,192Z" transform="translate(-31.33 -111.19)"/><path class="cls-3" d="M456.18,228.05a66.76,66.76,0,0,0,30.4,15.6c23.5,4.9,51.3-3.8,67.3-26.1,1.2-1.6,19.3-27.9,8.7-59.2a67,67,0,0,0-23.7-32.1,68.92,68.92,0,0,1-82.7,101.8Z" transform="translate(-31.33 -111.19)"/><path class="cls-2" d="M395.18,356.35a65.67,65.67,0,1,0,50.4,78A65.69,65.69,0,0,0,395.18,356.35Zm-16.5,76.7a12.73,12.73,0,1,1,15.1-9.8A12.74,12.74,0,0,1,378.68,433.05Z" transform="translate(-31.33 -111.19)"/><path class="cls-3" d="M337.28,469.15a66.76,66.76,0,0,0,30.4,15.6c23.5,4.9,51.3-3.8,67.3-26.1,1.2-1.6,19.3-27.9,8.7-59.2a67,67,0,0,0-23.7-32.1,68.92,68.92,0,0,1-82.7,101.8Z" transform="translate(-31.33 -111.19)"/><path class="cls-4" d="M513.88,115.35a65.63,65.63,0,0,0-75.1,40.7L314,160.45a65.66,65.66,0,0,0-126.8,6,65,65,0,0,0,9.4,49.9l-85.1,136.1a65.67,65.67,0,1,0,49.9,87.1l162.3,12.7A65.66,65.66,0,1,0,437,386l63.4-140.8a65.63,65.63,0,0,0,13.5-129.8Zm-401.8,304.4a12.73,12.73,0,1,1-9.8-15.1A12.74,12.74,0,0,1,112.08,419.75Zm126.8-242.1a12.73,12.73,0,1,1,9.8,15.1A12.74,12.74,0,0,1,238.88,177.65Zm-90.9,195,81.6-130.4a73.16,73.16,0,0,0,8,2.3,65.8,65.8,0,0,0,19.7,1.2l71.9,134.9A65,65,0,0,0,317,407c-.2,1-.4,2.1-.6,3.1l-153.9-12A65,65,0,0,0,148,372.65Zm245.6,50.7a12.73,12.73,0,1,1-9.8-15.1A12.74,12.74,0,0,1,393.58,423.35Zm9.9-64.4a60.61,60.61,0,0,0-8.6-2.4,66.07,66.07,0,0,0-31,.8L295.38,229a64.79,64.79,0,0,0,17.8-26.7l123.7-4.4a65.8,65.8,0,0,0,23.6,34.3Zm109.1-176.7a12.73,12.73,0,1,1-9.8-15.1A12.74,12.74,0,0,1,512.58,182.25Z" transform="translate(-31.33 -111.19)"/></svg>