<svg id="Layer_1" data-name="Layer 1" xmlns="http://www.w3.org/2000/svg" viewBox="0 0 248.4 384.76"><defs><style>.cls-1,.cls-8{fill:#bfbfbc;}.cls-2{fill:#e0daa2;}.cls-3{fill:#f4efcb;opacity:0.6;}.cls-3,.cls-5,.cls-7,.cls-8{isolation:isolate;}.cls-4{fill:#ddddd7;}.cls-5,.cls-6{fill:#e9e8e9;}.cls-5,.cls-7{opacity:0.55;}.cls-7{fill:#f2f2f3;}.cls-8{opacity:0.17;}.cls-9{fill:none;stroke:#603a1a;stroke-linecap:round;stroke-linejoin:round;stroke-width:5.36px;}.cls-10{fill:#603a1a;}</style></defs><rect class="cls-1" x="99.1" y="264.88" width="50.3" height="116.1"/><path class="cls-2" d="M238.2,218.65h20.5a4,4,0,0,0,4-4v-95a4,4,0,0,0-4-4H238.2a4,4,0,0,0-4,4v95A4,4,0,0,0,238.2,218.65Z" transform="translate(-175.8 -113.97)"/><path class="cls-2" d="M341.7,218.65h20.1a4,4,0,0,0,4-4v-95a4,4,0,0,0-4-4H341.7a4,4,0,0,0-4,4v95A4,4,0,0,0,341.7,218.65Z" transform="translate(-175.8 -113.97)"/><path class="cls-3" d="M240.6,181.65v-66H236c-1,0-1.8,1.3-1.8,2.9v63.1Z" transform="translate(-175.8 -113.97)"/><path class="cls-4" d="M300,428.65h0a118.17,118.17,0,0,0,118.2-118.2v-117a5.12,5.12,0,0,0-5.1-5.1H186.9a5.12,5.12,0,0,0-5.1,5.1v117A118.17,118.17,0,0,0,300,428.65Z" transform="translate(-175.8 -113.97)"/><path class="cls-5" d="M247.4,413.85a110.93,110.93,0,0,0,10.4,5.5,106.89,106.89,0,0,0,12.9,4.9V188.35H247.3Q247.45,301.15,247.4,413.85Z" transform="translate(-175.8 -113.97)"/><path class="cls-5" d="M217.9,388.85a108.48,108.48,0,0,0,7.5,8c3.2,3.1,6.3,5.8,9.2,8.2V188.45H217.9Z" transform="translate(-175.8 -113.97)"/><path class="cls-6" d="M179.4,235.75H420.7a3.54,3.54,0,0,0,3.5-3.5v-48.1a3.54,3.54,0,0,0-3.5-3.5H179.4a3.54,3.54,0,0,0-3.5,3.5v48.1A3.42,3.42,0,0,0,179.4,235.75Z" transform="translate(-175.8 -113.97)"/><rect class="cls-7" x="67.74" y="66.65" width="22.9" height="55.1"/><rect class="cls-7" x="39" y="66.65" width="16.9" height="55.1"/><path class="cls-8" d="M300,428.65c14.5-5.5,59.6-25.1,79.7-74.7,9.3-22.9,12.2-49.5,13.1-58.5a272.76,272.76,0,0,0,0-59.7h10c-.4-18.4-.7-36.7-1.1-55.1h17A5.34,5.34,0,0,1,424,186v44.4a5.34,5.34,0,0,1-5.3,5.3h-.6c.1,12.4.1,29.9,0,51-.2,36.6-.6,40.5-1.6,45.6-2.1,10.6-9,37.7-32.4,61.1a124.11,124.11,0,0,1-84.1,35.3Z" transform="translate(-175.8 -113.97)"/><polyline class="cls-9" points="149.3 313.08 149.3 382.08 99.1 382.08 99.1 313.08"/><path class="cls-9" d="M262.8,182.85v-62.1a4,4,0,0,0-4-4H238.3a4,4,0,0,0-4,4v61" transform="translate(-175.8 -113.97)"/><path class="cls-9" d="M365.8,181.75v-61.1a4,4,0,0,0-4-4H341.7a4,4,0,0,0-4,4v61.1" transform="translate(-175.8 -113.97)"/><path class="cls-9" d="M181.8,234.15v77.4A118.17,118.17,0,0,0,300,429.75h0a118.17,118.17,0,0,0,118.2-118.2v-77" transform="translate(-175.8 -113.97)"/><path class="cls-10" d="M418.8,186.05v44.3H181.3v-44.3H418.8m1.8-5.3H179.3a3.54,3.54,0,0,0-3.5,3.5v48.1a3.54,3.54,0,0,0,3.5,3.5H420.6a3.54,3.54,0,0,0,3.5-3.5v-48.1a3.42,3.42,0,0,0-3.5-3.5Z" transform="translate(-175.8 -113.97)"/></svg>