<svg id="Layer_1" data-name="Layer 1" xmlns="http://www.w3.org/2000/svg" viewBox="0 0 556.57 393.46"><defs><style>.cls-1{fill:#fef2f7;}.cls-2{fill:#e6d1d9;opacity:0.35;isolation:isolate;}.cls-3{fill:#603a1a;}</style></defs><path class="cls-1" d="M301.61,109.66c95.3.4,180.1,30.1,254.1,90.2,14.1,11.4,34.4,22.5,13.9,44.5-23.4,25-30.8,34.1-58.9,10-118.8-101.8-309.5-99.2-424.5,2-17.8,15.7-31,15.4-47.3-1.9-22.9-24.4-23.9-30,3.7-53.1C117.41,138.86,204.31,109.56,301.61,109.66Z" transform="translate(-21.75 -109.66)"/><path class="cls-1" d="M479.21,330.26c-2.9,25.4-40.9,43.5-63.1,27.7-45.5-32.4-95.4-40.8-149.5-33.9-30.6,3.9-56.8,17.1-82.4,33.6-25.1,16.2-39.8,10.7-58.8-16.5-15.7-22.5,3.8-29.5,16.2-39.2,87.4-68.2,227.9-68.7,315.1-1.4C466.71,308.36,479.41,314.46,479.21,330.26Z" transform="translate(-21.75 -109.66)"/><path class="cls-1" d="M302.31,503.06c-29.7,1.5-58.5-26.3-58.5-56.5,0-29,23.6-53.2,53.3-54.5,31.1-1.4,54.5,18.8,57.1,49.4C356.91,473.46,333.31,501.46,302.31,503.06Z" transform="translate(-21.75 -109.66)"/><path class="cls-2" d="M555.61,199.76c-58.9-47.9-124.7-76.5-197.2-86.3.7,22,.7,45.6-.3,70.7,55.6,9.5,108.9,32.8,152.5,70.2,28.2,24.1,35.5,15,58.9-10C590,222.26,569.71,211.26,555.61,199.76Z" transform="translate(-21.75 -109.66)"/><path class="cls-2" d="M342.21,325.86a189.32,189.32,0,0,1,73.9,32.1c22.2,15.8,60.2-2.3,63.1-27.7.3-15.9-12.5-21.9-22.6-29.8-29.8-23-65.8-38.1-103.8-45.2-2,17.6-4.5,35.8-7.6,54.4C344.11,315.06,343.21,320.46,342.21,325.86Z" transform="translate(-21.75 -109.66)"/><path class="cls-2" d="M302.31,503c31-1.5,54.6-29.6,51.9-61.7-1.7-20-12.4-35.6-28.3-43.5a981.35,981.35,0,0,1-34.1,104.5A46.39,46.39,0,0,0,302.31,503Z" transform="translate(-21.75 -109.66)"/><path class="cls-3" d="M300.91,115h.6c46.9.2,91.8,7.7,133.3,22.4,41.7,14.8,81.2,37.2,117.4,66.6,1.6,1.3,3.3,2.6,4.9,3.8,7.5,5.8,15.2,11.7,15.7,18.3.3,4.1-2.1,9-7.2,14.5l-1.5,1.6c-12.1,13-19.5,20.9-27.1,20.9-5.6,0-12.6-4-23-12.8-57.5-49.3-133.7-76.4-214.6-76.4a345.44,345.44,0,0,0-115.9,19.7c-38.1,13.5-72.1,33.3-101.1,58.8-7.8,6.9-14.2,10.1-19.9,10.1-6.1,0-12.4-3.7-19.9-11.6-10.6-11.3-16-18-15.6-23.2.3-5.5,7.5-12.5,18.8-22.1,36.3-30.3,76.4-53.3,119.2-68.4,42.1-14.7,87.8-22.2,135.9-22.2m0-5.3c-97,0-183.7,29.4-258.4,91.8-27.6,23.1-26.5,28.7-3.7,53.1,8.4,8.9,16,13.3,23.8,13.3,7.3,0,14.9-3.9,23.5-11.4,58.2-51.2,135.7-77.2,213.5-77.2,76,0,152.3,24.8,211.1,75.1,11.4,9.8,19.4,14.1,26.5,14.1,10.3,0,18.6-9.3,32.4-24.1,20.5-22,.2-33-13.9-44.5-73.9-60.1-158.8-89.9-254.1-90.2Z" transform="translate(-21.75 -109.66)"/><path class="cls-3" d="M300.31,255.76h0c57.7,0,112,17.4,152.9,49,1.7,1.3,3.5,2.6,5.2,3.8,9.6,6.8,15.5,11.6,15.4,21.4-1.9,15-20,28.6-38.2,28.6a28.67,28.67,0,0,1-16.5-4.9c-35.2-25-74.1-37.1-118.9-37.1a294.38,294.38,0,0,0-34.4,2.2c-34.2,4.3-62,19.8-84.6,34.4-8.6,5.5-15.6,8.2-21.6,8.2-9.6,0-18.5-7-29.9-23.3-3.8-5.4-5.4-10-4.8-13.5,1-5.2,6.9-9.3,13.3-13.6,2.2-1.5,4.5-3.1,6.6-4.7,21-16.4,45.5-29.1,72.7-37.7a269.93,269.93,0,0,1,82.8-12.8h0m0-5.3c-57.4,0-114.8,17.2-158.8,51.5-12.4,9.6-31.9,16.7-16.2,39.2,11.9,17,22.2,25.5,34.3,25.5,7.2,0,15.2-3,24.5-9,25.5-16.4,51.7-29.7,82.4-33.6a276.23,276.23,0,0,1,33.7-2.2c41.3,0,79.9,10.6,115.8,36.1a33.49,33.49,0,0,0,19.6,5.9c20,0,41.4-14.8,43.5-33.6.3-15.9-12.5-21.9-22.6-29.8-43.2-33.3-99.6-50-156.2-50Z" transform="translate(-21.75 -109.66)"/><path class="cls-3" d="M300.21,397.26c26.9,0,46.4,17.9,48.6,44.5a52.71,52.71,0,0,1-12.7,39.1,48.24,48.24,0,0,1-34.1,16.7h-2c-12.4,0-25.2-5.7-35.1-15.7s-15.7-22.9-15.7-35.5a48.43,48.43,0,0,1,14-33.9,50.66,50.66,0,0,1,34.2-15.3,26.2,26.2,0,0,0,2.8.1h0m0-5.3c-1,0-2,0-3.1.1-29.7,1.4-53.3,25.5-53.3,54.5,0,29.4,27.3,56.5,56.2,56.5a17.7,17.7,0,0,0,2.3-.1c31-1.5,54.6-29.6,51.9-61.7-2.5-29.4-24.4-49.3-54-49.3Z" transform="translate(-21.75 -109.66)"/></svg>